<svg xmlns="http://www.w3.org/2000/svg" width="17.246" height="13.795" viewBox="0 0 17.246 13.795"><defs><style>.a{fill:#384047;}</style></defs><g transform="translate(42.418 33.929)"><path class="a" d="M7.516,13.782,5.872,13.3a.324.324,0,0,1-.221-.4L9.329.233a.324.324,0,0,1,.4-.221l1.644.477a.324.324,0,0,1,.221.4L7.917,13.561A.323.323,0,0,1,7.516,13.782ZM4.444,10.758l1.172-1.25a.323.323,0,0,0-.022-.463L3.153,6.9,5.595,4.749a.321.321,0,0,0,.022-.463L4.444,3.036a.324.324,0,0,0-.458-.013L.1,6.66a.321.321,0,0,0,0,.472l3.883,3.64A.321.321,0,0,0,4.444,10.758Zm8.817.016,3.883-3.64a.321.321,0,0,0,0-.472L13.26,3.02a.326.326,0,0,0-.458.013L11.63,4.283a.323.323,0,0,0,.022.463L14.093,6.9,11.652,9.045a.321.321,0,0,0-.022.463l1.172,1.25a.324.324,0,0,0,.458.016Z" transform="translate(-42.418 -33.929)"/></g></svg>