<?xml version="1.0" encoding="utf-8"?>
<!-- Generator: Adobe Illustrator 24.1.3, SVG Export Plug-In . SVG Version: 6.00 Build 0)  -->
<svg version="1.1" id="Layer_1" xmlns="http://www.w3.org/2000/svg" xmlns:xlink="http://www.w3.org/1999/xlink" x="0px" y="0px"
	 viewBox="0 0 112 76.51" style="enable-background:new 0 0 112 76.51;" xml:space="preserve">
<style type="text/css">
	.st0{fill:#192127;}
</style>
<g transform="translate(281.07 192)">
	<path class="st0" d="M-169.07-115.49c-4.86,0.02-9.66-1.05-14.05-3.12c-6.72-3.2-14.05-4.89-21.49-4.98
		c-7.63-0.18-15.01,2.74-20.45,8.09c-5.44-5.36-12.82-8.28-20.45-8.09c-7.44,0.08-14.77,1.78-21.49,4.98
		c-4.32,2.01-9.02,3.07-13.78,3.12h-0.27l8.48-69.56c8.06-4.5,17.13-6.89,26.36-6.95c7.38,0,14.98,1.53,21.16,5.8
		c6.18-4.27,13.78-5.8,21.16-5.8c9.23,0.06,18.3,2.45,26.36,6.95L-169.07-115.49z M-177.71-124.41l-6.78-55.84
		c-6.34-2.8-13.19-4.26-20.12-4.27c-7.56-0.18-14.9,2.58-20.45,7.71c-5.56-5.13-12.89-7.89-20.45-7.71
		c-6.93,0.01-13.79,1.46-20.12,4.27l-6.78,55.84c9.41-3.88,16.52-6.67,26.91-6.67c7.25-0.07,14.36,1.98,20.45,5.91
		c6.1-3.92,13.21-5.98,20.45-5.91C-194.23-131.08-187.12-128.29-177.71-124.41z"/>
</g>
</svg>
