<svg id="list-24px" xmlns="http://www.w3.org/2000/svg" width="24" height="24" viewBox="0 0 24 24">
  <g id="Group_601" data-name="Group 601">
    <path id="Path_2373" data-name="Path 2373" d="M0,0H24V24H0Z" fill="none"/>
    <path id="Path_2374" data-name="Path 2374" d="M0,0H24V24H0Z" fill="none" opacity="0.87"/>
  </g>
  <path id="Path_2375" data-name="Path 2375" d="M3,13H5V11H3Zm0,4H5V15H3ZM3,9H5V7H3Zm4,4H21V11H7Zm0,4H21V15H7ZM7,7V9H21V7ZM3,13H5V11H3Zm0,4H5V15H3ZM3,9H5V7H3Zm4,4H21V11H7Zm0,4H21V15H7ZM7,7V9H21V7Z" fill="#fff"/>
</svg>
