<?xml version="1.0" encoding="utf-8"?>
<!-- Generator: Adobe Illustrator 24.1.3, SVG Export Plug-In . SVG Version: 6.00 Build 0)  -->
<svg version="1.1" id="Layer_1" xmlns="http://www.w3.org/2000/svg" xmlns:xlink="http://www.w3.org/1999/xlink" x="0px" y="0px"
	 viewBox="0 0 80.2 82" style="enable-background:new 0 0 80.2 82;" xml:space="preserve">
<style type="text/css">
	.st0{fill:#192127;}
</style>
<g transform="translate(-3.238 0)">
	<path class="st0" d="M43.34,58.56c-1.15,0-2.08,0.93-2.08,2.08c0,1.15,0.93,2.08,2.08,2.08c1.15,0,2.08-0.93,2.08-2.08
		c0-0.55-0.22-1.08-0.61-1.47C44.42,58.78,43.89,58.57,43.34,58.56z"/>
	<path class="st0" d="M76.92,5.92H50.09c-1.56-2.05-3.37-3.89-5.38-5.5c-0.74-0.56-1.76-0.56-2.5,0c-2.01,1.61-3.82,3.45-5.38,5.5
		H9.76c-3.6,0-6.52,2.92-6.52,6.52v50.29c0,3.6,2.92,6.52,6.52,6.52h22.27l-2.86,8.58h-2.72c-1.15,0-2.08,0.93-2.08,2.08
		c0,1.15,0.93,2.08,2.08,2.08h33.79c1.15,0,2.08-0.93,2.08-2.08c0-1.15-0.93-2.08-2.08-2.08h-2.72l-2.86-8.58h22.27
		c3.6,0,6.52-2.92,6.52-6.52V12.44C83.44,8.84,80.52,5.92,76.92,5.92z M76.92,10.08c1.3,0,2.36,1.06,2.36,2.36v39.07H62.32V38.48
		c0-3.44-2.29-6.45-5.59-7.39v-6.61c-0.02-5.05-1.35-10.01-3.87-14.39H76.92z M34,45.23c0.23-0.34,0.35-0.74,0.35-1.15V43.4h4.23
		v3.05c0,1.42,0.94,3.44,1.86,5.07H29.82L34,45.23z M28.76,45.6v-7.12c0-1.12,0.53-2.17,1.43-2.83v7.8L28.76,45.6z M58.16,45.6
		l-1.43-2.15v-7.8c0.9,0.66,1.43,1.71,1.43,2.83V45.6z M52.56,32.88v6.36h-4.23V36.1c0.11-2.81-2.07-5.18-4.88-5.3
		c-2.81,0.13-4.98,2.49-4.87,5.3v3.14h-4.23V25.45h18.21V32.88L52.56,32.88z M42.74,46.45V36.1c0-0.7,0.42-1.14,0.71-1.14
		s0.72,0.44,0.72,1.14v10.34c-0.15,0.65-0.39,1.28-0.72,1.87C43.13,47.73,42.89,47.1,42.74,46.45z M48.34,46.45V43.4h4.23v0.67
		c0,0.41,0.12,0.81,0.35,1.15l4.19,6.29H46.48C47.39,49.89,48.34,47.87,48.34,46.45z M43.46,4.83c2.42,2.27,7.63,7.99,8.84,16.15
		H34.62C35.83,12.82,41.03,7.1,43.46,4.83z M9.76,10.08h24.3c-2.52,4.38-3.85,9.34-3.87,14.39v6.61c-3.31,0.94-5.59,3.96-5.59,7.39
		v13.04H7.4V12.44C7.4,11.14,8.46,10.08,9.76,10.08z M53.13,77.84H33.55l2.86-8.58h13.85L53.13,77.84z M76.92,65.09H9.76
		c-1.3,0-2.36-1.06-2.36-2.36v-7.05h71.88v7.05C79.28,64.04,78.22,65.09,76.92,65.09z"/>
</g>
</svg>
