<?xml version="1.0" encoding="utf-8"?>
<!-- Generator: Adobe Illustrator 24.1.3, SVG Export Plug-In . SVG Version: 6.00 Build 0)  -->
<svg version="1.1" xmlns="http://www.w3.org/2000/svg" xmlns:xlink="http://www.w3.org/1999/xlink" x="0px" y="0px"
	 viewBox="0 0 752 423" style="enable-background:new 0 0 752 423;" xml:space="preserve">
<style type="text/css">
	.st0{opacity:0.06;fill:#00838F;}
	.st1{fill:#FFFFFF;}
	.st2{fill:#FFD0CA;}
	.st3{fill:#FFFBE9;}
	.st4{fill:#99DDC6;}
	.st5{fill:#00838F;}
	.st6{fill:#3C4750;}
	.st7{fill:#EFC2C2;}
	.st8{fill:none;stroke:#000000;stroke-width:3;stroke-miterlimit:10;}
	.st9{opacity:0.6;fill:#FFFFFF;}
</style>
<g id="BACKGROUND">
</g>
<g id="OBJECTS">
	<rect x="-9.84" y="-4.62" class="st0" width="769.63" height="433.64"/>
	<g>
		<path class="st1" d="M752.99,429.85v31.65h-750v-500h73.38c7.07,2.65,13.97,5.77,20.63,9.32c43.93,23.42,77.28,65.51,91.09,113.34
			c12.04,41.7,9.66,85.99,13.91,129.19c4.25,43.19,17.22,88.88,51.26,115.8c27.46,21.71,64.4,27.61,99.39,26.35
			c34.98-1.27,69.45-8.9,104.39-10.99c53.94-3.24,108.63,6.98,157.75,29.48c40.39,18.5,77.82,45.39,121.47,53.66
			C741.8,428.7,747.39,429.43,752.99,429.85z"/>
		<g>
			<g>
				<path class="st2" d="M511.9,35.5c-0.55,7.04-6.33,13.99-14.71,17.71c-9.07,4.03-18.64,3.23-25.6-2.14
					c-5.25-4.04-8.09-10.29-7.58-16.7c0.4-5.05,2.83-9.64,6.86-12.9c8.84-7.16,22.73-7.72,32.29-1.3
					C510.97,25.4,512.22,31.4,511.9,35.5L511.9,35.5z"/>
				<path class="st1" d="M466.68,34.59c0.32-4.1,2.25-8.1,5.88-11.03c7.99-6.47,20.63-6.85,29.11-1.16c5.78,3.88,7.9,8.46,7.55,12.9
					c-1,12.73-22.39,24.15-36,13.66C468.51,45.32,466.27,39.86,466.68,34.59 M461.33,34.17c-0.57,7.32,2.65,14.44,8.62,19.04
					c7.76,5.98,18.35,6.9,28.33,2.46c9.27-4.12,15.66-11.95,16.29-19.95c0.31-3.94-0.57-11.5-9.91-17.77
					c-10.5-7.05-25.75-6.43-35.48,1.44C464.58,23.12,461.79,28.37,461.33,34.17L461.33,34.17z"/>
			</g>
			<path class="st3" d="M475.87,39.88c0.8,0.74,2.18,0.74,3.14,0.36c0.76-0.3,1.53-1.17,0.74-1.9c-0.8-0.74-2.18-0.75-3.13-0.37
				C475.85,38.28,475.07,39.15,475.87,39.88z"/>
			<path class="st3" d="M474.69,33.77c0.58,0.54,1.59,0.54,2.29,0.26c0.55-0.22,1.12-0.85,0.54-1.39c-0.58-0.54-1.59-0.54-2.29-0.27
				C474.68,32.6,474.11,33.24,474.69,33.77z"/>
			<path class="st3" d="M479.04,31.15c0.02,0.09,0.05,0.18,0.07,0.26c0.25,0.92,1.53,0.98,2.27,0.68c0.95-0.38,0.81-1.21-0.06-1.54
				c-0.13-0.05-0.25-0.1-0.38-0.15C480.55,30.26,478.83,30.36,479.04,31.15z"/>
			<path class="st3" d="M481.88,35.42c-0.01,0.03-0.03,0.06-0.04,0.08c-0.06,0.14,0.01,0.24,0.09,0.34
				c0.04,0.06,0.09,0.11,0.13,0.16c0.44,0.56,2.01-0.06,1.21-0.62c-0.22-0.16-0.4-0.23-0.68-0.25
				C482.35,35.13,482,35.17,481.88,35.42z"/>
			<path class="st3" d="M495.93,35.4c0.71,0.65,1.94,0.66,2.78,0.32c0.67-0.27,1.37-1.04,0.66-1.69c-0.71-0.65-1.94-0.66-2.78-0.32
				C495.91,33.98,495.22,34.74,495.93,35.4z"/>
		</g>
		<g>
			<g>
				<path class="st4" d="M578.79,127.21c4.91,5.56,12.02,7.12,17.52,6.06c13.99-2.7,16.9-23.5,0.87-31.84
					c-7.14-3.71-16.02-3.17-20.43,3.42C572.68,110.93,572.91,120.54,578.79,127.21z"/>
				<path class="st3" d="M592.25,104.3c-0.1,0.05-0.19,0.1-0.28,0.17c-0.22,0.17-0.58,1.43,0,1.44c0.1,0,0.19-0.01,0.28-0.02
					c0.31-0.05,0.46-0.6,0.46-0.95C592.72,104.66,592.54,104.14,592.25,104.3z"/>
				<path class="st3" d="M594.71,104.71c-0.2,0-0.27,0.14-0.38,0.32c-0.07,0.1-0.13,0.31-0.03,0.46c0.04,0.07,0.09,0.19,0.16,0.28
					c0.34,0.45,0.55-0.49,0.48-0.78l-0.02-0.09C594.87,104.81,594.78,104.71,594.71,104.71z"/>
				<path class="st3" d="M595.86,109.95c-0.02-0.03-0.03-0.06-0.05-0.09c-0.05-0.06-0.1-0.1-0.16-0.11c-0.05,0-0.09,0-0.14,0
					c-0.15,0-0.21,0.17-0.24,0.33c-0.05,0.24-0.08,0.42-0.03,0.69C595.4,111.61,596.27,110.66,595.86,109.95z"/>
				<path class="st3" d="M593.52,107.07c-0.05-0.3-0.2-0.55-0.45-0.35c-0.24,0.19-0.47,0.9-0.09,1.22c0.16,0.13,0.34,0.01,0.46-0.07
					C593.56,107.77,593.75,107.24,593.52,107.07z"/>
				<path class="st3" d="M582.73,120.28c-0.03,0-0.05,0-0.08,0c-0.43,0.01-0.65,0.6-0.66,1.09c0,0.49,0.3,0.9,0.66,0.64
					c0.03-0.02,0.05-0.03,0.08-0.06C583,121.78,583.4,120.27,582.73,120.28z"/>
				<path class="st3" d="M584.51,124.63c-0.05-0.02-0.1-0.03-0.17-0.03c-0.11-0.01-0.17,0.14-0.19,0.25c0,0-0.05,0.69-0.02,0.42
					c-0.06,0.66,0.4,1.05,0.69,0.46c0.08-0.17,0.11-0.34,0.12-0.55C584.95,124.85,584.74,124.54,584.51,124.63z"/>
				<path class="st3" d="M586.86,120.56c-0.37,0.13-0.51,1.43,0,1.25C587.23,121.67,587.36,120.37,586.86,120.56z"/>
				<path class="st3" d="M584.21,117.53c-0.03,0.01-0.05,0.01-0.07,0.02c-0.16,0.07-0.42,0.66-0.19,0.87
					c0.12,0.23,0.3,0.22,0.41,0.05c0.13-0.19,0.2-0.37,0.15-0.65C584.47,117.63,584.37,117.49,584.21,117.53z"/>
				<path class="st3" d="M597.66,125.25c-0.06,0.02-0.11,0.05-0.17,0.07c-0.25,0.11-0.39,0.46-0.39,0.8c0,0.27,0.13,0.6,0.39,0.54
					c0.06-0.02,0.11-0.03,0.17-0.05C598.12,126.49,598.17,125.02,597.66,125.25z"/>
				<path class="st3" d="M602.68,120.96c-0.61,0.22-0.85,1.38-0.28,1.94c0.23,0.23,0.43-0.19,0.5-0.49
					c-0.02,0.16-0.05,0.33-0.07,0.49c0.11-0.09,0.19-0.2,0.26-0.34c0.11-0.22,0.18-0.5,0.18-0.78
					C603.27,121.38,603.06,120.83,602.68,120.96z"/>
				<path class="st3" d="M598.12,119.96c-0.1-0.11-0.1-0.27-0.25-0.34c-0.31-0.14-0.52,0.27-0.56,0.59c0,0,0,0.01,0,0.02
					c-0.02,0.18,0,0.53,0.18,0.64c0,0,0,0.01-0.01,0.01c0.01,0,0.02,0,0.04,0c0.02,0.01,0.03,0.03,0.05,0.03c0.01,0,0.02,0,0.03,0
					c0.02,0,0.03-0.01,0.04-0.01c0.01,0,0.01,0,0.01,0c0.1-0.02,0.17-0.08,0.23-0.17c0.02-0.02,0.05-0.04,0.08-0.06
					C598.11,120.61,598.32,120.16,598.12,119.96z"/>
				<path class="st3" d="M599.82,125.18c0.04,0.06,0.07,0.11,0.12,0.16c0.23,0.25,0.42-0.19,0.41-0.42
					c-0.01-0.13-0.02-0.24-0.05-0.37C600.18,123.91,599.49,124.64,599.82,125.18z"/>
				<path class="st3" d="M588.56,112.47c-0.42,0.15-0.57,1.64,0,1.43C588.99,113.75,589.14,112.26,588.56,112.47z"/>
				<path class="st3" d="M578.01,111.4c-0.4,0.21-0.62,0.87-0.24,1.4c0.23,0.33,0.42-0.06,0.5-0.39c0.07-0.14,0.12-0.31,0.12-0.5
					C578.38,111.7,578.24,111.28,578.01,111.4z"/>
				<path class="st3" d="M579.94,105.92c-0.4-0.3-0.76,0.9-0.35,1.14c0.11,0.06,0.2,0.12,0.32,0.13c0.33,0.02,0.53-0.65,0.3-1
					C580.13,106.06,580.05,105.99,579.94,105.92z"/>
			</g>
			<g>
				<path class="st4" d="M609.6,81.37c2.83,3.2,6.92,4.1,10.1,3.49c8.06-1.55,9.74-13.53,0.5-18.34c-4.11-2.14-9.23-1.83-11.77,1.97
					C606.08,72,606.21,77.54,609.6,81.37z"/>
				<path class="st3" d="M617.36,68.18c-0.05,0.03-0.11,0.06-0.16,0.1c-0.12,0.1-0.33,0.82,0,0.83c0.06,0,0.11,0,0.16-0.02
					c0.18-0.03,0.26-0.35,0.26-0.55C617.62,68.38,617.52,68.08,617.36,68.18z"/>
				<path class="st3" d="M618.77,68.41c-0.12,0-0.16,0.08-0.22,0.18c-0.04,0.06-0.07,0.18-0.02,0.26c0.03,0.04,0.06,0.11,0.09,0.16
					c0.2,0.26,0.32-0.28,0.28-0.45l-0.01-0.05C618.86,68.47,618.81,68.41,618.77,68.41z"/>
				<path class="st3" d="M619.43,71.43c-0.01-0.02-0.02-0.03-0.03-0.05c-0.03-0.04-0.06-0.06-0.09-0.06c-0.03,0-0.05,0-0.08,0
					c-0.08,0-0.12,0.1-0.14,0.19c-0.03,0.14-0.05,0.25-0.02,0.4C619.17,72.38,619.67,71.84,619.43,71.43z"/>
				<path class="st3" d="M618.08,69.77c-0.03-0.17-0.11-0.32-0.26-0.2c-0.13,0.11-0.27,0.52-0.05,0.7c0.09,0.08,0.2,0,0.27-0.04
					C618.11,70.17,618.22,69.87,618.08,69.77z"/>
				<path class="st3" d="M611.87,77.38c-0.02,0-0.03,0-0.04,0c-0.25,0.01-0.38,0.34-0.38,0.63c0,0.29,0.17,0.52,0.38,0.37
					c0.02-0.01,0.03-0.02,0.04-0.03C612.02,78.24,612.25,77.37,611.87,77.38z"/>
				<path class="st3" d="M612.89,79.88c-0.03-0.01-0.06-0.02-0.1-0.02c-0.06,0-0.1,0.08-0.11,0.15c0,0-0.03,0.39-0.01,0.24
					c-0.03,0.38,0.23,0.61,0.4,0.27c0.05-0.1,0.06-0.2,0.07-0.32C613.15,80.01,613.03,79.83,612.89,79.88z"/>
				<path class="st3" d="M614.25,77.54c-0.21,0.08-0.29,0.82,0,0.72C614.46,78.18,614.54,77.44,614.25,77.54z"/>
				<path class="st3" d="M612.72,75.79c-0.01,0-0.03,0.01-0.04,0.01c-0.09,0.04-0.24,0.38-0.11,0.5c0.07,0.13,0.17,0.12,0.24,0.03
					c0.08-0.11,0.12-0.21,0.09-0.37C612.87,75.85,612.81,75.77,612.72,75.79z"/>
				<path class="st3" d="M620.47,80.24c-0.03,0.01-0.06,0.03-0.09,0.04c-0.15,0.06-0.23,0.26-0.22,0.47c0,0.16,0.08,0.35,0.22,0.3
					c0.03-0.01,0.07-0.02,0.1-0.03C620.73,80.95,620.76,80.11,620.47,80.24z"/>
				<path class="st3" d="M623.36,77.77c-0.35,0.13-0.49,0.79-0.16,1.12c0.13,0.13,0.25-0.11,0.29-0.28
					c-0.01,0.09-0.02,0.19-0.04,0.28c0.06-0.05,0.12-0.12,0.16-0.2c0.06-0.13,0.1-0.29,0.1-0.45
					C623.7,78.02,623.58,77.7,623.36,77.77z"/>
				<path class="st3" d="M620.74,77.2c-0.06-0.07-0.06-0.16-0.14-0.2c-0.18-0.08-0.3,0.15-0.32,0.34c0,0,0,0.01,0,0.01
					c-0.01,0.1,0,0.3,0.1,0.36c0,0,0,0,0,0.01c0.01,0,0.02,0,0.02,0c0.01,0,0.02,0.02,0.03,0.02c0,0,0.01,0,0.02,0
					c0.01,0,0.01-0.01,0.02-0.01c0,0,0,0,0.01,0c0.06-0.01,0.1-0.04,0.13-0.1c0.01-0.01,0.03-0.03,0.04-0.03
					C620.73,77.57,620.85,77.31,620.74,77.2z"/>
				<path class="st3" d="M621.72,80.21c0.02,0.04,0.04,0.06,0.07,0.09c0.13,0.14,0.24-0.11,0.23-0.24c0-0.07-0.01-0.14-0.03-0.21
					C621.92,79.47,621.53,79.89,621.72,80.21z"/>
				<path class="st3" d="M615.23,72.88c-0.25,0.09-0.33,0.94,0,0.82C615.47,73.62,615.56,72.76,615.23,72.88z"/>
				<path class="st3" d="M609.15,72.26c-0.23,0.12-0.36,0.5-0.14,0.81c0.13,0.19,0.25-0.04,0.28-0.22c0.04-0.08,0.07-0.18,0.07-0.29
					C609.36,72.43,609.28,72.19,609.15,72.26z"/>
				<path class="st3" d="M610.26,69.1c-0.23-0.17-0.44,0.52-0.2,0.66c0.06,0.04,0.11,0.07,0.18,0.07c0.19,0.01,0.3-0.38,0.18-0.58
					C610.37,69.19,610.33,69.15,610.26,69.1z"/>
			</g>
		</g>
		<g>
			<path class="st2" d="M766.75-20.4c-1.9-14.84-4.74-29.56-7.45-44.27c-2.05-11.05-4.84-22.65-13.41-30.52
				c-14.89-13.7-41.99,0.23-56.49,7.15c-23.9,11.42-45.68,26.53-68.84,39.25c-0.46,0.25-0.69,0.57-0.77,0.86
				c-6.51,3.82-12.22,8.53-14.85,14.63c-5.18,12.07,22.36,21.33,29.34,24.16c18.95,7.72,37.35,15.21,55.87,24.08
				c11.45,5.49,23.09,10.48,34.83,15.31c8.3,3.43,17.71,7.32,26.87,6.42C778.67,34.02,768.9-3.61,766.75-20.4z"/>
			<path class="st3" d="M628.75-26.36c0.52,1.87,5.41,3.4,4.7,0.85C632.94-27.39,628.05-28.91,628.75-26.36z"/>
			<path class="st3" d="M621.33-33.18c-0.04,0.08-0.07,0.16-0.1,0.24c-0.59,1.33,1.07,2.43,2.08,2.87c0.78,0.34,1.57,0.44,2.27-0.09
				c0.28-0.2,0.26-0.47,0.16-0.74c0.02-0.47-0.2-0.98-0.53-1.31c-0.11-0.1-0.21-0.21-0.32-0.31
				C624.28-33.12,621.95-34.58,621.33-33.18z"/>
			<path class="st3" d="M630.45-40.17c-0.06,0.05-0.12,0.1-0.18,0.15c-0.71,0.56-0.38,1.54,0.16,2.11
				c-0.01,0.05-0.03,0.11-0.04,0.17c-0.17,0.71,1.38,1.58,1.9,1.08c0.02-0.02,0.04-0.05,0.06-0.06c0.39,0.11,0.78,0.19,1.21,0.13
				C637.03-37.07,632.64-41.92,630.45-40.17z"/>
			<path class="st3" d="M644.05-39.45c-0.12,0.07-0.19,0.19-0.24,0.35c-0.04,0.1-0.04,0.22-0.05,0.34c-0.01,0-0.01,0-0.02,0
				c-0.39,0.51,0.28,1.33,0.66,1.62c0.8,0.6,1.75,1.14,2.78,1.11c1.14-0.03,1.67-0.97,1.11-1.96
				C647.61-39.2,644.97-40.38,644.05-39.45z"/>
			<path class="st3" d="M637.94-29.86c-0.31,0.42,0.05,0.91,0.48,1.28c0.04,0.07,0.07,0.14,0.13,0.22c0.46,0.68,2.82,2.17,3.09,0.56
				C641.94-29.51,639.13-31.45,637.94-29.86z"/>
			<path class="st3" d="M652.22-13.19c0.36,1.32,1.84,2.25,3.11,2.48c1.01,0.18,2.42-0.24,2.05-1.55c-0.36-1.32-1.84-2.24-3.12-2.47
				C653.26-14.91,651.85-14.5,652.22-13.19z"/>
			<path class="st3" d="M673.02-16.26c-0.03,0.04-0.05,0.06-0.1,0.2c-0.09,0.27-0.26,0.5-0.33,0.79c-0.1,0.38,0.48,0.77,0.77,0.86
				c1.06,0.33,2.16,0.52,3.26,0.57c1.2,0.06,1.7-1.06,1.15-2.03c-0.72-1.24-1.96-1.89-3.39-1.92
				C673.45-17.79,672.87-17.16,673.02-16.26z"/>
			<path class="st3" d="M721.7-88.51c0.65,0.75,4.19,2.53,4.28,0.35c0.03-0.14-0.03-0.12-0.17,0.06c1.31-1.18-1.33-2.51-2.24-2.56
				c0.28,0,0.31-0.03,0.11-0.08C721.95-91.48,720.25-90.18,721.7-88.51z"/>
			<path class="st3" d="M736.87-91.58c-0.51,1.88,3.76,3.54,3.93,1.65C740.93-91.45,737.34-93.35,736.87-91.58z"/>
			<path class="st3" d="M740.46-71.96l0.25,0.17c0.68,0.46,2.36,1.33,2.96,0.25c0.58-1.01-0.95-2.16-1.74-2.41
				c-0.1-0.03-0.19-0.06-0.29-0.09C739.96-74.57,738.8-73.09,740.46-71.96z"/>
			<path class="st3" d="M712.01-70.63c-0.04,0.02-0.09,0.03-0.13,0.05c-0.06,0.03-0.13,0.03-0.2,0.07c-0.64,0.39-0.58,0.99-0.2,1.58
				c0.01,0.04,0.01,0.07,0.04,0.11c0.03,0.05,0.08,0.09,0.11,0.14c0.01,0,0.01,0,0.01,0.01c0.65,0.99,1.97,1.76,3.15,1.7
				c1.18-0.06,1.83-0.85,2.54-1.68c0.7-0.82-1.19-1.93-1.76-2C714.47-70.79,713.1-71.08,712.01-70.63z"/>
			<path class="st3" d="M726.68-80.73c0.4,1.43,1.99,2.43,3.37,2.68c1.1,0.19,2.62-0.25,2.22-1.67c-0.39-1.42-1.99-2.42-3.36-2.67
				C727.82-82.6,726.29-82.15,726.68-80.73z"/>
			<path class="st3" d="M728.11-67.82c0.33,1.17,1.64,2,2.78,2.2c0.9,0.16,2.16-0.2,1.83-1.37c-0.32-1.18-1.63-2.01-2.77-2.21
				C729.05-69.36,727.79-68.99,728.11-67.82z"/>
			<path class="st3" d="M723.35-62.81c0.07,0.04,0.14,0.09,0.21,0.14c0.82,0.51,3.15,1.05,3.28-0.51c0.15-1.69-2.19-2.83-3.58-2.85
				c-0.07,0-0.13,0-0.2-0.01C720.56-66.06,722.31-63.47,723.35-62.81z"/>
			<path class="st3" d="M713.05-81.88c0.47,1.7,4.9,3.08,4.25,0.76C716.84-82.82,712.4-84.19,713.05-81.88z"/>
			<path class="st3" d="M739.54,8.02c-1.01,0.89-0.32,1.92,0.66,2.67c0.97,1.13,4.56,3.16,4.8,0.7
				C745.22,9.1,741.57,6.24,739.54,8.02z"/>
			<path class="st3" d="M729.17,11.38c0-0.02,0-0.05,0-0.07c-0.04,0.06-0.04,0.12-0.04,0.18c-0.01,0.03-0.03,0.04-0.03,0.06
				c0.06-0.25-0.12,0.31-0.12,0.32c-0.03,0.22,0.12,0.41,0.29,0.57c0.05,0.12,0.12,0.23,0.18,0.35c0.32,0.63,2.96,2.01,2.91,0.53
				c-0.04-1.2-0.91-2.13-2.12-2.34C729.79,10.91,729.36,11,729.17,11.38z"/>
			<path class="st3" d="M724.36-6.73c0.16,0.21,0.29,0.43,0.4,0.67c0.41,0.77,3.58,2.5,3.6,0.65c-0.01-0.19,0-0.38,0.02-0.57
				c0.51-1.56-1.37-2.82-2.7-3.06C723.95-9.35,723.37-8.01,724.36-6.73z"/>
			<path class="st3" d="M741.57-8.19c-0.22,1.23,2.49,2.53,3.32,2.48c0.43-0.03,0.86-0.05,1.2-0.35c0.87-0.75,0.14-1.99-0.62-2.52
				c-0.82-0.57-1.57-0.84-2.52-1.1C741.79-10,741.16-9.07,741.57-8.19z"/>
			<path class="st3" d="M734.01-1.55c-0.78,1.02,0.66,2.34,1.48,2.74c0.74,0.37,1.88,0.81,2.65,0.23c0.13-0.09,0.25-0.19,0.36-0.31
				c1.21-1.16-1-2.82-2.1-2.91c-0.2-0.02-0.39-0.05-0.59-0.08C735.15-2.09,734.46-2.13,734.01-1.55z"/>
			<path class="st3" d="M720.49,1.48c-1.29,0.93,0.8,2.59,1.62,2.86c0.9,0.29,1.8,0.45,2.71,0.12c1.43-0.51-0.13-1.73-1.14-2.13
				C722.86,1.5,721.47,0.77,720.49,1.48z"/>
			<path class="st3" d="M725.32-17.78c-0.21,1.06,0.48,1.9,1.04,2.7c0.29,0.42,1.88,1.58,2.25,0.63c0.28-0.72,0.92-0.79,1.24-1.42
				c0.68-1.35-1.41-2.57-2.44-2.76c-0.09-0.01-0.17-0.03-0.26-0.05C726.37-18.84,725.5-18.66,725.32-17.78z"/>
			<path class="st3" d="M754.12-3.49c-1.58,0.45-0.54,2.14,0.23,2.81c0.99,0.87,2.37,1.41,3.67,0.99c1.73-0.57,0.33-2.2-0.93-2.95
				C756.3-3.33,755.06-3.77,754.12-3.49z"/>
			<path class="st3" d="M734.93-40.71c-0.03,0.05-0.05,0.08-0.08,0.13c-0.55,0.81,0.47,1.77,1.28,2.24
				c0.97,0.83,3.09,1.87,3.28,0.24c0.19-1.62-1.28-2.93-2.84-3.09C735.96-41.26,735.32-41.27,734.93-40.71z"/>
			<path class="st3" d="M707.75-38.48c0.44,1.59,4.59,2.88,3.99,0.72C711.29-39.35,707.14-40.64,707.75-38.48z"/>
			<path class="st3" d="M710.98-25.22c0.16,0.2,0.32,0.4,0.48,0.6c0.35,0.42,2.04,1.37,2.39,0.45c0.06-0.16,0.12-0.32,0.18-0.48
				C715.02-27.26,708.9-27.78,710.98-25.22z"/>
			<path class="st3" d="M695.25-46.66c0.38,1.36,1.89,2.31,3.2,2.55c1.04,0.18,2.49-0.23,2.12-1.59c-0.38-1.36-1.9-2.31-3.21-2.55
				C696.33-48.44,694.88-48.01,695.25-46.66z"/>
		</g>
		<g>
			<path class="st5" d="M743,54c-14.06-6.32-28.52-11.77-42.9-17.31c-10.8-4.15-22.5-7.95-34.04-4.67
				c-20.06,5.69-22.42,37-24.16,53.47c-2.84,27.15-1.31,54.42-2.62,81.61c-0.03,0.54,0.12,0.91,0.35,1.14
				c-0.16,7.78,0.91,15.33,4.85,20.92c7.81,11.05,30.79-8.15,37.04-12.75c16.99-12.49,33.48-24.61,51.25-36.1
				c10.99-7.1,21.65-14.63,32.21-22.35c7.48-5.44,15.97-11.6,20.11-20.14C797.21,72.86,758.9,61.16,743,54z"/>
			<path class="st3" d="M663.41,172c1.92,0.55,5.9-2.92,3.27-3.67C664.75,167.77,660.78,171.25,663.41,172z"/>
			<path class="st3" d="M653.4,174.85c0.05,0.07,0.1,0.15,0.16,0.21c0.85,1.24,2.71,0.37,3.63-0.28c0.71-0.5,1.23-1.14,1.15-2.05
				c-0.04-0.35-0.28-0.48-0.57-0.53c-0.4-0.27-0.97-0.35-1.44-0.24c-0.14,0.04-0.3,0.07-0.44,0.11
				C655.05,172.28,652.51,173.55,653.4,174.85z"/>
			<path class="st3" d="M652.19,163.07c0.01,0.08,0.02,0.16,0.03,0.24c0.11,0.93,1.15,1.17,1.94,1c0.04,0.04,0.08,0.08,0.13,0.12
				c0.53,0.53,2.12-0.35,1.97-1.09c-0.01-0.03-0.02-0.06-0.02-0.08c0.3-0.29,0.59-0.59,0.76-1
				C658.45,158.96,651.83,160.2,652.19,163.07z"/>
			<path class="st3" d="M660.14,151.51c-0.01,0.14,0.06,0.27,0.18,0.4c0.06,0.09,0.17,0.15,0.27,0.23
				c-0.01,0.01-0.01,0.01-0.02,0.02c0.24,0.62,1.32,0.46,1.78,0.29c0.96-0.38,1.95-0.92,2.48-1.84c0.59-1.02,0.05-1.99-1.12-2.04
				C662.28,148.52,659.82,150.2,660.14,151.51z"/>
			<path class="st3" d="M665.28,162.04c0.19,0.5,0.82,0.44,1.38,0.26c0.09,0,0.17,0.01,0.26,0.01c0.84-0.05,3.43-1.31,2.15-2.42
				C667.74,158.72,664.52,160.15,665.28,162.04z"/>
			<path class="st3" d="M687.61,158.49c1.35,0.4,2.96-0.41,3.85-1.4c0.7-0.79,1.1-2.26-0.25-2.64c-1.36-0.39-2.96,0.4-3.85,1.4
				C686.66,156.64,686.26,158.11,687.61,158.49z"/>
			<path class="st3" d="M696.12,138.56c0.02,0.04,0.03,0.08,0.13,0.19c0.18,0.23,0.3,0.49,0.51,0.72c0.28,0.29,0.94-0.01,1.17-0.21
				c0.86-0.75,1.62-1.61,2.26-2.56c0.7-1.03-0.01-2.07-1.17-2.1c-1.48-0.04-2.72,0.71-3.51,1.94
				C695.01,137.36,695.25,138.2,696.12,138.56z"/>
			<path class="st3" d="M658.89,56.86c1.02-0.17,4.49-2.32,2.63-3.57c-0.11-0.1-0.12-0.04-0.04,0.19c-0.32-1.79-2.92-0.18-3.46,0.59
				c0.14-0.24,0.14-0.28-0.01-0.15C656.42,55.06,656.64,57.24,658.89,56.86z"/>
			<path class="st3" d="M664.37,41.89c1.38,1.46,5.14-1.39,3.56-2.56C666.67,38.4,663.07,40.53,664.37,41.89z"/>
			<path class="st3" d="M683.53,49.31l0.28-0.13c0.77-0.35,2.44-1.35,1.82-2.47c-0.58-1.06-2.41-0.33-3.05,0.24
				c-0.08,0.07-0.17,0.13-0.24,0.2C680.97,48.34,681.65,50.16,683.53,49.31z"/>
			<path class="st3" d="M669.38,75.01c0,0.05-0.03,0.1-0.03,0.14c0,0.07-0.04,0.14-0.04,0.22c-0.01,0.77,0.55,1.04,1.28,1.02
				c0.05,0.01,0.07,0.03,0.12,0.03c0.06,0,0.12-0.02,0.19-0.02c0.01,0,0.01,0,0.01,0c1.22-0.03,2.61-0.78,3.19-1.85
				c0.58-1.07,0.24-2.06-0.1-3.14c-0.34-1.06-2.34,0.01-2.71,0.47C670.56,72.77,669.57,73.81,669.38,75.01z"/>
			<path class="st3" d="M668.41,56.68c1.46,0.42,3.2-0.44,4.17-1.52c0.76-0.86,1.19-2.44-0.27-2.86c-1.46-0.42-3.2,0.44-4.16,1.52
				C667.38,54.68,666.95,56.26,668.41,56.68z"/>
			<path class="st3" d="M680.52,62.39c1.21,0.34,2.64-0.37,3.43-1.25c0.63-0.71,0.99-2.01-0.21-2.35c-1.21-0.35-2.64,0.35-3.43,1.25
				C679.68,60.73,679.32,62.04,680.52,62.39z"/>
			<path class="st3" d="M682.35,69.27c0.08-0.03,0.16-0.08,0.24-0.12c0.89-0.44,2.61-2.2,1.32-3.15c-1.41-1.04-3.67,0.4-4.44,1.61
				c-0.03,0.05-0.08,0.11-0.11,0.17C678,69.97,681.21,69.83,682.35,69.27z"/>
			<path class="st3" d="M660.05,68.04c1.74,0.51,5.34-2.65,2.96-3.33C661.27,64.21,657.68,67.36,660.05,68.04z"/>
			<path class="st3" d="M753.29,93.21c0.24,1.36,1.51,1.31,2.7,0.86c1.51-0.25,5.23-2.3,3.2-3.84
				C757.3,88.81,752.82,90.47,753.29,93.21z"/>
			<path class="st3" d="M750.65,104.14c-0.02-0.01-0.04-0.02-0.07-0.03c0.04,0.06,0.09,0.1,0.14,0.14c0.02,0.02,0.02,0.04,0.04,0.06
				c-0.19-0.19,0.21,0.27,0.22,0.28c0.18,0.15,0.43,0.12,0.66,0.05c0.14,0.02,0.27,0.02,0.4,0.03c0.72,0.05,3.36-1.51,2.03-2.28
				c-1.08-0.62-2.36-0.35-3.19,0.6C750.58,103.34,750.42,103.76,750.65,104.14z"/>
			<path class="st3" d="M732.16,98.6c0.27-0.03,0.54-0.03,0.8,0.01c0.9,0.05,4.12-1.8,2.51-2.82c-0.16-0.1-0.33-0.2-0.49-0.32
				c-1.1-1.29-3.21-0.31-4.14,0.73C729.63,97.56,730.5,98.78,732.16,98.6z"/>
			<path class="st3" d="M740.15,82.69c0.96,0.86,3.56-0.83,3.96-1.57c0.21-0.4,0.42-0.78,0.35-1.25c-0.19-1.16-1.68-1.19-2.55-0.81
				c-0.94,0.41-1.59,0.92-2.33,1.62C738.68,81.53,739.15,82.58,740.15,82.69z"/>
			<path class="st3" d="M741.91,92.92c0.48,1.24,2.41,0.67,3.2,0.18c0.73-0.46,1.73-1.22,1.63-2.2c-0.01-0.16-0.03-0.32-0.08-0.49
				c-0.36-1.68-3.02-0.63-3.68,0.28c-0.12,0.16-0.25,0.31-0.38,0.47C742.04,91.62,741.64,92.21,741.91,92.92z"/>
			<path class="st3" d="M737.28,106.43c0.13,1.64,2.7,0.7,3.39,0.12c0.74-0.64,1.36-1.35,1.57-2.32c0.32-1.53-1.59-0.82-2.49-0.15
				C738.58,104.35,737.19,105.18,737.28,106.43z"/>
			<path class="st3" d="M722.97,91.8c0.82,0.75,1.93,0.6,2.93,0.54c0.53-0.03,2.41-0.79,1.77-1.64c-0.48-0.63-0.2-1.23-0.59-1.86
				c-0.82-1.32-3.01-0.14-3.74,0.66c-0.06,0.07-0.12,0.13-0.18,0.2C722.61,90.31,722.29,91.17,722.97,91.8z"/>
			<path class="st3" d="M751.04,74.2c-0.45,1.63,1.59,1.62,2.59,1.31c1.3-0.41,2.52-1.32,2.85-2.69c0.43-1.83-1.75-1.48-3.09-0.78
				C752.35,72.38,751.3,73.23,751.04,74.2z"/>
			<path class="st3" d="M708.01,71c0.03,0.05,0.04,0.1,0.07,0.14c0.41,0.92,1.8,0.54,2.65,0.08c1.25-0.4,3.31-1.7,1.98-2.75
				c-1.32-1.04-3.27-0.45-4.26,0.83C708.07,69.8,707.72,70.36,708.01,71z"/>
			<path class="st3" d="M695.32,96.09c1.64,0.47,5.01-2.48,2.78-3.12C696.46,92.5,693.09,95.45,695.32,96.09z"/>
			<path class="st3" d="M708.71,100.39c0.26-0.03,0.52-0.07,0.79-0.1c0.56-0.07,2.3-1.06,1.67-1.86c-0.11-0.14-0.21-0.28-0.32-0.42
				C709.09,95.74,705.34,100.84,708.71,100.39z"/>
			<path class="st3" d="M681.39,102.65c1.4,0.4,3.05-0.41,3.96-1.44c0.73-0.81,1.14-2.31-0.25-2.72c-1.4-0.4-3.05,0.42-3.96,1.44
				C680.42,100.75,680.01,102.25,681.39,102.65z"/>
		</g>
		<g>
			<g>
				<path class="st6" d="M364.44-22.77c-1.55,0.91-2.37,2.84-3.49,4.21c-0.66,0.81-1.29,1.64-1.9,2.5
					c-0.27,0.38-0.56,0.77-0.81,1.17c0.04-0.06-0.99,1.38-0.35,0.93c-2.75,1.94,0.13,5.9,2.75,3.72c0.7-0.59,0.92-1.27,1.31-2.06
					c0.51-1.06,1.16-2.09,1.8-3.07c0.61-0.94,1.35-1.82,1.89-2.79c0.39-0.72,0.58-1.57,1.05-2.24
					C367.66-21.81,365.83-23.6,364.44-22.77L364.44-22.77z"/>
			</g>
			<g>
				<path class="st6" d="M394.74-28.78c-1.63,0.47-2.79,2.5-3.78,3.78c-0.71,0.92-1.3,1.91-1.95,2.87
					c-0.45,0.66-0.88,1.67-1.22,2.17c-1.17,1.75,1.17,4.41,2.98,3.1c0.98-0.71,1.07-1.31,1.42-2.36c0.28-0.84,0.87-1.77,1.25-2.59
					c0.82-1.77,1.47-3.74,2.41-5.44C396.26-27.99,395.62-29.04,394.74-28.78L394.74-28.78z"/>
			</g>
			<g>
				<path class="st6" d="M376.72-11.57c-0.05-0.04-0.1-0.07-0.15-0.11c-0.45-0.33-1.3-0.35-1.76-0.03
					c-1.19,0.82-1.92,2.18-2.79,3.33c-0.83,1.09-1.5,2.34-2.39,3.38c-1.87,2.2,0.9,5.15,3.15,3.24c1.46-1.23,2.24-3.58,3.25-5.19
					C376.79-8.14,378.3-10.4,376.72-11.57L376.72-11.57z"/>
			</g>
			<g>
				<path class="st6" d="M344.63-5.85c-1.89,0.2-3.14,2.58-4.23,3.94c-1.16,1.45-2.46,2.65-3.06,4.45c-0.81,2.41,3.18,3.57,3.79,1.1
					c0.34-1.37,1.42-2.39,2.19-3.54c0.9-1.34,1.83-2.79,2.61-4.19C346.46-5.06,345.62-5.95,344.63-5.85L344.63-5.85z"/>
			</g>
			<g>
				<path class="st6" d="M330.23-15.55c-1.81,2.3-2.65,5.22-4.14,7.69c-0.55,0.92,0.06,2.18,0.94,2.61c1.04,0.5,2.07-0.04,2.61-0.94
					c0.73-1.22,1.09-2.67,1.65-3.97c0.56-1.31,1.47-2.68,1.68-4.1C333.19-15.75,331.23-16.83,330.23-15.55L330.23-15.55z"/>
			</g>
			<g>
				<path class="st6" d="M326.84-40.98c-0.85,3.46-1.91,6.87-2.71,10.32c-0.78,3.39,4.53,4.21,4.7,0.73
					c0.05-0.97,0.25-1.86,0.23-2.84c-0.03-1.14,0.09-2.25,0.22-3.38c0.21-1.71,0.78-3.9-0.4-5.35
					C328.31-42.2,327.05-41.83,326.84-40.98L326.84-40.98z"/>
			</g>
			<g>
				<path class="st6" d="M346.92-57.23c-1.17,1.02-1.76,3-2.05,4.49c-0.31,1.61-0.96,3.16-0.86,4.83c0.16,2.87,4.84,2.38,4.43-0.47
					c-0.4-2.76,1.96-5.97,0.39-8.56C348.48-57.54,347.44-57.68,346.92-57.23L346.92-57.23z"/>
			</g>
			<g>
				<path class="st6" d="M358.93-80.51c-0.14-0.29-0.21,0.82-0.24,1.09c-0.08,0.83-0.09,1.67-0.1,2.51
					c-0.01,1.79-0.31,3.52-0.39,5.29c-0.12,2.62,4.18,2.65,4.01,0.11c-0.16-2.32-0.29-4.55-0.61-6.86
					c-0.19-1.36-0.02-2.95-1.51-3.58C359.22-82.33,358.59-81.22,358.93-80.51L358.93-80.51z"/>
			</g>
			<g>
				<path class="st6" d="M374.82-85.83c-0.93,0.89-0.79,3.11-0.83,4.3c-0.03,0.95,0.04,1.91,0.06,2.87c0,0.05,0.13,2,0.19,0.75
					c-0.02,0.44-0.33,0.88-0.33,1.38c0,1.47,1.81,2.99,3.22,1.96c2.55-1.86,0.7-5.03,0.29-7.57
					C377.32-82.73,376.37-87.3,374.82-85.83L374.82-85.83z"/>
			</g>
			<g>
				<path class="st6" d="M366.27-61.98c-0.12,0.31-0.55,0.7-0.77,1.02c-0.62,0.88-1.07,1.85-1.51,2.82
					c-0.77,1.7-1.67,3.53-2.03,5.37c-0.46,2.37,2.7,3.28,3.58,1.04c0.41-1.03,0.59-2.16,0.88-3.23c0.33-1.19,0.77-2.35,1.1-3.53
					c0.34-1.2,1.21-3.07-0.09-3.94C366.99-62.74,366.44-62.43,366.27-61.98L366.27-61.98z"/>
			</g>
			<g>
				<path class="st6" d="M381.67-66.88c0.03,1.38,0.22,2.65,0.5,4c0.24,1.14,0.13,2.26,0.36,3.36c0.33,1.58,2.62,1.93,3.42,0.53
					c0.88-1.55,0.11-3.09-0.71-4.5c-0.74-1.28-1.33-3.08-2.53-3.96C382.29-67.74,381.66-67.36,381.67-66.88L381.67-66.88z"/>
			</g>
			<g>
				<path class="st6" d="M353.87,9.58c-1.67,0.77-3.33,1.51-5,2.36c-1.92,0.99-4.19,1.39-4.96,3.58c-0.27,0.75,0.27,1.73,1.05,1.91
					c2.37,0.54,4.49-1.42,6.35-2.76c1.33-0.96,3.39-1.88,4.26-3.34C356.25,10.21,354.98,9.07,353.87,9.58L353.87,9.58z"/>
			</g>
			<g>
				<path class="st6" d="M326.61,18.93c-0.28-1.41-2.25-1-3.2-0.69c-2.4,0.8-4.74,1.62-7.22,2.18c-2.62,0.59-1.44,4.85,0.94,3.95
					c2.08-0.79,4.1-1.81,6-2.97c0.85-0.52,2.16-1.76,3.14-1.9C326.52,19.45,326.65,19.16,326.61,18.93L326.61,18.93z"/>
			</g>
			<g>
				<path class="st6" d="M316.29,7.58c-1.99,0.24-3.79,0.55-5.72,1.14c-1.46,0.44-3.34,0.87-4.61,1.71
					c-1.43,0.95-1.38,3.22,0.41,3.76c1.96,0.58,3.57-0.94,5.25-1.74c1.76-0.84,4.34-1.64,5.61-3.16
					C317.88,8.49,317.3,7.46,316.29,7.58L316.29,7.58z"/>
			</g>
			<g>
				<path class="st6" d="M301.38-1.44c-3.84,0.43-6.98,3.26-10.66,4.24c-3.97,1.05-0.74,6.99,2.3,4.18c2.8-2.58,6.87-3.71,9.3-6.72
					C302.95-0.54,302.4-1.56,301.38-1.44L301.38-1.44z"/>
			</g>
			<g>
				<path class="st6" d="M333.11-55.09c0.65-0.4,0.79-0.83,1.05-1.52c0.4-1.06,0.86-2.1,1.22-3.18c0.6-1.78,0.82-3.45,1.09-5.27
					c0.31-2.1-2.76-2.66-3.73-1.09c-0.48,0.78-0.39,1.3-0.35,2.16c0.05,0.99-0.13,2-0.3,2.97c-0.28,1.62-0.93,3.66-0.43,5.3
					C331.85-55.15,332.53-54.74,333.11-55.09L333.11-55.09z"/>
			</g>
			<g>
				<path class="st6" d="M344-73.48c0.55-1.26,0.25-2.54-0.01-3.83c-0.4-2.01-1.16-3.76-2.03-5.6c-1.24-2.6-5.48-0.24-3.9,2.14
					c1.08,1.64,2.12,3.17,2.93,4.96c0.42,0.93,1.01,2.45,2.16,2.67C343.44-73.09,343.86-73.16,344-73.48L344-73.48z"/>
			</g>
			<g>
				<path class="st6" d="M360.17-94.42c-0.27-1.48-1.95-2.63-2.91-3.72c-0.98-1.1-1.99-2.23-3.29-2.97
					c-3.36-1.93-5.42,3.98-1.99,4.57c1.15,0.19,1.97,0.75,2.89,1.42c0.54,0.39,1.07,0.8,1.63,1.17c0.57,0.38,1.24,0.55,1.81,0.9
					C359.26-92.45,360.36-93.39,360.17-94.42L360.17-94.42z"/>
			</g>
			<g>
				<path class="st6" d="M393.7-75.86c-0.23,1.35-0.45,2.62-0.34,4c0.12,1.59,0.38,3.17,0.56,4.76c0.39,3.32,5.87,2.17,5.15-1.22
					c-0.32-1.53-0.75-3.01-1.11-4.53c-0.32-1.34-0.03-2.75-1.13-3.79C395.92-77.52,393.96-77.33,393.7-75.86L393.7-75.86z"/>
			</g>
			<g>
				<path class="st6" d="M396.53-51.05c-0.29,1.21-0.82,2.35-1.04,3.59c-0.22,1.19-0.21,2.64-0.64,3.76
					c-1.15,2.98,3.91,4.55,4.82,1.4c0.22-0.77,0.21-1.46,0.23-2.24c0.02-0.88,0.2-1.75,0.2-2.63c-0.01-1.66,0.15-3.2-1.03-4.51
					C398.32-52.5,396.79-52.14,396.53-51.05L396.53-51.05z"/>
			</g>
			<g>
				<path class="st6" d="M352.84-36.99c-1.42,1.36-2.63,3.21-3.43,4.99c-0.69,1.56-1.88,3.39-2.03,5.11
					c-0.23,2.53,3.75,2.64,3.94,0.11c0.03-0.35,0.49-0.95,0.64-1.3c0.46-1.04,0.84-2.1,1.3-3.14c0.66-1.52,2.03-2.97,2.01-4.7
					C355.26-37.16,353.76-37.88,352.84-36.99L352.84-36.99z"/>
			</g>
			<g>
				<path class="st6" d="M376.27-45.2c-0.02,0.65-0.44,1.25-0.64,1.87c-0.22,0.7-0.28,1.43-0.42,2.15c-0.3,1.57-1.07,2.99-1.38,4.54
					c-0.5,2.51,2.85,3.47,3.79,1.1c0.72-1.82,0.92-4.05,0.93-5.99c0.01-1.42,0.44-3.53-0.87-4.44
					C377.09-46.38,376.29-45.86,376.27-45.2L376.27-45.2z"/>
			</g>
			<g>
				<path class="st6" d="M317.05-15.58c-1.16,0.38-2.07,1.07-2.98,1.88c-0.93,0.84-2.05,1.43-3.03,2.21
					c-1.88,1.51,0.98,4.53,2.63,2.7c0.7-0.77,1.55-1.38,2.22-2.17c0.66-0.77,1.17-1.84,2-2.44
					C318.88-14.09,318.45-16.04,317.05-15.58L317.05-15.58z"/>
			</g>
			<g>
				<path class="st6" d="M291.51,19.42c-1.26-1.75-3.7-1.37-5.63-1.28c-0.7,0.03-1.39,0.09-2.09,0.1c0.12,0-0.88-0.04-0.62,0
					c0.51,0.07-1.09-0.29-1.25-0.29c-1.59,0.02-2.86,1.45-2.48,3.05c0.01,0.05,0.02,0.1,0.03,0.15c0.2,0.84,0.92,1.72,1.8,1.89
					c1.49,0.3,2.68-0.11,4.06-0.59c1.71-0.61,3.52-0.88,5.32-1.09C291.45,21.24,291.99,20.07,291.51,19.42L291.51,19.42z"/>
			</g>
			<g>
				<path class="st6" d="M381.38-94.45c-0.77-1.6-2.41-3.07-3.74-4.24c-1.45-1.27-3.43-2.35-5.12-0.92
					c-0.83,0.7-0.64,1.93-0.04,2.67c0.52,0.64,1.1,0.66,1.81,0.95c0.51,0.2,1,0.58,1.46,0.87c0.57,0.37,1.14,0.75,1.71,1.11
					c0.76,0.49,1.48,0.75,2.27,1.14C380.79-92.34,381.91-93.36,381.38-94.45L381.38-94.45z"/>
			</g>
		</g>
		<g>
			<path class="st7" d="M683.13,304.08c-0.2,0.55-0.3,1.17-0.29,1.87c0.05,3.59,1.92,6.53,5.81,6.34c2.51-0.12,5-0.63,6.21-3.06
				c0.98-1.96,1-5.75-0.13-7.88c-1.15-2.15-2.74-1.79-4.95-1.38C686.97,300.47,684.04,301.51,683.13,304.08z"/>
			<path class="st7" d="M707.31,300.61c-0.57,3.36,2.78,6.42,6.1,5.72c2.54-0.53,3.62-0.92,3.6-3.86c-0.01-1.97-0.27-4.3-1.84-5.45
				c-2.08-1.52-6.4,0.13-7.45,2.32C707.52,299.77,707.38,300.19,707.31,300.61z"/>
			<path class="st7" d="M693.29,326c-1,2.71,2.19,2.83,3.83,2.35c2.26-0.67,4.13-1.61,3.53-4.44
				C699.48,318.38,695.36,323.38,693.29,326z"/>
			<path class="st7" d="M728.35,295.76c0.29,2.51,0.28,3.38,2.85,3.84c2.16,0.39,3.17-1.01,3.79-3.1
				C736.29,292.04,730.23,292.5,728.35,295.76z"/>
			<path class="st7" d="M705.56,282.5c-0.49,2-0.18,4.23,2.13,4.15c1.12-0.04,2.3-0.51,2.75-1.62c0.76-1.89-3.23-4.16-4.33-2.85"/>
		</g>
		<g>
			<path class="st6" d="M659.7,262.08c0.33-0.2,0.67-0.38,1.01-0.54c0.57-0.27,1.39-0.69,2.05-0.81c0.52-0.1,1.05-0.19,1.59-0.25
				c0.88-0.09,1.77-0.05,2.63,0.14c1.09,0.24,2.19,0.63,3.19,1.14c1.1,0.55,2.13,1.21,3.12,1.93c1.27,0.92,2.54,1.83,3.61,2.98
				c0.82,0.88,1.35,1.9,1.36,3.14c0.01,1.14-0.43,2.26-1.22,3.09c-1.71,1.79-4.43,1.72-6.23,0.14c-1.05-0.93-2.03-1.91-3.13-2.79
				c-0.7-0.48-1.4-0.92-2.16-1.29l-0.48-0.12l-0.05,0l-0.22,0.06c-0.42,0.21-0.82,0.43-1.2,0.71l-0.32,0.24
				c-0.37,0.33-0.7,0.67-1.02,1.04c-0.26,0.39-0.49,0.79-0.7,1.21c-0.17,0.54-0.3,1.09-0.4,1.65c-0.04,0.74-0.02,1.47,0.05,2.2
				c0.41,2.2,1.13,4.31,1.83,6.43c0.71,2.14-0.79,4.5-2.87,5.07c-1.03,0.29-2.15,0.15-3.09-0.36c-1-0.56-1.63-1.44-1.99-2.52
				c-0.44-1.33-0.9-2.66-1.27-4.02c-0.4-1.47-0.67-2.9-0.87-4.42c-0.43-3.41,0.43-6.98,2.35-9.82
				C656.41,264.63,657.94,263.13,659.7,262.08z M664.58,268.85l-0.14,0.02L664.58,268.85z M665.51,268.72l-0.14,0.02L665.51,268.72z
				"/>
			<path class="st6" d="M703.74,239.65l0.31-0.17c0.99-0.51,2-0.98,3.09-1.24c1.27-0.29,2.61-0.26,3.86,0.08
				c1.8,0.49,3.21,1.77,4.36,3.17c0.78,0.95,1.57,1.91,2.07,3.04c0.36,0.61,0.55,1.27,0.55,1.97c-0.04,0.33-0.08,0.66-0.12,1
				c-0.17,0.67-0.49,1.25-0.97,1.75c-0.73,0.76-1.75,1.2-2.8,1.21c-0.69,0-1.33-0.16-1.93-0.48c-0.65-0.44-1.29-0.86-1.79-1.48
				c-0.22-0.27-0.44-0.55-0.66-0.82c-0.39-0.49-0.79-0.96-1.22-1.4l-0.21,0.06c-0.35,0.18-0.69,0.38-1.02,0.6
				c-0.52,0.46-1,0.95-1.45,1.48l-0.26,0.45l-0.02,0.1l0.03,0.78c0.45,2.36,1.27,4.64,2.01,6.92c0.67,2.06-0.76,4.34-2.78,4.9
				c-0.99,0.27-2.07,0.15-2.98-0.35c-0.97-0.53-1.58-1.39-1.92-2.42c-0.64-1.96-1.38-3.94-1.79-5.96c-0.38-1.83-0.72-3.69-0.31-5.56
				c0.44-1.98,1.58-3.58,2.88-5.08c0.3-0.35,0.64-0.67,0.98-0.97C702.33,240.7,703,240.1,703.74,239.65z M708.33,246.12l-0.17-0.02
				L708.33,246.12z M708.8,246.37l-0.16-0.12l0,0L708.8,246.37z M709,246.3l-0.08-0.03L709,246.3z"/>
			<path class="st6" d="M667.84,230.38c-0.62,0.45-1.25,0.92-1.82,1.43c-0.74,0.66-1.3,1.43-1.86,2.25
				c-0.39,0.57-0.6,1.31-0.83,1.94c-0.11,0.32-0.2,0.65-0.27,0.97c-0.32,1.35-0.18,2.75,0.06,4.09c0.46,2.58,1.69,4.94,2.88,7.24
				c1.07,2.07,3.94,2.61,5.84,1.47c0.97-0.58,1.67-1.53,1.95-2.62c0.29-1.14,0.06-2.2-0.48-3.23c-0.4-0.77-0.79-1.54-1.17-2.33
				c-0.3-0.77-0.55-1.54-0.72-2.35l-0.02-0.48l0.1-0.39l0.1-0.19c0.42-0.46,0.87-0.89,1.34-1.3c0.29-0.19,0.58-0.37,0.88-0.54
				l0.22-0.06c0.34-0.03,0.68-0.04,1.02-0.02c0.81,0.14,1.6,0.32,2.39,0.57c0.47,0.21,0.93,0.44,1.38,0.7
				c0.68,0.41,1.35,0.85,2.04,1.23c1.41,0.77,3.22,0.5,4.33-0.67c0.64-0.67,1.01-1.59,1-2.52c-0.01-1.04-0.46-1.81-1.11-2.56
				c-0.79-0.92-1.87-1.65-2.91-2.27c-1.06-0.63-2.19-1.14-3.36-1.52c-1.26-0.41-2.51-0.68-3.83-0.83c-2.21-0.24-4.46,0.29-6.37,1.43
				C668.37,230.01,668.1,230.19,667.84,230.38z"/>
			<path class="st6" d="M703.94,205.17c-1.24,1.37-2.13,2.95-2.76,4.68c-0.45,1.23-0.71,2.5-0.96,3.78
				c-0.21,1.05-0.12,2.05,0.44,2.99c0.54,0.9,1.41,1.55,2.42,1.8c2.01,0.51,4.38-0.75,4.79-2.86c0.22-1.11,0.44-2.21,0.79-3.29
				c0.21-0.46,0.45-0.89,0.72-1.32c0.36-0.44,0.74-0.87,1.16-1.26c0.25-0.17,0.5-0.34,0.77-0.48l0.86-0.23
				c0.4-0.03,0.79-0.04,1.19-0.02c0.74,0.13,1.45,0.3,2.16,0.53c0.35,0.15,0.7,0.31,1.04,0.5c0.42,0.23,0.81,0.5,1.2,0.77
				c0.63,0.49,1.22,1.01,1.82,1.55c1.62,1.44,4.09,1.48,5.62-0.13c1.48-1.54,1.47-4.16-0.13-5.62c-1.47-1.35-3.04-2.65-4.79-3.62
				c-0.92-0.51-1.96-0.87-2.96-1.22c-0.83-0.29-1.72-0.42-2.59-0.53c-0.94-0.11-1.79-0.18-2.73-0.11c-1.04,0.08-2.1,0.26-3.09,0.61
				c-0.68,0.24-1.33,0.56-1.95,0.93C705.85,203.32,704.83,204.18,703.94,205.17z"/>
			<path class="st6" d="M628.25,253.08c-0.6,0.6-1.1,1.34-1.56,2.04c-0.25,0.38-0.43,0.8-0.6,1.21c-0.34,0.85-0.65,1.68-0.89,2.55
				c-0.44,1.62-0.68,3.3-0.48,4.97c0.01,0.65,0.18,1.27,0.51,1.83c0.49,0.82,1.3,1.43,2.23,1.66c0.93,0.24,1.93,0.09,2.75-0.4
				c0.76-0.45,1.52-1.33,1.66-2.23c0.29-1.85,0.54-3.69,1.11-5.46c0.14-0.28,0.29-0.54,0.45-0.81c0.22-0.25,0.45-0.49,0.69-0.73
				l0.52-0.31l0.74-0.2c1.17-0.09,2.33-0.02,3.5,0.09c0.74,0.11,1.49,0.23,2.24,0.36c0.98,0.17,1.88,0.12,2.76-0.41
				c0.83-0.49,1.43-1.3,1.66-2.24c0.24-0.93,0.09-1.93-0.41-2.76c-0.46-0.77-1.32-1.5-2.24-1.66c-1.71-0.3-3.43-0.52-5.16-0.68
				c-1.48-0.14-2.92,0-4.38,0.24c-0.78,0.13-1.65,0.49-2.33,0.85l-0.51,0.28C629.69,251.77,628.95,252.39,628.25,253.08z"/>
			<path class="st6" d="M635.73,222.61c1.89-1.13,4.11-1.77,6.32-1.55c0.89,0.08,1.79,0.18,2.65,0.43c0.88,0.24,1.71,0.56,2.55,0.91
				c0.8,0.34,1.41,1.27,1.63,2.07c0.24,0.85,0.13,1.77-0.3,2.54c-0.73,1.32-2.33,2.05-3.8,1.66c-0.89-0.24-1.77-0.5-2.67-0.66
				c-0.36-0.02-0.73-0.02-1.09,0.01l-0.52,0.15c-0.31,0.17-0.61,0.35-0.91,0.55c-0.44,0.4-0.84,0.83-1.23,1.29l-0.19,0.3
				c0.45,0.9,0.99,1.75,1.51,2.61c1.12,1.81,0.46,4.26-1.34,5.34c-1.84,1.1-4.22,0.46-5.34-1.35c-0.38-0.62-0.77-1.24-1.13-1.88
				c-0.59-1.06-1.17-2.2-1.42-3.39c-0.22-1.04-0.18-1.92,0.01-2.97c0.17-0.44,0.34-0.87,0.52-1.31c0.15-0.28,0.32-0.54,0.51-0.78
				c0.96-1.34,2.05-2.46,3.39-3.41C635.16,222.96,635.44,222.78,635.73,222.61z M638.06,230.46l0.02,0.09L638.06,230.46
				L638.06,230.46z M637.93,230.69l-0.02,0.18l0.02-0.2L637.93,230.69z"/>
			<path class="st6" d="M667.66,202.37c-0.6,0.53-1.15,1.09-1.65,1.72c-0.95,1.2-1.58,2.51-1.98,3.99
				c-0.25,0.94-0.26,1.96-0.29,2.93c-0.02,0.91,0.04,1.83,0.1,2.74c0.07,1.24,0.15,2.48,0.23,3.72c0.06,0.94,0.37,1.78,1.06,2.45
				c0.64,0.61,1.52,0.96,2.41,0.95c1.79-0.02,3.51-1.6,3.39-3.46c-0.09-1.41-0.18-2.82-0.26-4.23c-0.06-1.03-0.09-2.08-0.02-3.11
				c0.06-0.31,0.14-0.61,0.23-0.91c0.13-0.26,0.27-0.51,0.42-0.76c0.42-0.5,0.87-0.96,1.35-1.4c0.27-0.18,0.54-0.33,0.83-0.48
				l0.6-0.17l0.86-0.02c0.26,0.06,0.52,0.13,0.78,0.21c0.54,0.26,1.06,0.55,1.56,0.89c0.69,0.53,1.41,1.09,2.2,1.42
				c0.54,0.29,1.12,0.44,1.73,0.44c0.94-0.01,1.86-0.4,2.51-1.09c1.27-1.32,1.35-3.73-0.11-4.97c-0.88-0.75-1.91-1.36-2.87-1.99
				c-0.89-0.58-1.95-1.02-2.96-1.31c-1.1-0.32-2.25-0.48-3.39-0.44c-0.62,0.02-1.23,0.15-1.85,0.25c-0.96,0.15-1.9,0.63-2.76,1.08
				l-0.29,0.16C668.84,201.35,668.24,201.86,667.66,202.37z"/>
		</g>
		<path class="st6" d="M401.22,21.48c0.92-0.6,2.05-0.87,3.15-0.65c0.88,0.17,1.68,0.56,2.46,0.96c0.53,0.27,1.06,0.53,1.58,0.81
			c1.14,0.61,2.27,1.27,3.46,1.78c0.59,0.25,1.2,0.45,1.79,0.71c0.5,0.22,1.01,0.43,1.52,0.62c0.29,0.1,0.59,0.19,0.89,0.28
			c0.43,0.09,0.82,0.28,1.15,0.58c0.15,0.17,0.3,0.34,0.44,0.51c0.37,0.56,0.49,1.25,0.36,1.9c-0.22,1.06-1.22,2.01-2.34,2.01
			c-0.48,0-1-0.02-1.47-0.16c-0.42-0.13-0.84-0.27-1.26-0.42c-0.51-0.18-1.02-0.39-1.52-0.61c-0.98-0.43-1.98-0.8-2.91-1.36
			c-0.9-0.54-1.78-1.1-2.68-1.64c-0.43-0.26-0.86-0.52-1.28-0.8c-0.32-0.21-0.64-0.41-0.98-0.59l0,0.01c0,0.25,0.02,0.51,0.05,0.76
			c0.05,0.2,0.12,0.4,0.19,0.6c0.44,0.78,0.98,1.51,1.56,2.19c0.99,1.09,2.02,2.15,3,3.26c0.56,0.64,1.19,1.28,1.61,2.03
			c0.26,0.48,0.51,0.97,0.73,1.47c0.07,0.17,0.14,0.34,0.2,0.51c0.11,0.36,0.18,0.71,0.25,1.08c0.03,0.16,0.06,0.32,0.06,0.48
			c-0.01,0.32-0.02,0.64-0.09,0.95c-0.03,0.11-0.17,0.58-0.28,0.76c-0.17,0.26-0.33,0.52-0.55,0.75c-0.17,0.18-0.5,0.47-0.76,0.6
			c-0.4,0.19-0.77,0.39-1.2,0.49c-0.4,0.09-0.85,0.18-1.27,0.16c-0.76-0.03-1.57-0.08-2.31-0.3c-0.56-0.17-1.13-0.34-1.69-0.53
			c-0.8-0.26-1.58-0.59-2.32-0.98c-1.08-0.56-2.14-1.17-3.19-1.78c-1-0.57-1.98-1.19-3.04-1.65c0,0.37,0.03,0.74,0.08,1.1
			c0.11,0.41,0.23,0.81,0.38,1.2c0.76,1.44,1.74,2.76,2.7,4.08c0.8,1.09,1.64,2.16,2.4,3.28c0.17,0.25,0.35,0.51,0.51,0.77
			c0.36,0.58,0.76,1.19,0.91,1.86c0.13,0.59,0.26,1.23,0.1,1.84c-0.14,0.52-0.35,1.1-0.74,1.49c-0.47,0.48-0.88,0.74-1.48,1.01
			c-0.33,0.15-0.67,0.25-1.03,0.32c-0.37,0.07-0.77,0.16-1.15,0.17c-0.32,0.01-0.63-0.02-0.96-0.05c-0.5-0.04-0.92-0.18-1.39-0.36
			c-0.33-0.12-0.65-0.27-0.96-0.43c-0.56-0.3-1.11-0.61-1.64-0.96c-0.74-0.49-1.47-0.98-2.18-1.51c-0.39-0.29-0.79-0.58-1.19-0.87
			c-0.74-0.46-1.5-0.85-2.31-1.19l-0.41-0.1l-0.03,0.01L386,48.01l-0.19,0.22l-0.05,0.09l-0.03,0.2c-0.01,0.46,0.04,0.91,0.1,1.36
			c0.19,0.84,0.45,1.64,0.79,2.43c0.26,0.51,0.54,1.01,0.87,1.48c0.35,0.52,0.73,1,1.13,1.48c0.32,0.34,0.64,0.67,0.99,0.99
			c0.33,0.3,0.67,0.59,1,0.88c0.93,0.82,1.87,1.64,2.81,2.45c0.82,0.71,0.89,2,0.18,2.82c-0.72,0.82-1.99,0.89-2.82,0.18
			c-1.26-1.09-2.54-2.16-3.79-3.27c-1.23-1.08-2.32-2.33-3.23-3.69c-0.36-0.53-0.67-1.08-0.95-1.65c-0.34-0.72-0.67-1.44-0.88-2.21
			c-0.2-0.76-0.4-1.56-0.43-2.35c-0.02-0.48,0-0.95,0.05-1.43c0.06-0.56,0.19-1.15,0.49-1.64c0.47-0.76,1.03-1.49,1.81-1.95
			c0.34-0.2,0.71-0.4,1.09-0.52c0.37-0.11,0.78-0.21,1.17-0.2c0.62,0.01,1.24,0.08,1.83,0.27c0.45,0.14,0.91,0.3,1.35,0.47
			c1.25,0.5,2.38,1.22,3.49,1.97c0.64,0.42,1.28,0.84,1.95,1.21c0.61,0.34,1.23,0.69,1.88,0.97c-0.23-0.34-0.48-0.68-0.72-1.01
			c-0.52-0.73-1.08-1.43-1.62-2.14c-1.02-1.34-2.04-2.71-2.86-4.19c-0.39-0.7-0.74-1.43-0.91-2.21c-0.1-0.48-0.23-0.96-0.26-1.45
			c-0.03-0.55-0.03-1.08,0.03-1.63c0.03-0.35,0.1-0.69,0.2-1.03c0.07-0.23,0.17-0.55,0.29-0.79c0.13-0.25,0.28-0.47,0.44-0.7
			c0.38-0.54,0.94-0.97,1.56-1.2c0.43-0.16,0.92-0.27,1.38-0.24c0.51,0.04,1.03,0.07,1.53,0.21c0.73,0.21,1.46,0.47,2.15,0.79
			c2.25,1.04,4.4,2.34,6.72,3.23c0.39,0.14,0.79,0.27,1.18,0.38c0.24,0.07,0.48,0.13,0.73,0.18c-0.18-0.28-0.37-0.55-0.57-0.81
			c-0.96-1.04-1.97-2.02-2.95-3.05c-0.62-0.65-1.24-1.32-1.76-2.05c-0.6-0.83-1.19-1.7-1.56-2.67c-0.55-1.46-0.65-3.26-0.06-4.72
			C399.88,22.66,400.48,21.97,401.22,21.48z M394.64,35.74l0.09-0.08L394.64,35.74z M407.43,36.88L407.43,36.88l0.14-0.12
			L407.43,36.88z"/>
		<g>
			<path class="st8" d="M495.8,484.44c3.05-4.61,21.07-57.27,30.13-60.35c9.07-3.08,49.63,40.25,56.73,38.72
				c7.1-1.53,42.62-72.98,47.72-74.77c4.8-1.29,49.23,45.35,57.3,44.05c8.08-1.3,36.73-70.13,44.54-72.23
				c7.81-2.1,41.8,40.62,50.14,49.34"/>
			<path class="st8" d="M491.87,469.8c3.05-4.61,21.07-57.27,30.13-60.35c9.07-3.08,49.63,40.25,56.73,38.72
				c7.1-1.53,42.62-72.98,47.72-74.77c4.8-1.29,49.23,45.35,57.3,44.04c8.08-1.3,36.73-70.13,44.54-72.23
				c7.81-2.1,41.8,40.62,50.14,49.34"/>
			<path class="st8" d="M487.94,455.16c3.05-4.61,21.07-57.27,30.13-60.35c9.07-3.08,49.63,40.24,56.73,38.72
				c7.1-1.53,42.62-72.98,47.72-74.77c4.8-1.29,49.23,45.35,57.3,44.04c8.08-1.3,36.73-70.13,44.54-72.23
				c7.81-2.1,41.8,40.62,50.14,49.34"/>
		</g>
	</g>
	<rect y="-4.62" class="st9" width="752.99" height="434.47"/>
</g>
</svg>
