<?xml version="1.0" encoding="utf-8"?>
<!-- Generator: Adobe Illustrator 24.1.3, SVG Export Plug-In . SVG Version: 6.00 Build 0)  -->
<svg version="1.1" id="Layer_1" xmlns="http://www.w3.org/2000/svg" xmlns:xlink="http://www.w3.org/1999/xlink" x="0px" y="0px"
	 viewBox="0 0 230.8 257.1" style="enable-background:new 0 0 230.8 257.1;" xml:space="preserve">
<style type="text/css">
	.st0{opacity:0.58;}
	.st1{fill:#005F68;}
	.st2{font-family:'SourceSansPro-Regular';}
	.st3{font-size:7.6122px;}
	.st4{fill:#E7E7E7;}
	.st5{fill:#FEFEFE;}
	.st6{fill:#E28DB7;}
	.st7{fill:#A56C78;}
	.st8{fill:#3C4750;}
	.st9{fill:#00838F;}
	.st10{fill:#C66A98;}
	.st11{fill:#FDFDFD;}
	.st12{fill:#6D848D;}
	.st13{fill:#4F6D78;}
	.st14{fill:#254A59;}
	.st15{fill:#B7BFC3;}
	.st16{fill:#FFC0E0;}
</style>
<g class="st0">
	<text transform="matrix(1 0 0 1 13.6357 28.1772)" class="st1 st2 st3">011000100010001000010100011100001010101000100101010101</text>
	<text transform="matrix(1 0 0 1 13.6357 37.041)" class="st1 st2 st3">101000010011001000010100101100101100101000100101010101</text>
	<text transform="matrix(1 0 0 1 13.6357 45.9048)" class="st1 st2 st3">100101010000010100010000100010101010001010101010101010</text>
	<text transform="matrix(1 0 0 1 13.6357 54.7686)" class="st1 st2 st3">011000100010001000010100011100001010101000100101010101</text>
	<text transform="matrix(1 0 0 1 13.6357 63.6328)" class="st1 st2 st3">101000010011001000010100101100101100101000100101010101</text>
	<text transform="matrix(1 0 0 1 13.6357 72.4971)" class="st1 st2 st3">100101010000010100010000100010101010001010101010101010</text>
</g>
<path class="st4" d="M208.58,189.31c-0.17-3.44,1.71-6.62,0.93-10.19c-0.65,3.26-1.31,6.52-1.96,9.78c-0.25,0.36-0.63,0.4-1.02,0.4
	c-9.01-0.04-18.03-0.07-27.04-0.11c-0.55-2.49-2.21-4.38-3.54-6.43c-0.65-1-0.06-2.42-1.08-3.13c-1.38-0.97-1.86-2.41-2.46-3.83
	c17.24-0.02,34.49-0.08,51.73,0c2.22,0.01,2.65-0.67,2.64-2.73c-0.07-20.43-0.04-40.86-0.06-61.29c0-0.82,0.27-1.7-0.31-2.51
	c-0.61,0.88-0.32,1.84-0.32,2.74c-0.02,19.89-0.01,39.77-0.02,59.66c0,3.77,0.51,3.24-3.14,3.26c-6.21,0.03-12.43,0.02-18.64,0.01
	c-10.72-0.02-21.44-0.06-32.15-0.09c-1.67-2.53-3.55-5.11-6.26-6.29c-4.01-1.74-8.45-2.22-12.78-2.87
	c-6.57-1.29-13.13-2.58-19.7-3.87c0.18-1.2-0.35-2.49,0.46-3.6c4.03-0.14,7.38-2.02,9.94-4.86c2.23-2.47,3.65-5.61,4.76-8.8
	c0.35-1.02,0.7-1.99,1.46-2.81c0.58-0.63,1.09-1.35,1.03-2.29c0.06-0.14,0.11-0.27,0.15-0.41l-0.02,0.04
	c7.74-4.08,11.93-13.85,10.91-21.75c-0.51-3.98-1.94-7.54-3.98-10.92c20.8-0.02,41.6-0.04,62.4-0.05c6.14,0,6.14,0,6.13-6.07
	c0-3.14,0-3.14-3.24-3.14c-25.15-0.01-50.29-0.02-75.44-0.03c1.12-5.36-0.05-10.22-3.19-14.66c-0.06-0.08,0.18-0.36,0.28-0.55
	c0.48,0.24,0.93,0.57,1.44,0.69c7.34,1.68,13.99,4.94,20.5,8.6c1.62,0.91,2.99,2.48,5.11,2.38c-8.23-5.79-17.2-9.94-27.01-12.28
	c-1.26-0.03-2.17-0.83-3.02-1.56c-5.67-4.87-14.54-5.24-20.71-1.21c-1.79-0.17-3.54,0.18-5.31,0.3c-10.94,0.75-21.37,3.53-31.2,8.32
	c-10.45,5.1-19.6,11.91-27.32,20.76c-5.74,6.58-10.41,13.73-14.12,21.57c-0.3,0.63-0.83,1.24-0.4,2.07c0.72-0.26,0.79-0.84,1-1.3
	c2.18-4.73,4.68-9.28,7.72-13.52c15.94-22.24,37.57-34.64,64.79-37.27c1.14-0.11,2.43-0.61,3.49,0.38
	c-6.63,5.64-8.09,14.8-3.49,22.28c0.63,1.02,0.93,1.6-0.13,2.68c-9.56,9.72-9.92,22.79-1.04,33.32c0.02,1.7-0.01,3.4,0.08,5.1
	c0.51,9.26-6.67,17.97-15.25,20.74c-2.12,0.68-4.32,1.12-6.48,1.68c-3.03,0.14-5.93,1.06-8.9,1.57c-4.67,0.8-8.02,3.42-10.22,7.61
	c-2.52,4.8-5.11,9.56-7.7,14.32c-4.36,8.02-8.74,16.04-13.11,24.05c-14.91-0.02-29.82-0.1-44.72,0.02
	c-2.47,0.02-2.85-0.73-2.84-2.97c0.09-20.03,0.05-40.06,0.05-60.1c0-0.81,0-1.62,0-2.43c-0.18,0.01-0.36,0.02-0.54,0.04
	c0,0.38,0,0.75,0,1.13c0,20.96,0.02,41.93-0.04,62.89c-0.01,1.78,0.68,1.95,2.16,1.95c15.22-0.04,30.44-0.01,45.66,0
	c-2.66,4.82-5.35,9.63-7.95,14.48c-1.37,2.56-2.6,5.19-3.9,7.79c-1.24-0.52-2.49-1.01-3.87-1c-0.2-0.45-0.52-0.75-1.01-0.86
	c-5.96-1.33-11.91-1.53-17.8,0.36c-8.38,2.68-16.44,6.2-24.69,9.21c-4.1,1.5-4.1,1.49-3.92,5.76c0,1.19,0,2.39,0,3.58
	c-1.01,0.36-2.16-0.24-3.6,0.74c1.3,0,2.12,0,2.94,0c17.15,0.02,34.31,0.05,51.46,0.07c0.69,0.53,1.49,0.33,2.25,0.33
	c29.87,0,59.75-0.01,89.62-0.03c0.75,0,1.57,0.25,2.21-0.39c1.08-0.02,2.17-0.06,3.25-0.06c21.78,0,43.56,0,65.34,0
	c1.67,0.22,1.23-1.27,1.44-1.99c2.37-8.28,4.66-16.59,6.95-24.9c3.26-11.87,6.5-23.74,9.75-35.61c0.23-1.2,0.32-2.03-1.5-1.95
	C216.49,189.42,212.53,189.31,208.58,189.31z"/>
<path class="st4" d="M196.13,159.14c6.6,0,13.2-0.04,19.8,0.03c1.61,0.02,2.35-0.25,2.33-2.13c-0.09-10.17-0.07-20.35-0.02-30.52
	c0.01-1.48-0.39-2.03-1.96-2.02c-13.28,0.05-26.56,0.05-39.84,0c-1.55-0.01-1.98,0.51-1.97,2.01c0.05,10.17,0.07,20.35-0.02,30.52
	c-0.02,1.87,0.7,2.16,2.32,2.14C183.24,159.09,189.69,159.14,196.13,159.14z"/>
<path class="st4" d="M56.27,135.37c-14.68,0-29.36-0.02-44.04,0.02c-2,0-4.56-0.87-5.84,0.41c-1.27,1.28-0.2,3.86-0.45,5.84
	c-0.29,2.26,0.54,2.84,2.8,2.84c30.37-0.08,60.74-0.05,91.12-0.07c2.08,0,4.8,0.88,6.08-0.36c1.4-1.36,0.22-4.12,0.48-6.25
	c0.23-1.89-0.39-2.48-2.37-2.47C88.12,135.41,72.19,135.37,56.27,135.37z"/>
<path class="st4" d="M21.98,195.22c0,0,0,0.01,0,0.01c1.62,0,3.25,0.06,4.87-0.02c1.99-0.09,3.17-1.13,3.18-3.21
	c0.01-1.96-1.11-3.07-2.99-3.13c-3.24-0.1-6.49-0.1-9.73,0.01c-1.91,0.06-2.99,1.27-2.98,3.17c0.01,1.9,1.11,3.02,3.02,3.14
	C18.88,195.3,20.43,195.22,21.98,195.22z"/>
<path class="st4" d="M97.81,155.57c0.01-0.15,0.01-0.31,0.02-0.46c-27.78,0-55.57,0-83.35,0c0,0.15,0,0.31,0,0.46
	C42.26,155.57,70.03,155.57,97.81,155.57z"/>
<path class="st4" d="M217.87,117.31c0.02-0.13,0.04-0.26,0.05-0.39c-16.59,0-33.19,0-49.78,0c0,0.13,0,0.26,0.01,0.39
	C184.73,117.31,201.3,117.31,217.87,117.31z"/>
<path class="st4" d="M14.48,171.49c-0.01,0.15-0.02,0.31-0.02,0.46c10.51,0,21.02,0,31.52,0c0-0.15,0-0.31,0-0.46
	C35.48,171.49,24.98,171.49,14.48,171.49z"/>
<ellipse class="st4" cx="30.25" cy="163.56" rx="22.15" ry="0.19"/>
<path class="st4" d="M14.57,179.71c0.04,0.08,0.07,0.16,0.11,0.24c7.76,0,15.53,0,23.29,0c0-0.08,0-0.16,0-0.24
	C30.16,179.71,22.36,179.71,14.57,179.71z"/>
<path class="st5" d="M203.8,253.71c-21.78,0-43.56,0-65.34,0c-1.08,0-2.17,0.04-3.25,0.06c-5.2-0.04-10.41-0.08-15.61-0.12
	c0.43-1.79,0.85-3.57,1.28-5.36c0.3-0.87,0.65-1.72,0.9-2.6c5.17-18.63,10.33-37.26,15.5-55.89c27.17,0.02,54.33,0.03,81.5,0.05
	c0.62,0,1.24,0.02,1.86,0c1.26-0.05,0.85,0.73,0.7,1.38c-0.27,0.8-0.58,1.59-0.81,2.4c-4.77,17.15-9.58,34.29-14.24,51.48
	c-0.58,2.14-1.44,2.68-3.58,2.68c-25.62-0.08-51.24-0.06-76.86-0.03c-0.82,0-1.82-0.41-2.72,0.84c27.5,0,54.71,0,82.16,0
	C204.74,250.47,204.27,252.09,203.8,253.71z M178.7,220.92c0.02-2.72-1.24-4.68-3.34-5.22c-1.98-0.5-4.26,0.73-5.5,2.98
	c-1.41,2.56-1.32,5.81,0.24,7.65c1.26,1.49,2.87,1.75,4.62,1.13C177.02,226.65,178.69,223.82,178.7,220.92z"/>
<path class="st6" d="M137.27,189.8c-5.16,18.63-10.32,37.26-15.5,55.89c-0.25,0.88-0.6,1.74-0.9,2.6c-2.45,0.14-4.9,0.28-7.35,0.42
	c0.63-2.28-0.27-3.39-2.51-4.21c-7.31-2.67-14.54-5.6-21.79-8.42c-2.02-3.8-4.03-7.61-6.05-11.41c-0.16,0.07-0.32,0.14-0.48,0.21
	c0,3.06,0,6.12,0,9.18c-4.37-0.72-8.72-0.88-13.11-0.09c-6.68,1.19-12.19,4.65-17.44,8.66l-0.09,0c-3.36-2.39-6.7-4.81-10.42-6.62
	c1.29-2.6,2.52-5.24,3.9-7.79c2.61-4.85,5.3-9.65,7.95-14.48c0.09-0.18,0.19-0.35,0.29-0.53c4.37-8.02,8.75-16.03,13.11-24.05
	c2.59-4.76,5.18-9.53,7.7-14.32c2.2-4.19,5.55-6.81,10.22-7.61c2.97-0.51,5.86-1.43,8.9-1.57c2.68,9.02,8.6,15.16,17.02,19.07
	c1.37,5.87,2.75,11.73,4.12,17.6c0.77,3.31,1.51,6.62,2.41,10.55c1.07-2.77,1.88-4.86,2.69-6.95c2.43-6.28,4.87-12.56,7.31-18.84
	c2.68,0.01,5.18-0.84,7.59-1.84c9.01-3.76,15.37-10.05,18.27-19.54c4.33,0.65,8.78,1.13,12.78,2.87c2.71,1.18,4.6,3.76,6.26,6.29
	c0.09,0.32,0.19,0.64,0.28,0.96c0.6,1.41,1.08,2.86,2.46,3.83c1.02,0.71,0.43,2.13,1.08,3.13c1.33,2.05,2.99,3.94,3.54,6.43
	c-1.01,0.04-2.02,0.12-3.02,0.12c-12.19,0.01-24.39-0.01-36.58,0.03C139.01,189.33,138,188.89,137.27,189.8z M119.43,219.65
	c-0.34-1.27-0.8-3.06-1.3-4.83c-0.15-0.54-0.46-1.04-1.13-0.94c-0.51,0.08-0.71,0.54-0.83,1.01c-0.45,1.72-0.99,3.41-1.32,5.15
	c-0.29,1.57,0.24,2.81,2.08,2.92C118.85,223.06,119.57,221.98,119.43,219.65z M86.46,194.81c-0.17-0.06-0.35-0.11-0.52-0.17
	c-0.15,0.25-0.36,0.47-0.45,0.74c-1.64,5-3.29,9.99-4.89,15c-1.22,3.85-0.91,7.64,0.58,11.37c0.36,0.9,0.38,0.89,1.55,1.73
	c-3.44-6.06-2.02-11.98,0.22-17.94C84.27,202.02,85.3,198.39,86.46,194.81z"/>
<path class="st7" d="M153.07,165.68c-2.9,9.49-9.26,15.79-18.27,19.54c-2.41,1-4.91,1.85-7.59,1.84c2.85-7.75,5.7-15.5,8.55-23.26
	c-0.64,0.15-0.82,0.47-0.95,0.81c-2.62,6.88-5.24,13.76-7.83,20.65c-0.37,0.98-0.73,1.86-1.83,2.18c-4.53,0.29-8.85-0.77-13.16-1.97
	c-0.12-0.2-0.3-0.38-0.35-0.6c-1.47-6.56-2.91-13.13-4.39-19.68c-0.2-0.86-0.15-1.87-1.35-2.95c0.6,2.77,1.11,5.01,1.57,7.26
	c1.04,5.07,2.5,10.05,3.2,15.19c-8.42-3.91-14.33-10.05-17.02-19.07c2.16-0.55,4.36-0.99,6.48-1.68
	c8.58-2.77,15.76-11.48,15.25-20.74c-0.09-1.7-0.06-3.4-0.08-5.1c0.68-2.15,0.84-4.11-1.06-5.9c-1.98-1.86-2.25-4.38-1.76-6.93
	c0.42-2.13,1.98-3.3,3.99-3.8c1.73-0.43,3.6,0.01,4.31,1.53c1.25,2.68,2.91,1.82,4.74,1.14c3.16-1.17,5.63-3.2,7.62-5.89
	c0.48-0.64,0.66-1.57,1.52-1.88c0.12,0.07,0.22,0.1,0.24,0.16c3.66,7.6,9.35,12.64,17.81,14.22c1.31,0.25,1.29,0.97,0.82,2.04
	c-0.88,2.05-2.17,3.94-2.41,6.24c0,0,0.02-0.04,0.02-0.04c-0.19,0.09-0.33,0.19-0.15,0.41c0.06,0.94-0.46,1.67-1.03,2.29
	c-0.76,0.82-1.11,1.79-1.46,2.81c-1.1,3.19-2.53,6.34-4.76,8.8c-2.56,2.84-5.9,4.71-9.94,4.86c-4.5,0.33-8.33-1.37-12.12-4.49
	c1.95,5.17,6.4,8.09,11.66,8.09C139.94,163.1,146.51,164.39,153.07,165.68z"/>
<path class="st8" d="M151.16,139.06c0.24-2.29,1.53-4.19,2.41-6.24c0.46-1.07,0.49-1.8-0.82-2.04c-8.46-1.59-14.15-6.63-17.81-14.22
	c-0.03-0.06-0.13-0.08-0.24-0.16c-0.86,0.31-1.04,1.23-1.52,1.88c-1.99,2.69-4.46,4.72-7.62,5.89c-1.83,0.68-3.49,1.54-4.74-1.14
	c-0.71-1.52-2.58-1.96-4.31-1.53c-2.01,0.5-3.57,1.67-3.99,3.8c-0.5,2.54-0.23,5.06,1.76,6.93c1.9,1.79,1.74,3.75,1.06,5.9
	c-8.89-10.52-8.52-23.6,1.04-33.32c1.06-1.08,0.76-1.66,0.13-2.68c-4.6-7.48-3.14-16.64,3.49-22.28c0.61-0.28,1.19-0.58,1.35-1.32
	c6.18-4.03,15.05-3.66,20.71,1.21c0.85,0.73,1.76,1.53,3.02,1.56c-0.01,0.2-0.03,0.4-0.04,0.6c-0.1,0.19-0.33,0.47-0.28,0.55
	c3.14,4.44,4.3,9.3,3.19,14.66c-0.41,1.05,0.14,1.54,1.04,1.93c3.7,1.62,6.58,4.28,9.11,7.36c2.04,3.38,3.46,6.94,3.98,10.92
	C163.09,125.21,158.89,134.98,151.16,139.06z"/>
<path class="st9" d="M196.13,159.14c-6.45,0-12.89-0.04-19.34,0.03c-1.62,0.02-2.34-0.28-2.32-2.14
	c0.09-10.17,0.07-20.35,0.02-30.52c-0.01-1.5,0.42-2.02,1.97-2.01c13.28,0.05,26.56,0.05,39.84,0c1.57-0.01,1.96,0.54,1.96,2.02
	c-0.05,10.17-0.07,20.35,0.02,30.52c0.02,1.88-0.73,2.15-2.33,2.13C209.34,159.09,202.74,159.14,196.13,159.14z"/>
<path class="st10" d="M56.27,135.37c15.92,0,31.85,0.04,47.77-0.05c1.99-0.01,2.6,0.58,2.37,2.47c-0.26,2.13,0.92,4.89-0.48,6.25
	c-1.28,1.25-4,0.36-6.08,0.36c-30.37,0.02-60.75-0.01-91.12,0.07c-2.26,0.01-3.09-0.57-2.8-2.84c0.26-1.98-0.82-4.56,0.45-5.84
	c1.27-1.28,3.84-0.41,5.84-0.41C26.91,135.36,41.59,135.37,56.27,135.37z"/>
<path class="st11" d="M41.62,236c3.72,1.82,7.06,4.23,10.42,6.62c-0.42,0.57-0.7,1.29-1.54,1.41c-9.4,0-18.8,0-28.77,0
	c1.31,1.01,2.19,0.73,3,0.74c7.68,0.02,15.35,0,23.03,0.04c0.78,0,1.73-0.43,2.32,0.54c-1,1.09-1.59,2.52-2.82,3.43
	c-0.31-0.04-0.62-0.11-0.92-0.11c-14.99-0.01-29.98-0.01-44.98,0c-0.54,0-1.25-0.29-1.76,0.87c0.97,0,1.76,0,2.55,0
	c14.06,0,28.12-0.01,42.18,0.02c0.78,0,1.71-0.44,2.37,0.41c-1.36,2.82-3.64,3.31-6.63,3.27c-11.55-0.18-23.1-0.06-34.65-0.08
	c-5.04-0.01-10.07-0.07-15.11-0.11c0-1.19,0-2.39,0-3.58c1.09-0.5,0.54-1.49,0.56-2.24c0.02-0.89,0.25-1.46,1.11-1.78
	c9.31-3.39,18.42-7.34,27.84-10.41c5.93-1.93,11.93-1.31,17.91-0.05C39.13,234.99,40.38,235.48,41.62,236z"/>
<path class="st9" d="M158.09,106.4c-2.53-3.08-5.4-5.74-9.11-7.36c-0.91-0.4-1.45-0.88-1.04-1.93c25.15,0.01,50.3,0.02,75.44,0.03
	c3.23,0,3.23,0,3.24,3.14c0.01,6.07,0.01,6.07-6.13,6.07C199.69,106.36,178.89,106.38,158.09,106.4z"/>
<path class="st8" d="M47.26,248.78c1.23-0.91,1.82-2.34,2.82-3.43c0.57-0.3,0.44-0.82,0.42-1.31c0.84-0.12,1.11-0.84,1.54-1.41
	c0,0,0.09,0.01,0.09,0.01c0.37,0.45,0.73,0.89,1.1,1.34c0.16,0.54,0.24,1.12,0.84,1.39c0.99,1.12,1.59,2.55,2.83,3.46
	c0.07,0.44,0.1,0.9,0.53,1.18c1.36,2.86,3.67,3.28,6.65,3.25c14.83-0.16,29.66-0.07,44.5-0.08c1.54,0,3.44,0.43,4.52-0.3
	c1.04-0.7-0.02-2.74,0.43-4.15c2.45-0.14,4.9-0.28,7.35-0.42c-0.43,1.79-0.85,3.57-1.28,5.36c-1.71,0.06-3.41,0.16-5.12,0.16
	c-23.52-0.01-47.05-0.04-70.57-0.06c-0.93,0-1.86,0.07-2.78,0.11c-17.15-0.02-34.31-0.05-51.46-0.07c-0.82,0-1.64,0-2.94,0
	c1.45-0.98,2.6-0.38,3.6-0.74c5.04,0.04,10.07,0.1,15.11,0.11c11.55,0.02,23.1-0.1,34.65,0.08c2.99,0.05,5.27-0.45,6.63-3.27
	C47.14,249.69,47.21,249.24,47.26,248.78z"/>
<path class="st12" d="M203.8,253.71c0.47-1.62,0.94-3.24,1.49-5.12c-27.45,0-54.66,0-82.16,0c0.89-1.25,1.9-0.83,2.72-0.84
	c25.62-0.03,51.24-0.05,76.86,0.03c2.14,0.01,3-0.53,3.58-2.68c4.66-17.18,9.47-34.32,14.24-51.48c0.23-0.81,0.54-1.6,0.81-2.4
	c0.2-0.01,0.41-0.02,0.61-0.02c-3.25,11.87-6.49,23.75-9.75,35.61c-2.28,8.31-4.58,16.61-6.95,24.9
	C205.03,252.44,205.46,253.93,203.8,253.71z"/>
<path class="st10" d="M21.98,195.22c-1.55,0-3.1,0.08-4.63-0.02c-1.91-0.12-3.01-1.24-3.02-3.14c-0.01-1.9,1.07-3.11,2.98-3.17
	c3.24-0.11,6.49-0.11,9.73-0.01c1.88,0.06,3,1.17,2.99,3.13c-0.01,2.07-1.19,3.11-3.18,3.21c-1.62,0.08-3.24,0.02-4.87,0.02
	C21.98,195.23,21.98,195.23,21.98,195.22z"/>
<path class="st13" d="M121.34,78.52c-0.16,0.74-0.74,1.04-1.35,1.32c-1.06-0.99-2.36-0.49-3.49-0.38
	c-27.22,2.62-48.85,15.03-64.79,37.27c-3.03,4.23-5.54,8.79-7.72,13.52c-0.21,0.46-0.28,1.04-1,1.3c-0.43-0.83,0.1-1.43,0.4-2.07
	c3.71-7.84,8.38-14.99,14.12-21.57c7.72-8.85,16.87-15.66,27.32-20.76c9.83-4.79,20.26-7.57,31.2-8.32
	C117.8,78.71,119.55,78.35,121.34,78.52z"/>
<path class="st13" d="M172.4,175.8c-0.09-0.32-0.18-0.64-0.28-0.96c10.72,0.03,21.44,0.07,32.15,0.09
	c6.21,0.01,12.43,0.03,18.64-0.01c3.65-0.02,3.14,0.52,3.14-3.26c0.02-19.89,0-39.77,0.02-59.66c0-0.9-0.29-1.86,0.32-2.74
	c0.58,0.8,0.31,1.69,0.31,2.51c0.02,20.43-0.02,40.86,0.06,61.29c0.01,2.06-0.43,2.74-2.64,2.73
	C206.89,175.72,189.64,175.78,172.4,175.8z"/>
<path class="st12" d="M97.81,155.57c-27.78,0-55.55,0-83.33,0c0-0.15,0-0.31,0-0.46c27.78,0,55.57,0,83.35,0
	C97.82,155.26,97.81,155.42,97.81,155.57z"/>
<path class="st14" d="M53.75,213.2c-0.1,0.18-0.19,0.35-0.29,0.53c-15.22-0.01-30.44-0.04-45.66,0c-1.48,0-2.17-0.17-2.16-1.95
	c0.07-20.96,0.04-41.93,0.04-62.89c0-0.38,0-0.75,0-1.13c0.18-0.01,0.36-0.02,0.54-0.04c0,0.81,0,1.62,0,2.43
	c0,20.03,0.04,40.07-0.05,60.1c-0.01,2.23,0.37,2.99,2.84,2.97C23.94,213.1,38.85,213.19,53.75,213.2z"/>
<path class="st13" d="M37.75,235c-5.97-1.26-11.97-1.88-17.91,0.05c-9.43,3.07-18.53,7.02-27.84,10.41
	c-0.86,0.31-1.09,0.89-1.11,1.78c-0.02,0.75,0.53,1.73-0.56,2.24c-0.19-4.27-0.18-4.26,3.92-5.76c8.25-3.01,16.32-6.54,24.69-9.21
	c5.89-1.88,11.84-1.69,17.8-0.36C37.23,234.26,37.55,234.55,37.75,235z"/>
<path class="st12" d="M217.87,117.31c-16.57,0-33.15,0-49.72,0c0-0.13,0-0.26-0.01-0.39c16.59,0,33.19,0,49.78,0
	C217.91,117.05,217.89,117.18,217.87,117.31z"/>
<path class="st15" d="M41.12,253.86c0.93-0.04,1.86-0.11,2.78-0.11c23.52,0.02,47.05,0.05,70.57,0.06c1.7,0,3.41-0.1,5.12-0.16
	c5.2,0.04,10.41,0.08,15.61,0.12c-0.65,0.64-1.47,0.39-2.21,0.39c-29.87,0.02-59.75,0.03-89.62,0.03
	C42.61,254.19,41.81,254.39,41.12,253.86z"/>
<path class="st14" d="M221.94,191.2c-0.2,0.01-0.4,0.02-0.61,0.02c0.15-0.65,0.55-1.43-0.7-1.38c-0.62,0.02-1.24,0-1.86,0
	c-27.17-0.02-54.33-0.03-81.5-0.05c0.73-0.9,1.74-0.46,2.61-0.47c12.19-0.03,24.39-0.02,36.58-0.03c1.01,0,2.01-0.08,3.02-0.12
	c9.02,0.04,18.03,0.07,27.04,0.11c0.39,0,0.77-0.04,1.02-0.4c0.35,0.14,0.69,0.27,1.04,0.41c3.95,0,7.91,0.11,11.86-0.06
	C222.25,189.17,222.16,190,221.94,191.2z"/>
<path class="st8" d="M133.38,161.81c-5.26-0.01-9.71-2.93-11.66-8.09c3.79,3.12,7.63,4.82,12.12,4.49
	C133.03,159.32,133.56,160.61,133.38,161.81z"/>
<path class="st12" d="M14.48,171.49c10.5,0,21,0,31.5,0c0,0.15,0,0.31,0,0.46c-10.51,0-21.02,0-31.52,0
	C14.47,171.8,14.48,171.64,14.48,171.49z"/>
<path class="st13" d="M145.03,81.89c0.01-0.2,0.03-0.4,0.04-0.6c9.8,2.34,18.78,6.49,27.01,12.28c-2.12,0.1-3.49-1.47-5.11-2.38
	c-6.51-3.67-13.16-6.92-20.5-8.6C145.97,82.47,145.51,82.13,145.03,81.89z"/>
<ellipse class="st8" cx="30.25" cy="163.56" rx="22.15" ry="0.19"/>
<path class="st8" d="M14.57,179.71c7.8,0,15.6,0,23.4,0c0,0.08,0,0.16,0,0.24c-7.76,0-15.53,0-23.29,0
	C14.64,179.86,14.6,179.78,14.57,179.71z"/>
<path class="st12" d="M208.58,189.31c-0.35-0.14-0.69-0.27-1.04-0.41c0.65-3.26,1.31-6.52,1.96-9.78
	C210.29,182.69,208.41,185.87,208.58,189.31z"/>
<path class="st8" d="M151.03,139.44c-0.18-0.22-0.04-0.33,0.15-0.41C151.14,139.16,151.09,139.3,151.03,139.44z"/>
<path class="st13" d="M178.7,220.92c-0.02,2.9-1.68,5.73-3.98,6.54c-1.74,0.62-3.36,0.35-4.62-1.13c-1.56-1.84-1.66-5.09-0.24-7.65
	c1.24-2.25,3.52-3.48,5.5-2.98C177.46,216.24,178.72,218.2,178.7,220.92z M169.67,222.4c-0.03,2.72,1.35,4.61,3.43,4.68
	c2.38,0.07,4.86-2.99,4.94-6.09c0.07-2.58-1.44-4.54-3.53-4.6C171.95,216.31,169.71,219.09,169.67,222.4z"/>
<path class="st11" d="M113.52,248.71c-0.44,1.41,0.61,3.45-0.43,4.15c-1.09,0.73-2.98,0.3-4.52,0.3
	c-14.83,0.01-29.66-0.08-44.5,0.08c-2.98,0.03-5.29-0.39-6.65-3.25c0.57-0.82,1.42-0.42,2.13-0.43c4.41-0.04,8.81-0.02,13.22-0.02
	c1.33,0,2.67,0,4,0c0-0.24,0-0.49-0.01-0.73c-6.63,0-13.25,0-19.88,0c-1.24-0.91-1.84-2.34-2.83-3.46c0.66-1.01,1.69-0.54,2.54-0.55
	c9.23-0.04,18.45-0.01,27.68-0.04c0.73,0,1.68,0.41,2.34-0.8c-11.26,0-22.33,0-33.4,0c-0.37-0.45-0.73-0.89-1.1-1.34
	c5.26-4.01,10.76-7.47,17.44-8.66c4.39-0.78,8.75-0.62,13.11,0.09c2.18,0.67,4.36,1.34,6.54,2.02c7.26,2.83,14.48,5.75,21.79,8.42
	C113.25,245.32,114.15,246.43,113.52,248.71z M90.33,244.06c0.01,0.13,0.03,0.27,0.04,0.4c3.55,0,7.11,0,10.66,0
	c-0.01-0.13-0.01-0.27-0.02-0.4C97.46,244.06,93.89,244.06,90.33,244.06z"/>
<path class="st16" d="M110.69,184.71c-0.7-5.14-2.16-10.12-3.2-15.19c-0.46-2.25-0.97-4.49-1.57-7.26c1.19,1.08,1.15,2.09,1.35,2.95
	c1.48,6.56,2.92,13.12,4.39,19.68c0.05,0.21,0.23,0.4,0.35,0.6c0.46,2.35,0.87,4.71,1.38,7.04c1.25,5.69,2.54,11.37,3.84,17.16
	c0.37-0.25,0.57-0.31,0.61-0.42c2.62-6.87,5.22-13.75,7.84-20.62c0.24-0.62,0.26-1.05-0.52-1.19c1.1-0.32,1.46-1.2,1.83-2.18
	c2.58-6.89,5.21-13.77,7.83-20.65c0.13-0.34,0.31-0.66,0.95-0.81c-2.85,7.75-5.7,15.5-8.55,23.26c-2.44,6.28-4.87,12.56-7.31,18.84
	c-0.81,2.09-1.62,4.18-2.69,6.95c-0.9-3.93-1.64-7.24-2.41-10.55C113.44,196.44,112.07,190.58,110.69,184.71z"/>
<path class="st8" d="M89.22,236.08c-2.18-0.67-4.36-1.34-6.54-2.02c0-3.06,0-6.12,0-9.18c0.16-0.07,0.32-0.14,0.48-0.21
	C85.18,228.47,87.2,232.28,89.22,236.08z"/>
<path class="st16" d="M119.43,219.65c0.14,2.33-0.58,3.41-2.49,3.3c-1.84-0.11-2.37-1.35-2.08-2.92c0.32-1.74,0.87-3.44,1.32-5.15
	c0.12-0.47,0.31-0.93,0.83-1.01c0.67-0.1,0.98,0.4,1.13,0.94C118.63,216.59,119.09,218.38,119.43,219.65z"/>
<path class="st13" d="M86.46,194.81c-1.16,3.58-2.19,7.21-3.51,10.73c-2.24,5.96-3.66,11.88-0.22,17.94
	c-1.17-0.83-1.18-0.83-1.55-1.73c-1.49-3.72-1.8-7.52-0.58-11.37c1.59-5.01,3.25-10.01,4.89-15c0.09-0.27,0.3-0.5,0.45-0.74
	C86.11,194.69,86.28,194.75,86.46,194.81z"/>
<path class="st6" d="M125.16,187.46c0.78,0.13,0.75,0.57,0.52,1.19c-2.62,6.87-5.22,13.75-7.84,20.62
	c-0.04,0.11-0.23,0.17-0.61,0.42c-1.3-5.79-2.59-11.47-3.84-17.16c-0.51-2.33-0.92-4.69-1.38-7.04
	C116.31,186.69,120.63,187.75,125.16,187.46z"/>
<path class="st12" d="M47.26,248.78c-0.05,0.46-0.12,0.92-0.55,1.2c-0.66-0.85-1.59-0.41-2.37-0.41
	c-14.06-0.03-28.12-0.02-42.18-0.02c-0.79,0-1.59,0-2.55,0c0.5-1.16,1.22-0.87,1.76-0.87c14.99-0.02,29.98-0.01,44.98,0
	C46.65,248.67,46.95,248.74,47.26,248.78z"/>
<path class="st12" d="M50.5,244.03c0.02,0.49,0.15,1.01-0.42,1.31c-0.58-0.97-1.54-0.54-2.32-0.54c-7.68-0.04-15.35-0.01-23.03-0.04
	c-0.81,0-1.69,0.28-3-0.74C31.7,244.03,41.1,244.03,50.5,244.03z"/>
<path class="st12" d="M53.23,243.97c11.07,0,22.14,0,33.4,0c-0.66,1.21-1.61,0.8-2.34,0.8c-9.23,0.03-18.45,0.01-27.68,0.04
	c-0.85,0-1.88-0.46-2.54,0.55C53.46,245.08,53.39,244.5,53.23,243.97z"/>
<path class="st12" d="M56.9,248.81c6.63,0,13.25,0,19.88,0c0,0.24,0,0.49,0.01,0.73c-1.33,0-2.67,0-4,0
	c-4.41,0-8.81-0.02-13.22,0.02c-0.71,0.01-1.56-0.39-2.13,0.43C57,249.71,56.96,249.26,56.9,248.81z"/>
<path class="st11" d="M169.67,222.4c0.04-3.31,2.28-6.09,4.84-6.02c2.09,0.06,3.59,2.02,3.53,4.6c-0.08,3.1-2.57,6.16-4.94,6.09
	C171.02,227.02,169.64,225.12,169.67,222.4z"/>
<path class="st12" d="M90.33,244.06c3.56,0,7.12,0,10.68,0c0.01,0.13,0.01,0.27,0.02,0.4c-3.55,0-7.11,0-10.66,0
	C90.36,244.33,90.35,244.2,90.33,244.06z"/>
</svg>
