<?xml version="1.0" encoding="utf-8"?>
<!-- Generator: Adobe Illustrator 24.1.3, SVG Export Plug-In . SVG Version: 6.00 Build 0)  -->
<svg version="1.1" id="Layer_1" xmlns="http://www.w3.org/2000/svg" xmlns:xlink="http://www.w3.org/1999/xlink" x="0px" y="0px"
	 viewBox="0 0 230.8 257.1" style="enable-background:new 0 0 230.8 257.1;" xml:space="preserve">
<style type="text/css">
	.st0{fill:#BC658D;}
	.st1{fill:#D0D2D3;}
	.st2{fill:#E7E7E7;}
	.st3{fill:#00838F;}
	.st4{fill:#3C4750;}
	.st5{fill:#A56C78;}
	.st6{fill:#C66A98;}
	.st7{fill:#4F6D78;}
	.st8{fill:#6D848D;}
	.st9{fill:#266467;}
	.st10{fill:#254A59;}
	.st11{fill:#B7BFC3;}
	.st12{fill:#FDB87E;}
	.st13{fill:none;stroke:#F4ABD0;stroke-miterlimit:10;}
	.st14{fill:#BC658D;stroke:#F4ABD0;stroke-miterlimit:10;}
</style>
<circle class="st0" cx="31.7" cy="234.5" r="10.2"/>
<circle class="st1" cx="203.6" cy="32.4" r="16.1"/>
<path class="st2" d="M190.47,220.88c0.18-0.02,0.36-0.04,0.55-0.05c0.42-0.26,0.97-0.44,0.63-1.12l-0.01,0.01
	c1.74-0.54,2.77-1.82,3.5-3.41c0.19-0.19,0.39-0.38,0.58-0.56c1.36-1.16,2.75-2.3,3.44-4.03c0.54-0.53,1.16-1,1.62-1.59
	c7.12-9.23,12.77-19.3,16.62-30.29c4.85-13.86,6.95-28.12,5.95-42.87c-0.6-8.78-2.1-17.32-4.65-25.71
	c-0.28-0.92-0.42-1.87-1.86-2.64c1,3.5,1.88,6.34,2.6,9.24c3.29,13.17,3.99,26.36,2.18,39.84c-2.06,15.31-7.06,29.45-15.32,42.45
	c-2.4,3.78-5.01,7.43-7.53,11.13c-1.53,1.04-2.78,2.32-3.49,4.07c-0.17,0.21-0.33,0.41-0.5,0.62c-1.41,0.48-1.98,2-3.25,2.66
	c-0.38-0.78-0.76-1.57-1.15-2.35c0-0.2-0.01-0.4-0.01-0.6c5.18-17.74,10.6-35.41,15.43-53.25c2.4-8.86,0.12-17.18-5.82-24.25
	c-3.86-4.59-8.01-8.93-12.02-13.39c-0.31-2.07-0.62-4.15-0.92-6.22c3.64,1.06,7.54,1.3,11.01,0.37
	c14.3-3.85,21.38-17.57,16.05-31.02c-0.35-0.88-0.57-1.64,0.07-2.58c2.54-3.74,3.97-7.84,4.55-12.38
	c1.35-10.58-2.04-19.3-10.06-26.09c-2.99-2.53-6.24-4.55-5.7-9.15c0.04-0.33-0.3-0.69-0.41-1.06c-3.32-11.32-18.48-16.86-28.6-9.13
	c-0.86,0.65-1.64,0.8-2.65-0.15c-3.69-3.46-8.06-5.26-13.16-6.03c-9.11-1.37-19.57,3.78-23.51,11.89
	c-3.72,7.65-3.58,15.08-0.25,22.67c-0.78,3.94-0.63,8.06,0.45,11.69c1.15,3.88-0.07,6.25-2.45,8.73c-3.43,3.58-2.81,8.66,1.42,10.98
	c1.16,0.64,2.03,1.42,2.49,2.6c0.99,2.55,2.12,5.05,2.57,7.8c0.79,4.8,6.39,8.9,11.09,8.16c2.69-0.43,5.36-1,8.03-1.53
	c1.49-0.3,2.28-0.46,1.78,1.74c-1.75,7.68-5.41,14.42-9.6,20.97c-2.15,3.36-5.41,5.82-7.36,9.32c-6.64,5.75-11.86,12.87-18.15,18.95
	c-3.01,2.91-4.74,6.48-5.99,10.37c-0.36,0.08-0.78,0.06-1.07,0.24c-4.29,2.72-8.6,5.39-12.8,8.24c-1.49,1.01-1.94,1.04-2.37-0.87
	c-0.4-1.8-0.33-3.6-0.56-5.39c-0.93-7.33-1.85-14.65-2.72-21.98c-0.67-5.65-1.24-11.31-1.91-16.95c-0.87-7.34-2.11-14.65-2.62-22.01
	c-0.73-10.5-10.44-15.93-19.45-10.61c-3.98,2.35-8.02,4.58-12.04,6.87c-5.61,3.21-11.22,6.41-16.82,9.64
	c-1.22,0.7-2.23,1.9-1.46,3.16c0.56,0.9,1.29,2.15,3.33,1.49c5.86-1.9,11.91-3.18,17.8-4.99c2.44-0.75,3.09,0.17,3.35,2.22
	c0.27,2.1,1.4,3.49,3.25,4.59c2.71,1.62,5.59,0.77,8.35,0.76c2.46-0.01,3.08,0.79,3,3.12c-0.3,8.22-0.4,16.45-0.63,24.67
	c-0.21,7.84-0.49,15.67-0.73,23.5c-0.83,0.17-0.88,1.02-1.33,1.52c-0.97,0.42-1.62-0.31-2.34-0.68c-2.35-1.22-4.42-3-6.73-4.14
	c-4.75-2.34-9.01-5.53-13.89-7.61c-0.66-0.28-1.15-0.8-1.04-1.54c0.41-2.57-0.08-5.06-0.6-7.55c2.48-1.69,2.89-3.24,1.31-5.69
	c-1.95-3.04-4.03-6-6.04-9c-5.38-8.02-10.76-16.05-16.14-24.07c-1.65-2.46-4.75-3.58-6.58-2.43c-1.6,1.01-1.63,4.27-0.03,6.78
	c0.7,1.09,2.23,2.29,2.06,3.18c-0.78,4.11,1.83,7.28,2.5,10.96c-1.16,4.48-3.31,8.8-1.96,13.67c0.51,1.83,0.54,3.88,1.89,5.3
	c2.95,3.11,5.66,6.42,8.62,9.53c7.7,8.09,16.3,15.17,24.56,22.62c4.21,3.8,8.23,7.89,12.57,11.46c7.48,6.15,14.54,12.76,21.93,19
	c2.09,1.76,4.06,3.74,6.38,5.14c5.73,3.48,11.83,3.27,18,1.19c1.23,3.23-0.55,5.58-2.27,7.98c-1.5,2.09-3.02,4.18-4.36,6.38
	c-1.27,2.09-2.39,4.2-2.6,6.8c-0.36,4.35,1.86,7.4,4.46,10.37c-14.6,0.94-28.73-1.33-42.49-6.19c-3.98-1.45-7.85-3.15-11.65-5.03
	c-5.77-2.85-10.96-6.66-16.42-10.02c-0.74-1.03-1.61-1.91-2.86-2.3c-0.97-1.17-1.93-2.36-3.44-2.88c-0.19-0.19-0.38-0.38-0.57-0.57
	c-2.68-2.68-5.36-5.36-8.05-8.05c-0.19-0.19-0.38-0.39-0.56-0.58c-1.41-2.36-3.26-4.36-5.18-6.31c-0.22-1.03-0.87-1.74-1.73-2.29
	c-0.25-0.5-0.44-1.04-0.75-1.5c-13.8-20.19-20.25-42.44-19.03-66.92c0.59-11.87,3.1-23.27,7.48-34.3c0.71-1.8,1.88-3.51,1.98-5.89
	c-0.51,0.42-0.81,0.55-0.91,0.77c-5.18,11.34-8.45,23.26-9.43,35.63c-0.56,7.15-0.38,14.42,0.4,21.65
	c1.5,13.89,5.76,26.88,12.22,39.17c2.17,4.12,4.2,8.41,7.62,11.76c0.34,0.96,0.67,1.94,1.73,2.37c1.45,2.33,2.82,4.73,5.18,6.32
	c0.18,0.18,0.36,0.36,0.53,0.53c2.06,3.33,4.74,6.04,8.08,8.08c0.19,0.18,0.38,0.35,0.58,0.53c0.79,1.38,1.85,2.44,3.42,2.9
	c0.83,0.95,1.44,2.18,2.93,2.3c2.66,2.91,6.1,4.74,9.41,6.74c6,3.62,12.2,6.82,18.98,8.76c0.5,0.26,0.98,0.58,1.5,0.77
	c7.01,2.44,14.23,4.18,21.56,5.14c6.67,0.87,13.43,1.21,20.17,0.35c1.42,0.75,2.75-0.13,4.12-0.24c9.47-0.77,18.63-2.94,27.47-6.37
	c4.53-1.76,9.24-3.21,13.16-6.28l-0.03,0.02c0.47-0.05,1.02,0.06,1.18-0.6l-0.03,0.02c1.52-0.48,2.98-1.05,4.05-2.32l-0.02,0.02
	c0.79-0.08,1.43-0.38,1.75-1.17l-0.03,0.02c0.83-0.02,1.44-0.37,1.75-1.17l-0.04,0.03c0.47-0.05,0.99-0.01,1.18-0.6l-0.03,0.02
	c0.2-0.2,0.4-0.4,0.61-0.6l-0.03,0.03c0.81-0.05,1.44-0.38,1.75-1.17l-0.02,0.02c0.78-0.1,1.39-0.44,1.75-1.17
	c0,0-0.03,0.02-0.03,0.02c0.2-0.2,0.4-0.4,0.6-0.6l-0.03,0.03c0.62-0.15,1.38-0.17,1.2-1.16l-0.05,0.03
	c0.75,0.47,0.89-0.21,1.17-0.62l-0.03,0.02c0.2-0.2,0.4-0.4,0.6-0.6l-0.03,0.03c1.09-0.16,1.75-0.9,2.32-1.75
	c0,0-0.03,0.02-0.03,0.02c0.2-0.2,0.4-0.4,0.6-0.6l-0.03,0.03c0.2-0.2,0.4-0.4,0.6-0.6l-0.03,0.03c0.2-0.2,0.4-0.4,0.61-0.6
	l-0.03,0.03c0.2-0.2,0.4-0.4,0.6-0.61l-0.03,0.03c0.33-0.07,0.69-0.1,0.61-0.59l-0.02,0.02c0.47,0.07,0.75-0.04,0.6-0.59l-0.02,0.02
	c0.53,0.13,0.73-0.07,0.6-0.6l-0.02,0.02c0.53,0.13,0.73-0.07,0.6-0.6C190.5,220.85,190.47,220.88,190.47,220.88z"/>
<path class="st3" d="M190.38,216.27c0.38,0.78,0.76,1.57,1.15,2.35c0.04,0.37,0.08,0.73,0.12,1.1c0,0,0.01-0.01,0.01-0.01
	c-0.22,0.12-0.44,0.24-0.66,0.36c-0.17,0.27-0.35,0.54-0.52,0.81c0,0,0.03-0.03,0.03-0.03c-0.42-0.02-0.62,0.17-0.6,0.6
	c0,0,0.02-0.02,0.02-0.02c-0.42-0.03-0.62,0.17-0.6,0.6c0,0,0.02-0.02,0.02-0.02c-0.42-0.03-0.62,0.17-0.6,0.59
	c0,0,0.02-0.02,0.02-0.02c-0.42-0.03-0.64,0.15-0.61,0.59c0,0,0.03-0.03,0.03-0.03c-0.43-0.02-0.65,0.16-0.6,0.61
	c0,0,0.03-0.03,0.03-0.03c-0.44-0.04-0.64,0.16-0.61,0.6c0,0,0.03-0.03,0.03-0.03c-0.43-0.03-0.67,0.14-0.6,0.6
	c0,0,0.03-0.03,0.03-0.03c-0.47-0.07-0.67,0.13-0.6,0.6c0,0,0.03-0.02,0.03-0.02c-1.35-0.18-2.09,0.45-2.32,1.75
	c0,0,0.03-0.03,0.03-0.03c-0.44-0.03-0.66,0.15-0.6,0.6c0,0,0.03-0.02,0.03-0.02c-0.62-0.23-0.99,0.02-1.17,0.62
	c0,0,0.05-0.03,0.05-0.03c-0.74,0.03-1.27,0.28-1.2,1.16c0,0,0.03-0.03,0.03-0.03c-0.43-0.03-0.67,0.13-0.6,0.6
	c0,0,0.03-0.02,0.03-0.02c-1-0.23-1.67,0.03-1.75,1.17c0,0,0.02-0.02,0.02-0.02c-0.96-0.18-1.63,0.09-1.75,1.17l0.03-0.03
	c-0.43-0.02-0.67,0.13-0.61,0.6c0,0,0.03-0.02,0.03-0.02c-0.59-0.2-1.04-0.1-1.18,0.6c0,0,0.04-0.03,0.04-0.03
	c-0.9-0.09-1.65,0.06-1.75,1.17c0,0,0.03-0.02,0.03-0.02c-0.91-0.1-1.7-0.01-1.75,1.17c0,0,0.02-0.02,0.02-0.02
	c-1.74,0.09-3.2,0.67-4.05,2.32c0,0,0.03-0.02,0.03-0.02c-0.56-0.13-1.06-0.13-1.18,0.6c0,0,0.03-0.02,0.03-0.02
	c-1.05-0.29-1.83,0.37-2.66,0.79c-13.25,6.72-27.34,10.3-42.12,11.34c-0.22-0.06-0.45-0.12-0.67-0.18
	c-2.6-2.97-4.82-6.02-4.46-10.37c0.21-2.6,1.33-4.72,2.6-6.8c1.34-2.2,2.86-4.29,4.36-6.38c1.72-2.4,3.5-4.75,2.27-7.98
	c2.06-1.2,4.1-2.4,5.95-3.96c10.83-9.1,21.73-18.13,32.59-27.2c8.96-7.48,17.91-14.96,26.82-22.49c3.77-3.19,5.57-7.36,4.79-12.25
	c-1.85-11.5-14.09-15.88-23.17-8.25c-11.2,9.41-22.23,19.03-33.36,28.52c-6.25,5.33-12.57,10.59-18.86,15.88
	c-1.38-7.81-3.71-15.54-1.81-23.6c1.25-3.89,2.98-7.45,5.99-10.37c6.29-6.08,11.51-13.2,18.15-18.95c2.86,0.02,5.72-0.01,8.58,0.06
	c13.54,0.33,25.74-3.55,36.59-11.66c4.02,4.45,8.16,8.8,12.03,13.39c5.95,7.07,8.22,15.39,5.82,24.25
	c-4.83,17.83-10.25,35.51-15.43,53.25c-10.86,0-21.73,0-32.59,0c0,0.2,0,0.4,0,0.59C168.64,216.27,179.51,216.27,190.38,216.27z"/>
<path class="st4" d="M134.37,55.92c-3.33-7.6-3.47-15.02,0.25-22.67c3.94-8.11,14.41-13.26,23.51-11.89
	c5.1,0.77,9.47,2.57,13.16,6.03c1.01,0.95,1.8,0.8,2.65,0.15c10.12-7.72,25.28-2.18,28.6,9.13c0.11,0.36,0.44,0.72,0.41,1.06
	c-0.53,4.6,2.71,6.61,5.7,9.15c8.02,6.8,11.41,15.51,10.06,26.09c-0.58,4.54-2.01,8.64-4.55,12.38c-0.64,0.94-0.42,1.69-0.07,2.58
	c5.34,13.46-1.74,27.17-16.05,31.02c-3.47,0.94-7.37,0.69-11.01-0.37c-0.33-0.19-0.63-0.42-0.98-0.55
	c-9.09-3.46-14.07-10.03-15.27-19.69c-0.38-3.06,0.03-6.12-0.5-9.14c0.59-1.05,1.25-2.07,1.74-3.16c0.68-1.53,0.27-2.53-1.57-2.59
	c-0.09-1.41,0.35-2.53,1.38-3.59c1.11-1.15,2.13-2.49,2.86-3.91c3.05-5.95,0.84-11.64-5.33-13.67c-1.55-0.51-0.88-1.09-0.41-1.8
	c0.95-1.41,0.39-1.78-1.08-1.76c-3.54,0.04-7.07,0.02-10.61,0c-0.63,0-1.58,0.17-1.63-0.71c-0.08-1.24,1.05-0.84,1.7-0.85
	c3.44-0.05,6.91-0.3,10.32,0.05c3.6,0.37,4.81-1.68,5.99-4.72c-6.66,0-13.04,0.01-19.42-0.02c-0.78,0-2.1,0.37-2.09-0.8
	c0.01-1.16,1.33-0.78,2.11-0.79c5.83-0.03,11.66-0.02,17.49-0.02c3.69,0,4.54-0.7,5.58-4.63c-10.44,0-20.86-0.22-31.26,0.1
	c-4.72,0.15-8.04,3.19-10.11,7.45C135.53,54.57,135.62,55.73,134.37,55.92z"/>
<path class="st5" d="M120.45,189.31c6.29-5.29,12.61-10.55,18.86-15.88c11.13-9.49,22.16-19.1,33.36-28.52
	c9.08-7.63,21.32-3.25,23.17,8.25c0.79,4.89-1.02,9.07-4.79,12.25c-8.91,7.54-17.87,15.01-26.82,22.49
	c-10.86,9.07-21.76,18.1-32.59,27.2c-1.85,1.56-3.89,2.76-5.95,3.96c-6.17,2.08-12.27,2.28-18-1.2c-2.31-1.41-4.29-3.38-6.38-5.14
	c-7.39-6.24-14.45-12.85-21.93-19c-4.35-3.57-8.36-7.66-12.57-11.46c-8.27-7.45-16.86-14.53-24.56-22.62
	c-2.96-3.11-5.68-6.42-8.62-9.53c-1.35-1.43-1.39-3.48-1.89-5.3c-1.35-4.87,0.8-9.19,1.96-13.67c1.32,3.51,2.63,7.02,3.95,10.53
	c-1.32-5.98-3.26-11.74-5.14-17.51c-0.42-1.28-1.46-2.88,0.45-3.73c1.78-0.8,2.5,0.78,3.22,2.03c3.19,5.54,6.36,11.08,9.55,16.61
	c0.66,1.15,1.16,2.84,2.17,3.27c4.25,1.84,6.46,5.45,8.74,9.08c0.51,2.49,1.01,4.98,0.6,7.55c-0.12,0.74,0.37,1.26,1.04,1.54
	c4.88,2.08,9.14,5.27,13.89,7.61c2.31,1.14,4.39,2.92,6.73,4.14c0.72,0.37,1.38,1.1,2.34,0.68c0.41,0.27,0.82,0.55,1.23,0.82
	c0.76,1.04,1.88,1.61,2.96,2.23c8.64,4.93,17.28,9.86,25.93,14.77C116.45,193.65,116.46,193.63,120.45,189.31z"/>
<path class="st6" d="M50.82,91.33c-3.89,0-7.24,0.07-10.58-0.03c-2.06-0.06-3.14,0.09-1.9,2.6c1.76,3.55,3.18,7.27,4.73,10.93
	c0.27,0.64,0.9,1.24,0.36,2.17c-9.28-7.05-18.52-14.07-28.34-21.53c4.6,0,8.46,0,13.01,0c-1.77-2.95-3.24-5.47-4.78-7.94
	c-0.56-0.89-1.57-0.52-2.39-0.55c-4.11-0.13-8.23,0.22-12.33-0.3c-4.02-0.51-6.92-2.79-7.07-6.87C0.93,54.22,0.91,38.62,1.53,23.04
	c0.16-4.01,3.11-6.6,7.17-6.71c9.37-0.24,18.75-0.2,28.13-0.26c4.88-0.03,9.76-0.04,14.64,0c6.94,0.07,10.38,3.54,10.38,10.38
	c0,13.5,0.01,26.99,0,40.49c0,6.09-3.29,9.57-9.41,9.89c-2.58,0.13-5.17,0.1-7.75,0.09c-1.67,0-2.33,0.24-1.16,2.06
	C46.01,82.89,48.24,86.93,50.82,91.33z"/>
<path class="st5" d="M134.37,55.92c1.25-0.19,1.16-1.35,1.55-2.16c2.07-4.26,5.39-7.31,10.11-7.45c10.4-0.32,20.82-0.1,31.26-0.1
	c-1.03,3.93-1.89,4.63-5.58,4.63c-5.83,0-11.66-0.01-17.49,0.02c-0.78,0-2.1-0.37-2.11,0.79c-0.01,1.17,1.31,0.79,2.09,0.8
	c6.38,0.03,12.75,0.02,19.42,0.02c-1.18,3.04-2.39,5.09-5.99,4.72c-3.41-0.35-6.88-0.1-10.32-0.05c-0.65,0.01-1.78-0.39-1.7,0.85
	c0.06,0.88,1,0.71,1.63,0.71c3.54,0.02,7.07,0.04,10.61,0c1.47-0.02,2.03,0.35,1.08,1.76c-0.47,0.7-1.14,1.29,0.41,1.8
	c6.16,2.03,8.37,7.73,5.33,13.67c-0.73,1.42-1.74,2.76-2.86,3.91c-1.03,1.06-1.46,2.19-1.38,3.59c-3.14,0.05-6.28,0.19-9.41,0.11
	c-1.89-0.05-2.16,0.76-1.52,2.21c0.37,0.86,0.82,1.73,1.42,2.43c2.78,3.23,6.03,2.48,9.34,0.99c0.54,3.02,0.12,6.09,0.5,9.14
	c1.2,9.66,6.18,16.23,15.27,19.69c0.35,0.13,0.65,0.37,0.98,0.55c0.31,2.07,0.62,4.15,0.92,6.22c-10.85,8.1-23.04,11.99-36.59,11.66
	c-2.86-0.07-5.72-0.04-8.58-0.06c1.95-3.5,5.21-5.96,7.36-9.32c4.19-6.54,7.84-13.28,9.6-20.97c0.5-2.2-0.29-2.04-1.78-1.74
	c-2.67,0.54-5.34,1.11-8.03,1.53c-4.7,0.74-10.3-3.36-11.09-8.16c-0.45-2.75-1.58-5.25-2.57-7.8c-0.46-1.18-1.33-1.96-2.49-2.6
	c-4.23-2.32-4.85-7.41-1.42-10.98c2.38-2.48,3.6-4.85,2.45-8.73C133.74,63.98,133.58,59.86,134.37,55.92z M165.71,81.83
	c1.6-0.01,2.71-0.75,2.81-2.46c0.09-1.7-0.89-2.61-2.56-2.74c-1.76-0.14-2.76,0.85-2.84,2.45
	C163.02,80.66,163.89,81.75,165.71,81.83z"/>
<path class="st4" d="M120.45,189.31c-3.99,4.32-4,4.34-9.12,1.44c-8.65-4.9-17.29-9.83-25.93-14.77c-1.07-0.61-2.2-1.19-2.95-2.22
	c0.19-0.77,0.49-1.55,0.1-2.35c0.25-7.83,0.52-15.67,0.73-23.5c0.22-8.22,0.33-16.45,0.63-24.67c0.08-2.33-0.54-3.13-3-3.12
	c-2.77,0.01-5.64,0.86-8.35-0.76c-1.84-1.1-2.98-2.48-3.25-4.59c-0.26-2.05-0.92-2.97-3.35-2.22c-5.89,1.81-11.95,3.09-17.8,4.99
	c-2.03,0.66-2.77-0.59-3.33-1.49c-0.78-1.26,0.24-2.46,1.46-3.16c5.6-3.23,11.21-6.43,16.82-9.64c4.01-2.29,8.06-4.52,12.04-6.87
	c9.01-5.32,18.72,0.11,19.45,10.61c0.51,7.36,1.75,14.67,2.62,22.01c0.67,5.65,1.23,11.31,1.91,16.95
	c0.87,7.33,1.79,14.66,2.72,21.98c0.23,1.79,0.16,3.59,0.56,5.39c0.43,1.91,0.88,1.88,2.37,0.87c4.2-2.85,8.52-5.53,12.8-8.24
	c0.29-0.18,0.71-0.16,1.07-0.24C116.74,173.76,119.06,181.5,120.45,189.31z"/>
<path class="st4" d="M56.61,151.41c-2.28-3.63-4.49-7.25-8.74-9.08c-1.01-0.44-1.5-2.12-2.17-3.27c-3.2-5.53-6.37-11.07-9.55-16.61
	c-0.72-1.25-1.43-2.82-3.22-2.03c-1.9,0.85-0.86,2.45-0.45,3.73c1.88,5.77,3.81,11.53,5.14,17.51c-1.32-3.51-2.63-7.02-3.95-10.53
	c-0.66-3.67-3.28-6.85-2.5-10.96c0.17-0.9-1.37-2.09-2.06-3.18c-1.59-2.5-1.56-5.77,0.03-6.78c1.83-1.15,4.93-0.03,6.58,2.43
	c5.39,8.02,10.76,16.05,16.14,24.07c2.01,3,4.09,5.96,6.04,9C59.5,148.17,59.09,149.72,56.61,151.41z"/>
<path class="st7" d="M27.54,206.74c-3.41-3.35-5.45-7.64-7.62-11.76c-6.46-12.29-10.72-25.28-12.22-39.17
	c-0.78-7.23-0.97-14.5-0.4-21.65c0.98-12.37,4.25-24.29,9.43-35.63c0.1-0.22,0.41-0.35,0.91-0.77c-0.1,2.38-1.27,4.1-1.98,5.89
	c-4.38,11.03-6.89,22.43-7.48,34.3c-1.23,24.49,5.23,46.73,19.03,66.92c0.31,0.46,0.5,1,0.75,1.5
	C27.82,206.5,27.68,206.62,27.54,206.74z"/>
<path class="st7" d="M198.76,211.28c2.52-3.71,5.13-7.35,7.53-11.13c8.27-13,13.26-27.14,15.32-42.45
	c1.81-13.47,1.11-26.67-2.18-39.84c-0.72-2.9-1.6-5.75-2.6-9.24c1.45,0.77,1.58,1.72,1.86,2.64c2.55,8.39,4.05,16.92,4.65,25.71
	c1,14.75-1.11,29.01-5.95,42.87c-3.84,10.99-9.5,21.06-16.62,30.29c-0.46,0.59-1.07,1.06-1.62,1.59
	C199.02,211.57,198.89,211.43,198.76,211.28z"/>
<path class="st8" d="M120.91,250.6c0.22,0.06,0.45,0.12,0.67,0.18c0.01,0.25,0.02,0.5,0.03,0.75c-6.74,0.86-13.5,0.52-20.17-0.35
	c-7.33-0.96-14.55-2.7-21.56-5.14c-0.53-0.18-1-0.51-1.5-0.77c0.01-0.29,0.03-0.58,0.04-0.86
	C92.18,249.26,106.31,251.54,120.91,250.6z"/>
<path class="st9" d="M121.62,251.53c-0.01-0.25-0.02-0.5-0.03-0.75c14.78-1.03,28.87-4.62,42.12-11.34
	c0.82-0.42,1.61-1.08,2.66-0.79c-3.92,3.07-8.62,4.52-13.16,6.28c-8.84,3.43-18,5.59-27.47,6.37
	C124.37,251.41,123.04,252.29,121.62,251.53z"/>
<path class="st7" d="M78.42,244.41c-0.01,0.29-0.03,0.58-0.04,0.86c-6.78-1.95-12.98-5.14-18.98-8.76c-3.31-2-6.75-3.83-9.41-6.74
	c0.12-0.14,0.24-0.27,0.36-0.41c5.46,3.36,10.64,7.16,16.42,10.02C70.57,241.26,74.44,242.96,78.42,244.41z"/>
<path class="st10" d="M190.38,216.27c-10.87,0-21.74,0-32.6,0c0-0.2,0-0.4,0-0.59c10.86,0,21.73,0,32.59,0
	C190.37,215.87,190.37,216.07,190.38,216.27z"/>
<path class="st7" d="M35.43,215.57c2.68,2.68,5.36,5.36,8.05,8.05c-0.13,0.14-0.27,0.29-0.4,0.43c-3.34-2.04-6.03-4.75-8.08-8.08
	C35.14,215.83,35.28,215.7,35.43,215.57z"/>
<path class="st7" d="M34.46,215.43c-2.36-1.59-3.73-3.99-5.18-6.32c0.14-0.14,0.27-0.29,0.41-0.43c1.92,1.95,3.77,3.95,5.18,6.31
	C34.73,215.14,34.59,215.29,34.46,215.43z"/>
<path class="st7" d="M195.27,215.35c0.71-1.75,1.96-3.02,3.49-4.07c0.13,0.15,0.26,0.29,0.4,0.44c-0.69,1.74-2.08,2.87-3.44,4.03
	C195.57,215.62,195.42,215.48,195.27,215.35z"/>
<path class="st7" d="M191.64,219.72c-0.04-0.37-0.08-0.73-0.12-1.1c1.27-0.66,1.84-2.18,3.25-2.66c0.12,0.12,0.24,0.23,0.36,0.35
	C194.41,217.9,193.38,219.18,191.64,219.72z"/>
<path class="st7" d="M47.07,227.47c-1.57-0.46-2.63-1.52-3.42-2.9c0.14-0.13,0.27-0.26,0.4-0.39c1.52,0.52,2.47,1.71,3.44,2.88
	C47.35,227.2,47.21,227.33,47.07,227.47z"/>
<path class="st9" d="M167.48,238.1c0.85-1.65,2.31-2.22,4.05-2.32C170.46,237.05,169,237.62,167.48,238.1z"/>
<path class="st7" d="M47.49,227.06c1.26,0.39,2.12,1.27,2.86,2.3c-0.12,0.14-0.24,0.28-0.36,0.41c-1.49-0.12-2.09-1.36-2.93-2.3
	C47.21,227.33,47.35,227.2,47.49,227.06z"/>
<path class="st11" d="M82.54,171.41c0.4,0.8,0.1,1.58-0.1,2.35c-0.41-0.28-0.82-0.55-1.23-0.83
	C81.66,172.43,81.71,171.58,82.54,171.41z"/>
<path class="st7" d="M27.96,206.39c0.86,0.55,1.5,1.26,1.73,2.29c-0.14,0.14-0.27,0.29-0.41,0.43c-1.07-0.43-1.39-1.4-1.73-2.37
	C27.68,206.62,27.82,206.5,27.96,206.39z"/>
<path class="st9" d="M183.57,227.18c0.23-1.3,0.97-1.93,2.32-1.75C185.32,226.28,184.66,227.02,183.57,227.18z"/>
<path class="st9" d="M171.5,235.8c0.05-1.18,0.83-1.27,1.75-1.17C172.94,235.42,172.3,235.72,171.5,235.8z"/>
<path class="st9" d="M173.23,234.65c0.1-1.11,0.85-1.26,1.75-1.17C174.67,234.28,174.06,234.63,173.23,234.65z"/>
<path class="st9" d="M176.67,232.35c0.12-1.08,0.79-1.35,1.75-1.17C178.11,231.98,177.48,232.3,176.67,232.35z"/>
<path class="st9" d="M178.4,231.2c0.08-1.14,0.75-1.4,1.75-1.17C179.79,230.77,179.17,231.1,178.4,231.2z"/>
<path class="st9" d="M180.7,229.48c-0.08-0.88,0.45-1.12,1.2-1.16C182.08,229.32,181.32,229.33,180.7,229.48z"/>
<path class="st9" d="M181.85,228.36c0.18-0.6,0.55-0.84,1.17-0.62C182.74,228.15,182.59,228.82,181.85,228.36z"/>
<path class="st7" d="M190.99,220.07c0.22-0.12,0.44-0.24,0.66-0.36c0.34,0.68-0.22,0.86-0.63,1.12
	C191.01,220.57,191,220.32,190.99,220.07z"/>
<path class="st9" d="M174.94,233.5c0.14-0.7,0.59-0.8,1.18-0.6C175.93,233.49,175.41,233.45,174.94,233.5z"/>
<path class="st9" d="M166.32,238.67c0.12-0.73,0.62-0.73,1.18-0.6C167.34,238.73,166.79,238.62,166.32,238.67z"/>
<path class="st9" d="M176.1,232.93c-0.07-0.47,0.18-0.63,0.61-0.6C176.5,232.52,176.3,232.72,176.1,232.93z"/>
<path class="st9" d="M180.12,230.05c-0.07-0.47,0.17-0.63,0.61-0.6C180.52,229.65,180.32,229.85,180.12,230.05z"/>
<path class="st9" d="M182.99,227.76c-0.06-0.46,0.17-0.64,0.6-0.6C183.39,227.35,183.19,227.56,182.99,227.76z"/>
<path class="st9" d="M185.86,225.46c-0.06-0.47,0.14-0.67,0.6-0.6C186.27,225.06,186.06,225.26,185.86,225.46z"/>
<path class="st9" d="M186.44,224.88c-0.06-0.47,0.17-0.63,0.6-0.6C186.84,224.48,186.64,224.68,186.44,224.88z"/>
<path class="st9" d="M187.01,224.31c-0.04-0.44,0.17-0.64,0.61-0.6C187.42,223.91,187.21,224.11,187.01,224.31z"/>
<path class="st7" d="M43.65,224.57c-0.19-0.18-0.38-0.35-0.58-0.53c0.13-0.14,0.27-0.29,0.4-0.43c0.19,0.19,0.38,0.38,0.57,0.57
	C43.92,224.32,43.78,224.45,43.65,224.57z"/>
<path class="st9" d="M187.59,223.74c-0.04-0.44,0.18-0.63,0.6-0.61C187.99,223.33,187.79,223.54,187.59,223.74z"/>
<path class="st9" d="M188.16,223.16c-0.03-0.44,0.2-0.62,0.61-0.59C188.85,223.07,188.49,223.09,188.16,223.16z"/>
<path class="st9" d="M188.75,222.6c-0.02-0.42,0.18-0.62,0.6-0.59C189.5,222.55,189.22,222.67,188.75,222.6z"/>
<path class="st9" d="M189.33,222.02c-0.03-0.42,0.17-0.62,0.6-0.6C190.06,221.96,189.86,222.16,189.33,222.02z"/>
<path class="st9" d="M189.9,221.45c-0.03-0.42,0.17-0.62,0.6-0.6C190.63,221.38,190.44,221.58,189.9,221.45z"/>
<path class="st9" d="M190.99,220.07c0.01,0.25,0.02,0.51,0.03,0.76c-0.18,0.02-0.36,0.04-0.55,0.05
	C190.65,220.61,190.82,220.34,190.99,220.07z"/>
<path class="st7" d="M194.77,215.97c0.17-0.21,0.33-0.41,0.5-0.62c0.15,0.14,0.3,0.27,0.44,0.41c-0.19,0.19-0.39,0.38-0.58,0.56
	C195.01,216.2,194.89,216.08,194.77,215.97z"/>
<path class="st7" d="M34.86,214.99c0.19,0.19,0.38,0.39,0.56,0.58c-0.15,0.13-0.29,0.27-0.44,0.4c-0.18-0.18-0.36-0.36-0.53-0.53
	C34.59,215.29,34.73,215.14,34.86,214.99z"/>
<path class="st12" d="M170.27,89.18c-3.31,1.49-6.56,2.24-9.34-0.99c-0.6-0.7-1.05-1.58-1.42-2.43c-0.63-1.46-0.37-2.26,1.52-2.21
	c3.13,0.08,6.27-0.06,9.41-0.11c1.84,0.06,2.25,1.06,1.57,2.59C171.53,87.12,170.86,88.13,170.27,89.18z"/>
<path class="st12" d="M165.71,81.83c-1.83-0.07-2.69-1.17-2.6-2.75c0.09-1.59,1.09-2.59,2.84-2.45c1.67,0.13,2.66,1.04,2.56,2.74
	C168.42,81.08,167.31,81.82,165.71,81.83z"/>
<polyline class="st13" points="22.35,53.05 9.24,44.96 22.35,36.87 "/>
<polyline class="st13" points="40.59,53.05 53.69,44.96 40.59,36.87 "/>
<line class="st14" x1="36.17" y1="32.31" x2="26.29" y2="58.64"/>
</svg>
