<?xml version="1.0" encoding="utf-8"?>
<!-- Generator: Adobe Illustrator 24.1.3, SVG Export Plug-In . SVG Version: 6.00 Build 0)  -->
<svg version="1.1" id="Layer_1" xmlns="http://www.w3.org/2000/svg" xmlns:xlink="http://www.w3.org/1999/xlink" x="0px" y="0px"
	 viewBox="0 0 230.8 257.1" style="enable-background:new 0 0 230.8 257.1;" xml:space="preserve">
<style type="text/css">
	.st0{fill:#BC658D;}
	.st1{fill:#D0D2D3;}
	.st2{fill:#E7E7E7;}
	.st3{fill:#C66A98;}
	.st4{fill:#A56C78;}
	.st5{fill:#254A59;}
	.st6{fill:#3C4750;}
	.st7{fill:#FDB87E;}
	.st8{fill:#266467;}
	.st9{fill:#4F6D78;}
	.st10{fill:#6D848D;}
	.st11{fill:#B7BFC3;}
	.st12{fill:#74D3BA;}
	.st13{fill:#FDFDFD;}
	.st14{fill:#00838F;}
</style>
<circle class="st0" cx="31.7" cy="234.5" r="10.2"/>
<circle class="st1" cx="203.6" cy="32.4" r="16.1"/>
<path class="st2" d="M36.34,46.64c-0.16,0.16-0.33,0.33-0.49,0.49c-0.16,0.16-0.33,0.33-0.49,0.49c-0.16,0.16-0.33,0.33-0.49,0.49
	c-0.16,0.16-0.33,0.33-0.49,0.49c-2.04,1.44-3.07,3.66-4.27,5.71c-3.05,5.18-4.33,10.94-4.23,16.82c0.08,4.72,1.38,9.36,3.57,13.61
	c1.42,2.76,2.73,5.66,5.43,7.53c0.15,0.16,0.3,0.33,0.44,0.49c0.16,0.16,0.33,0.33,0.49,0.49c0.16,0.16,0.33,0.33,0.49,0.49
	c1.15,1.7,2.87,2.74,4.54,3.81c8.27,5.32,17.21,6.29,26.6,3.93c2.83-0.71,5.55-1.79,8.01-3.77c-0.42-0.18-0.61-0.33-0.7-0.28
	c-0.65,0.28-1.3,0.59-1.93,0.91c-8.59,4.44-17.32,4.58-26.29,1.14c-3.71-1.42-6.63-3.96-9.85-6.09c-0.16-0.16-0.33-0.33-0.49-0.49
	c-0.16-0.16-0.33-0.33-0.49-0.49c-0.16-0.16-0.33-0.32-0.49-0.48c-0.06-0.62-0.53-0.98-0.88-1.43c-7.2-8.92-9.21-18.89-6-29.9
	c1.27-4.35,3.89-7.96,6.39-11.63c0.16-0.16,0.33-0.33,0.49-0.49c0.16-0.16,0.33-0.33,0.49-0.49c0.16-0.16,0.33-0.33,0.49-0.49
	c0.16-0.16,0.33-0.33,0.49-0.49c0.16-0.16,0.32-0.32,0.49-0.49c3.15-2.07,6.1-4.41,9.74-5.75c10.97-4.06,21.05-2.62,30.58,4.08
	c1.21,0.85,1.98,2.77,4.19,2.19c-0.29-0.53-0.84-0.76-1.27-1.13c-8.13-6.76-17.4-9.56-27.85-7.66c-5.97,1.09-11.52,3.25-15.76,7.92
	C36.65,46.34,36.5,46.49,36.34,46.64z"/>
<path class="st2" d="M171.84,209.62c0.17-0.17,0.34-0.34,0.51-0.51l-0.01,0.02c0.37-0.23,0.93-0.34,0.55-0.99l0.06,0.1
	c0.43,0.07,0.57-0.11,0.46-0.52l-0.01,0.01c0.46,0.09,0.57-0.13,0.46-0.54l-0.02,0c0.46,0.1,0.44-0.24,0.48-0.52l-0.02,0.02
	c0.31-0.02,0.48-0.19,0.5-0.51l-0.01,0.01c0.42-0.17,0.77-0.38,0.58-0.93l0.02,0.02c0.89-0.09,1.06-0.95,1.45-1.49
	c4.69-6.33,8.37-13.24,11.28-20.54c3.65-9.17,5.76-18.68,6.17-28.55c0-3.55,0-7.11,0-10.66c-1.11,0.8-1.07,1.82-0.85,2.64
	c0.52,1.91,0.65,3.73,0,5.64c-0.24,0.72-0.22,1.61,0.28,2.35c-0.52,3.88-0.89,7.78-1.58,11.63c-1.34,7.44-3.7,14.59-6.94,21.41
	c-2.6,5.48-5.29,10.93-9.4,15.51c-0.02-1.95-0.06-3.9-0.06-5.85c-0.03-13.57-0.05-27.13-0.08-40.7c0.3-1.31-0.75-0.85-1.33-1.01
	c-0.6-3.42,0.15-6.2,3.58-7.8c0.87-0.41,1.72-0.92,2.47-1.51c2.34-1.83,4.81-3.48,5.54-6.76c1.13-5.1,0.03-9.28-4.22-12.52
	c-2.42-1.85-2.38-2.02-0.13-4.21c0.5-0.17,1-0.33,1.49-0.5c0.28,0.15,0.56,0.45,0.84,0.44c9.77-0.15,19.64,1.12,29.28-0.61
	c8.06-1.45,11.98-7.2,11.92-15.09c-0.06-8.29-7.01-14.55-15.36-14.57c-16.56-0.05-33.12-0.03-49.68-0.01
	c-9.37,0.02-17.28,7.16-15.69,17.88c0.82,5.56,6.44,11.3,12.03,11.94c1.19,0.14,2.2,0.52,3.21,1.05c-1.6,1.58-2.09,3.49-2.04,5.72
	c0.09,3.8-0.02,7.61-0.04,11.41c-6.11-1.63-12.42-2.62-18.02-5.78c-0.77-0.43-1.55-0.85-2.32-1.28c-1.67-1.4-3.35-2.8-5.02-4.2
	c-4.87-6.13-8.32-12.55-8.1-20.92c0.14-5.3-0.01-10.72-0.29-16.07c-0.07-1.43,0.36-2.31,1.58-3.23c5.28-3.99,6.14-11.83,0.92-15.18
	c0.02-6.28,0.05-12.57,0.05-18.85c0-5.54-2.08-7.6-7.66-7.56c-1.82,0.01-3.46,0.05-4.79-1.65c-0.67-0.85-1.93-1.22-3.24-1.38
	c-5.77-0.71-11.56-0.4-17.32-0.21c-4.13,0.14-5.31,1.59-6.24,5.86c-0.19,0.88-0.64,1.15-1.46,1.32c-3.39,0.72-4.84,2.55-4.85,6.04
	c-0.01,3.18,0.03,6.37,0.04,9.55c-0.57,0.22-0.91,0.45-0.76,1.24c0.21,1.11,0.36,2.3,0.16,3.39c-0.85,4.7-0.46,9.28,0.54,13.93
	c1.08,5.05,0.16,10.23,0.5,15.35c0.18,2.79,1.07,5.34,2.56,7.66c2.95,4.6,6.97,7.93,12.06,9.95c0.47,1.94-0.95,3.5-1.09,5.31
	c-1.8,2.54-3.47,5.17-5.77,7.32c-0.85,0.7-1.7,1.4-2.56,2.1c-1.02,0-1.55,0.86-2.3,1.32c-6.88,2.84-14.16,4.38-21.27,6.47
	c-4.73,1.39-9.52,2.55-13.07,6.33c-0.11,0.09-0.21,0.19-0.32,0.28c0.14,0.03,0.28,0.05,0.42,0.08c3.35,0.01,6.69,0,10.04,0.03
	c1.45,0.01,3.22-0.35,4.27,0.34c0.87,0.57,0.64,2.49,0.92,3.8c2.24,10.68,4.63,21.33,6.92,32c2.1,9.83,4.06,19.69,6.25,29.5
	c0.74,3.33,0.87,6.17-2.42,8.25c-0.85,0.54-1.41,1.54-2.11,2.32c-0.4-0.04-0.81-0.07-0.91-0.58c-1.01-4.9-2.01-9.79-3.02-14.69
	c-0.4-3.88-1.18-7.68-2.41-11.38c-0.16-0.86-0.3-1.73-0.48-2.58c-2.06-9.75-4.17-19.48-6.18-29.24c-0.8-3.9-1.99-7.74-2.13-11.76
	c0.16-0.16,0.32-0.33,0.49-0.49c0.16-0.16,0.33-0.33,0.49-0.49c0.16-0.16,0.33-0.33,0.49-0.49c0.16-0.16,0.33-0.33,0.49-0.49
	c0.16-0.16,0.33-0.33,0.49-0.49c0.16-0.16,0.33-0.33,0.49-0.49c0.16-0.16,0.33-0.33,0.49-0.49c0.16-0.16,0.33-0.33,0.49-0.49
	c0.16-0.16,0.33-0.33,0.49-0.49c0.24-0.05,0.47-0.13,0.34-0.44c-0.02-0.05-0.3-0.07-0.37,0c-0.2,0.17-0.26,0.37,0.07,0.49
	c-0.14-0.04-0.28-0.07-0.42-0.11c-0.02,0.2-0.04,0.4-0.06,0.59c-0.14-0.04-0.28-0.08-0.43-0.11c-0.02,0.2-0.04,0.4-0.07,0.6
	c-0.14-0.04-0.28-0.08-0.43-0.11c-0.02,0.2-0.04,0.4-0.06,0.6c-0.14-0.04-0.28-0.08-0.43-0.11c-0.02,0.2-0.04,0.4-0.06,0.6
	c-0.14-0.04-0.28-0.08-0.43-0.11c-0.02,0.2-0.04,0.4-0.06,0.6c-0.14-0.04-0.28-0.08-0.43-0.11c-0.02,0.2-0.04,0.4-0.06,0.6
	c-0.14-0.04-0.28-0.08-0.42-0.11c-0.02,0.2-0.04,0.4-0.07,0.6c-0.14-0.04-0.28-0.08-0.43-0.11c-0.02,0.2-0.04,0.4-0.06,0.6
	c-0.14-0.04-0.28-0.07-0.43-0.11c-0.02,0.2-0.04,0.4-0.06,0.61c-17.77,0-35.54,0-53.38,0c1.5,6.96,2.97,13.75,4.44,20.54
	c-6.23,0-7.54,1.72-5.62,7.77c1.29,4.06,2.97,8,4.26,12.06c1.31,4.12,3.41,7.44,7.62,9.06c0.03,0.89-0.11,1.83,0.13,2.66
	c1.52,5.24,2.26,10.63,3.42,15.94c0.37,1.73,1.08,2.7,3.2,2.63c5.93-0.19,11.86-0.1,17.8-0.11c0.11,0.06,0.24,0.09,0.36,0.09
	c4.3,0.6,8.6,0.62,12.9-0.01c0.14-0.01,0.28-0.05,0.41-0.11c3.23,0.06,6.47,0.12,9.7,0.18c-0.01,2.56-0.03,5.11-0.04,7.67
	c-0.19,0.09-0.37,0.17-0.56,0.26c-3.11-0.96-5.68-3.19-8.85-4.02c1.28,1.09,2.63,2.02,4.09,2.74c6.01,2.99,12.15,5.6,18.66,7.42
	c6.4,1.8,12.93,2.97,19.48,3.28c8.8,0.41,17.65-0.17,26.28-2.36c5.68-1.44,11.35-2.92,16.52-5.83c0,0-0.02,0.02-0.02,0.02
	c2.87-0.82,5.49-2.13,7.86-3.93l-0.02,0.01c1-0.2,1.91-0.55,2.47-1.48l-0.02,0.01c0.4-0.04,0.86,0.04,1-0.51l-0.02,0.01
	c0.66-0.08,1.21-0.33,1.49-0.99l-0.02,0.01c0.66-0.09,1.21-0.33,1.49-0.99l-0.02,0.01c0.66-0.09,1.21-0.33,1.49-0.99l-0.01,0.01
	c0.52-0.13,1.14-0.15,1.04-0.96l-0.04,0.02c0.62,0.35,0.77-0.16,0.98-0.54l-0.01,0.01c0.54-0.12,1.16-0.14,1.04-0.96l-0.05,0.02
	c0.62,0.35,0.77-0.16,0.98-0.54l-0.02,0.01c0.17-0.17,0.34-0.34,0.51-0.51l-0.02,0.02c0.55-0.1,1.18-0.11,1.04-0.96l-0.05,0.02
	c0.64,0.38,0.75-0.19,0.98-0.55l-0.01,0.01c0.17-0.17,0.34-0.34,0.51-0.51l-0.02,0.02c0.17-0.17,0.34-0.34,0.51-0.51l-0.02,0.02
	c0.78-0.2,1.55-0.41,1.52-1.45l-0.03,0.01c0.5,0.16,0.7,0.02,0.52-0.51l-0.04,0.03c0.7,0.4,0.79-0.36,1.16-0.6
	c0.14-0.02,0.22-0.11,0.25-0.24c0.19-0.23,0.37-0.46,0.56-0.69l-0.02,0.02c0.17-0.17,0.34-0.34,0.51-0.51l-0.02,0.02
	c0.17-0.17,0.34-0.34,0.51-0.51c0,0-0.02,0.02-0.02,0.02c0.17-0.17,0.34-0.34,0.51-0.51l-0.02,0.02c0.17-0.17,0.34-0.34,0.51-0.51
	l-0.02,0.02c0.22-0.19,0.45-0.37,0.67-0.56c0.14-0.03,0.22-0.11,0.25-0.25c0.26-0.35,1.01-0.44,0.61-1.15l-0.03,0.04
	c0.56,0.2,0.6-0.09,0.5-0.52l-0.02,0.03c0.77,0.1,1-0.33,0.99-1l-0.01,0.01c0.43,0.07,0.44-0.24,0.49-0.52L171.84,209.62z"/>
<path class="st2" d="M222.37,95.37c-0.16-0.16-0.32-0.32-0.49-0.49c-2.94-3.21-8.95-5.43-11.87-4.19c1.75,0.43,3.35,0.42,4.88,1.01
	c2.39,0.92,4.49,2.26,6.64,3.56c0.15,0.15,0.3,0.3,0.45,0.45c0.16,0.16,0.33,0.33,0.49,0.49c2.41,3.27,4.24,6.81,4.86,10.91
	c-0.01-4.37-1.1-8.28-4.48-11.25C222.7,95.69,222.53,95.53,222.37,95.37z"/>
<path class="st2" d="M60.83,73.64c-0.5,0.31-1.3,0.1-1.58,0.99c0.89,0.39,1.47,0.09,1.92-0.67c0.85-0.18,1.44-0.57,1.3-1.61
	C61.67,72.53,61.35,73.21,60.83,73.64z"/>
<path class="st2" d="M62.65,67.94c-0.02-0.55-0.33-0.91-0.77-1.19c-2.67-0.95-2.89-2.99-2.8-5.49c0.19-5.22,0.07-10.45,0.04-15.67
	c0-0.63,0.25-1.37-0.38-2.01c-0.71,0.87-0.44,1.71-0.44,2.47c-0.03,5.8,0,11.59-0.04,17.39c-0.01,0.79,0.39,1.68-0.9,2.19
	c-3.25,1.3-4.06,2.91-3.13,6.17c0.34,1.2,0.05,1.87-0.8,2.68c-2.37,2.25-4.65,4.58-6.94,6.92c-0.43,0.44-1.28,0.83-0.44,2.08
	c1.74-1.8,3.29-3.57,5.01-5.14c1.99-1.81,3.25-5.02,7.08-3.74c-1.68-1.11-3.26-1.97-3.41-4.05c-0.11-1.52,0.49-2.71,1.69-3.59
	c1.7-1.24,3.38-0.75,5.03,0.19c0.26,0.38,0.52,0.77,0.78,1.15c0.53,1.11,0.29,2.35,0.28,4.18C63.86,70.46,63.59,69.18,62.65,67.94z"
	/>
<path class="st2" d="M222,119.67c-2.73,1.45-5.02,3.65-8.19,4.37c-1.18,0.27-2.57-0.06-3.78,0.88c3.82,0.76,9.26-1.46,12.33-4.92
	c3.55-3.04,4.86-7.05,5.12-11.52c-1.01,1.06-0.84,2.52-1.25,3.79C225.33,115.06,223.57,117.3,222,119.67z"/>
<path class="st2" d="M142.88,64.57c2.46-7.86,8.11-11.71,16.13-12.59c-6.34-1.18-15.19,3.89-16.89,12.59
	c-1.07,2.45-0.93,4.94-0.22,7.44c0.4,8.14,9.33,15.53,17.11,14.32c-9.27-1.44-15.37-6.14-16.67-15.82
	C142.44,68.53,142.32,66.52,142.88,64.57z"/>
<path class="st2" d="M184.76,54.29c-8.9,0-17.8,0.1-26.69-0.03c-7.01-0.1-14.44,6.8-14.01,15.25c0.44,8.64,6.5,14.57,15.53,14.63
	c16.65,0.11,33.3,0.05,49.96,0.01c3.31-0.01,6.4-0.87,9.19-2.82c5.26-3.68,7.7-10.6,5.8-16.61c-2.21-7.01-8.87-10.64-14.07-10.5
	C201.91,54.46,193.33,54.29,184.76,54.29z"/>
<path class="st2" d="M11.5,147.57c0.02,0.13,0.04,0.26,0.07,0.39c11.37,0,22.73,0,34.1,0c0-0.13,0-0.26,0-0.39
	C34.27,147.57,22.88,147.57,11.5,147.57z"/>
<path class="st3" d="M73.78,223.97c0.7-0.79,1.26-1.79,2.11-2.32c3.29-2.08,3.17-4.92,2.42-8.25c-2.19-9.81-4.14-19.67-6.25-29.5
	c-2.29-10.67-4.67-21.32-6.92-32c-0.27-1.31-0.04-3.22-0.92-3.8c-1.05-0.69-2.81-0.32-4.27-0.34c-3.35-0.03-6.69-0.02-10.04-0.03
	c0.01-0.13-0.02-0.25-0.1-0.36c3.55-3.78,8.34-4.94,13.07-6.33c7.11-2.09,14.39-3.63,21.27-6.47c0.51,0.42,0.38,1.03,0.47,1.58
	c1.2,7.34,3.73,14.13,8.32,20.07c9.45,12.24,24.17,13.55,35.03,3.06c4.3-4.15,7.05-9.3,9.05-14.89c1.12-3.15,1.5-6.47,2.49-9.64
	c5.61,3.17,11.92,4.16,18.03,5.79c0.02,5.04,0.03,10.07,0.05,15.11c-5.33,0.15-5.33,0.15-5.79,5.47c-0.01,0.16-0.01,0.33-0.02,0.49
	c-1.02,9.95-2.02,19.9-3.08,29.85c-1.09,10.27-2.21,20.54-3.34,30.8c-0.48,4.37,0.48,9.5-5.67,10.95c-0.09,0.02-0.13,0.27-0.2,0.42
	l0.02-0.02c-0.76-0.17-1.44,0.08-2.12,0.36c-14.33,5.93-29.2,8.07-44.64,6.53c-10.05-1-19.62-3.64-28.77-7.89
	c-0.03-0.16-0.05-0.32-0.08-0.48c0.01-2.56,0.03-5.11,0.04-7.67C67.2,223.99,70.53,224.85,73.78,223.97z"/>
<path class="st4" d="M95.88,118.51c-5.09-2.02-9.12-5.35-12.06-9.95c-1.49-2.32-2.37-4.87-2.56-7.66c-0.34-5.12,0.59-10.3-0.5-15.35
	c-1-4.65-1.38-9.23-0.54-13.93c0.2-1.09,0.04-2.29-0.16-3.39c-0.15-0.79,0.2-1.02,0.76-1.24c9.14-0.01,18.28,0.07,27.42-0.08
	c2.4-0.04,3.04,0.7,2.95,3.03c-0.17,4.93-0.05,9.86-0.05,14.79c2.06-1.72,4.25-3.04,4.98-5.66c1.55-5.51,4.67-7.07,10.17-5.21
	c5.22,3.36,4.36,11.19-0.92,15.18c-1.22,0.92-1.65,1.8-1.58,3.23c0.28,5.35,0.43,10.77,0.29,16.07c-0.23,8.37,3.23,14.79,8.1,20.92
	c-0.19,0.45-0.39,0.89-0.57,1.34c-5.67,14.53-23.24,19.32-35.52,9.72c-3.16-2.47-5.1-5.83-7.07-9.18c2.29-2.15,3.96-4.78,5.77-7.32
	c2,0.52,4.02,0.39,6,0c6.22-1.19,11.09-4.24,13.71-10.26c0.03-0.07,0.06-0.13,0.08-0.2c-0.02,0.07-0.04,0.15-0.06,0.22
	c-1.68-0.04-2.81,1.15-4.04,1.96c-3.51,2.3-7.28,3.36-11.46,3.02C97.98,118.49,96.93,118.53,95.88,118.51z M91.03,86.54
	c-0.22-0.08-0.44-0.16-0.65-0.23c-1.1,3.17-2.17,6.35-3.3,9.5c-0.81,2.26-0.51,4.2,1.55,5.6c1.84,1.24,3.97,0.73,6-1.31
	c-0.31-0.26-0.64-0.14-0.89,0.04c-1.65,1.16-3.32,1.8-5.09,0.24c-1.85-1.64-1.16-3.49-0.49-5.38
	C89.15,92.19,90.08,89.35,91.03,86.54z M122.39,88.84c-0.35-0.76-0.85-1.56-1.65-1.6c-0.82-0.05-1.58,0.78-1.65,1.49
	c-0.08,0.9,0.8,1.68,1.64,1.7C121.5,90.45,122.02,89.59,122.39,88.84z"/>
<path class="st5" d="M58.65,153.74c0.15,4.02,1.33,7.86,2.13,11.76c2.01,9.76,4.11,19.49,6.18,29.24c0.18,0.86,0.32,1.72,0.48,2.58
	c-6.36,6.31-12.74,12.61-19.07,18.95c-2.64,2.64-5.2,5.36-7.8,8.05c-5.93,0.02-11.87-0.08-17.8,0.11c-2.12,0.07-2.83-0.9-3.2-2.63
	c-1.15-5.31-1.9-10.71-3.42-15.94c-0.24-0.83-0.1-1.77-0.13-2.66c4.84,1.33,9.51-0.12,14.22-0.87c1.19-0.19,2.04-0.6,1.98-1.97
	c-0.06-1.33-0.94-1.79-2.09-1.96c-1.6-0.23-3.21-0.45-5.11-0.72c2.08-0.93,4.06-0.9,5.94-1.3c1.41-0.3,2.75-0.48,2.74-2.42
	c0-1.98-1.46-2.16-2.81-2.38c-2.8-0.46-5.62-0.82-8.43-1.22c1.85-0.63,3.74-1.06,5.65-1.31c1.58-0.2,3.04-0.5,3.01-2.45
	c-0.03-1.93-1.6-2.21-3.1-2.44c-2.65-0.39-5.29-0.78-7.94-1.17c2.15-0.73,4.3-1.08,6.44-1.5c1.02-0.2,1.81-0.71,1.82-1.94
	c0.01-1.04-0.13-1.99-1.28-2.36c-0.62-0.19-1.27-0.29-1.91-0.39c-5.13-0.83-10.26-1.66-15.39-2.48c-1.47-6.79-2.94-13.58-4.44-20.54
	c17.84,0,35.61,0,53.38,0L58.65,153.74z"/>
<path class="st0" d="M175.67,156.67c0.02,13.57,0.05,27.13,0.08,40.7c0,1.95,0.04,3.9,0.06,5.85c-0.14,0.69-0.28,1.38-0.43,2.06
	c0,0-0.02-0.02-0.02-0.02c-0.55,0.08-0.67,0.44-0.58,0.93c0,0,0.01-0.01,0.01-0.01c-0.34,0-0.49,0.19-0.5,0.51
	c0,0,0.02-0.02,0.02-0.02c-0.32,0.03-0.46,0.22-0.48,0.52c0,0,0.02,0,0.02,0c-0.32,0.03-0.47,0.22-0.46,0.54
	c0,0,0.01-0.01,0.01-0.01c-0.33,0.01-0.49,0.18-0.46,0.52c0,0-0.06-0.1-0.06-0.1c-0.49,0.16-0.65,0.5-0.55,0.98
	c0,0,0.01-0.02,0.01-0.02c-0.35-0.01-0.52,0.16-0.51,0.51c0,0,0.02-0.02,0.02-0.02c-0.35,0-0.49,0.19-0.49,0.52
	c0,0,0.01-0.01,0.01-0.01c-0.7-0.03-0.99,0.35-0.99,1c0,0,0.02-0.03,0.02-0.03c-0.31,0.04-0.48,0.21-0.5,0.52
	c0,0,0.03-0.04,0.03-0.04c-0.58,0.18-0.68,0.62-0.61,1.15c-0.03,0.14-0.11,0.22-0.25,0.25c-0.37,0.01-0.62,0.16-0.67,0.56
	c0,0,0.02-0.02,0.02-0.02c-0.35-0.02-0.52,0.15-0.51,0.51c0,0,0.02-0.02,0.02-0.02c-0.35-0.02-0.52,0.15-0.51,0.51
	c0,0,0.02-0.02,0.02-0.02c-0.35-0.02-0.52,0.15-0.51,0.51c0,0,0.02-0.02,0.02-0.02c-0.35-0.02-0.52,0.15-0.51,0.51
	c0,0,0.02-0.02,0.02-0.02c-0.41,0.05-0.56,0.3-0.56,0.69c-0.03,0.14-0.11,0.22-0.25,0.24c-0.53-0.08-0.97,0.02-1.16,0.6
	c0,0,0.04-0.03,0.04-0.03c-0.31,0.03-0.48,0.2-0.52,0.51c0,0,0.03-0.01,0.03-0.01c-0.94,0.04-1.47,0.5-1.52,1.45
	c0,0,0.02-0.02,0.02-0.02c-0.34,0-0.52,0.16-0.51,0.51c0,0,0.02-0.02,0.02-0.02c-0.34-0.01-0.53,0.15-0.51,0.51l0.01-0.01
	c-0.5-0.13-0.83,0.05-0.98,0.55c0,0,0.05-0.02,0.05-0.02c-0.66-0.02-1.05,0.26-1.04,0.96c0,0,0.02-0.02,0.02-0.02
	c-0.34,0-0.52,0.15-0.51,0.51l0.02-0.01c-0.49-0.11-0.84,0.03-0.98,0.54c0,0,0.05-0.02,0.05-0.02c-0.65-0.01-1.06,0.24-1.04,0.96
	l0.01-0.01c-0.48-0.09-0.84,0.03-0.98,0.54c0,0,0.04-0.02,0.04-0.02c-0.66-0.01-1.08,0.22-1.04,0.96c0,0,0.01-0.01,0.01-0.01
	c-0.8-0.13-1.41,0.03-1.49,0.99l0.02-0.01c-0.78-0.1-1.42,0.02-1.49,0.99c0,0,0.02-0.01,0.02-0.01c-0.77-0.09-1.45-0.02-1.49,0.99
	l0.02-0.01c-0.47-0.1-0.87-0.05-1,0.51c0,0,0.02-0.01,0.02-0.01c-1.11,0.02-2.13,0.17-2.47,1.48c0,0,0.02-0.01,0.02-0.01
	c-1.76,0.08-1.69-1.13-1.57-2.3c0.57-5.9,1.12-11.81,1.74-17.7c0.88-8.32,1.82-16.63,2.73-24.94c0.96-8.72,1.96-17.43,2.82-26.16
	c0.17-1.69,0.88-1.95,2.32-1.94C162.15,156.71,168.91,156.67,175.67,156.67z"/>
<path class="st6" d="M126.3,73.87c-5.5-1.86-8.62-0.3-10.17,5.21c-0.74,2.62-2.92,3.93-4.98,5.66c0-4.93-0.12-9.87,0.05-14.79
	c0.08-2.33-0.55-3.06-2.95-3.03c-9.14,0.15-18.28,0.07-27.42,0.08c-0.02-3.18-0.05-6.37-0.04-9.55c0.01-3.49,1.45-5.32,4.85-6.04
	c0.82-0.17,1.27-0.44,1.46-1.32c0.93-4.27,2.12-5.72,6.24-5.86c5.76-0.2,11.54-0.5,17.32,0.21c1.31,0.16,2.57,0.53,3.24,1.38
	c1.33,1.7,2.98,1.66,4.79,1.65c5.59-0.04,7.66,2.02,7.66,7.56C126.34,61.3,126.31,67.58,126.3,73.87z"/>
<path class="st3" d="M89.02,131.14c1.97,3.36,3.92,6.72,7.07,9.18c12.28,9.6,29.85,4.81,35.52-9.72c0.18-0.45,0.38-0.9,0.57-1.34
	c1.67,1.4,3.35,2.8,5.02,4.2c-0.21,1.12-0.44,2.24-0.64,3.36c-1.18,6.43-3.4,12.46-7.48,17.61c-5.46,6.88-12.23,11.09-21.46,9.04
	c-5.59-1.24-9.75-4.75-13.16-9.21c-4.74-6.21-6.82-13.45-7.99-21.02C87.32,132.55,88.17,131.84,89.02,131.14z"/>
<path class="st4" d="M159.63,123.4c0.98-0.22,1.95-0.44,2.93-0.67c6.34,0.04,12.68,0.09,19.02,0.13c-2.25,2.19-2.29,2.36,0.13,4.21
	c4.25,3.25,5.35,7.43,4.22,12.52c-0.73,3.27-3.2,4.92-5.54,6.76c-0.76,0.59-1.6,1.1-2.47,1.51c-3.43,1.59-4.18,4.38-3.58,7.8
	c-5.58-0.01-11.17-0.01-16.75-0.02c-0.02-5.04-0.03-10.07-0.05-15.11c0.03-3.8,0.14-7.61,0.04-11.41
	C157.53,126.89,158.02,124.98,159.63,123.4z"/>
<path class="st4" d="M9.76,174.32c5.13,0.83,10.26,1.65,15.39,2.48c0.64,0.1,1.29,0.2,1.91,0.39c1.16,0.36,1.29,1.32,1.28,2.36
	c-0.01,1.24-0.8,1.74-1.82,1.94c-2.14,0.43-4.29,0.78-6.44,1.5c2.65,0.39,5.29,0.78,7.94,1.17c1.5,0.22,3.07,0.5,3.1,2.44
	c0.03,1.95-1.43,2.24-3.01,2.45c-1.91,0.25-3.79,0.68-5.65,1.31c2.81,0.4,5.63,0.76,8.43,1.22c1.35,0.22,2.8,0.41,2.81,2.38
	c0,1.94-1.33,2.12-2.74,2.42c-1.88,0.4-3.85,0.37-5.94,1.3c1.9,0.27,3.51,0.49,5.11,0.72c1.15,0.17,2.04,0.63,2.09,1.96
	c0.06,1.37-0.79,1.78-1.98,1.97c-4.71,0.75-9.38,2.2-14.22,0.87c-4.21-1.62-6.31-4.95-7.62-9.06c-1.29-4.06-2.97-8-4.26-12.06
	C2.22,176.04,3.53,174.33,9.76,174.32z"/>
<path class="st7" d="M40.57,224.32c2.6-2.69,5.16-5.41,7.8-8.05c6.34-6.34,12.71-12.64,19.07-18.95c1.23,3.7,2,7.5,2.41,11.38
	c-5.37,5.02-10.55,10.24-15.6,15.59c-0.13,0.06-0.27,0.1-0.41,0.11c-4.3,0-8.6,0.01-12.9,0.01
	C40.8,224.42,40.68,224.39,40.57,224.32z"/>
<path class="st7" d="M86.47,133.25c1.17,7.57,3.25,14.81,7.99,21.02c3.41,4.46,7.57,7.97,13.16,9.21c9.22,2.05,16-2.16,21.46-9.04
	c4.09-5.15,6.31-11.18,7.48-17.61c0.21-1.12,0.43-2.24,0.64-3.36c0.77,0.43,1.55,0.85,2.32,1.28c-0.99,3.17-1.36,6.5-2.49,9.64
	c-2,5.59-4.75,10.74-9.05,14.89c-10.86,10.49-25.58,9.17-35.03-3.06c-4.59-5.94-7.12-12.73-8.32-20.07
	c-0.09-0.55,0.04-1.16-0.47-1.58C84.92,134.11,85.45,133.25,86.47,133.25z"/>
<path class="st4" d="M181.58,122.86c-6.34-0.04-12.68-0.09-19.02-0.13c7.04-3.73,14.45-6.65,21.63-10.07
	c2.05-0.98,4.14-1.88,6.22-2.79c2.68-1.17,4.39-0.96,5.13,0.72c1.04,2.38-0.56,3.55-2.26,4.71c-3.42,2.32-6.81,4.71-10.21,7.07
	C182.58,122.53,182.08,122.7,181.58,122.86z"/>
<path class="st6" d="M54.24,224.29c5.05-5.35,10.23-10.56,15.6-15.59c1.01,4.89,2.01,9.79,3.02,14.69c0.11,0.51,0.51,0.54,0.91,0.58
	c-3.24,0.88-6.57,0.02-9.83,0.5C60.71,224.41,57.47,224.35,54.24,224.29z"/>
<path class="st8" d="M157.6,155.64c5.58,0.01,11.17,0.01,16.75,0.02c0.58,0.16,1.63-0.3,1.33,1.01c-6.76,0-13.52,0.03-20.28-0.01
	c-1.44-0.01-2.16,0.25-2.32,1.94c-0.86,8.73-1.87,17.44-2.82,26.16c-0.91,8.31-1.85,16.63-2.73,24.94c-0.62,5.9-1.17,11.8-1.74,17.7
	c-0.11,1.17-0.18,2.38,1.57,2.3c-2.37,1.8-4.99,3.11-7.86,3.93c0.06-0.14,0.1-0.4,0.2-0.42c6.15-1.45,5.19-6.59,5.67-10.95
	c1.13-10.26,2.26-20.53,3.34-30.8c1.05-9.95,2.05-19.9,3.08-29.85c0.02-0.16,0.01-0.33,0.02-0.49
	C152.27,155.79,152.27,155.79,157.6,155.64z"/>
<path class="st6" d="M114.5,113.57c-2.62,6.02-7.49,9.07-13.71,10.26c-1.98,0.38-4,0.52-6,0c0.14-1.82,1.57-3.37,1.09-5.31
	c1.05,0.02,2.1-0.03,3.14,0.06c4.18,0.34,7.95-0.72,11.46-3.02c1.24-0.81,2.37-2,4.04-1.96L114.5,113.57z"/>
<path class="st8" d="M63.99,232.62c9.15,4.25,18.72,6.89,28.77,7.89c15.44,1.54,30.31-0.6,44.64-6.53c0.69-0.28,1.37-0.53,2.12-0.36
	c-5.17,2.91-10.84,4.39-16.52,5.83c-8.63,2.19-17.48,2.77-26.28,2.36c-6.54-0.3-13.07-1.48-19.48-3.28
	c-6.51-1.83-12.65-4.43-18.66-7.42c-1.45-0.72-2.81-1.65-4.09-2.74c3.17,0.84,5.74,3.06,8.85,4.02
	C63.56,232.47,63.77,232.54,63.99,232.62z"/>
<path class="st9" d="M61.47,67.15c-1.64-0.94-3.32-1.43-5.03-0.19c-1.2,0.87-1.8,2.07-1.69,3.59c0.15,2.08,1.73,2.94,3.41,4.05
	c-3.83-1.28-5.09,1.93-7.08,3.74c-1.72,1.57-3.27,3.34-5.01,5.14c-0.84-1.25,0.01-1.65,0.44-2.08c2.29-2.33,4.57-4.67,6.94-6.92
	c0.85-0.8,1.14-1.48,0.8-2.68c-0.93-3.25-0.12-4.87,3.13-6.17c1.29-0.51,0.89-1.41,0.9-2.19c0.04-5.8,0.01-11.59,0.04-17.39
	c0-0.77-0.27-1.61,0.44-2.47c0.63,0.63,0.38,1.38,0.38,2.01c0.03,5.22,0.14,10.45-0.04,15.67c-0.09,2.51,0.12,4.54,2.8,5.49
	C61.74,66.88,61.61,67.01,61.47,67.15z"/>
<path class="st9" d="M175.39,205.28c0.14-0.69,0.28-1.38,0.43-2.06c4.11-4.58,6.8-10.03,9.4-15.51c3.24-6.82,5.6-13.97,6.94-21.41
	c0.69-3.85,1.06-7.75,1.58-11.63c0.19,0.01,0.37,0.02,0.56,0.04c-0.41,9.87-2.52,19.38-6.17,28.55
	c-2.91,7.31-6.59,14.21-11.28,20.54C176.44,204.33,176.28,205.2,175.39,205.28z"/>
<path class="st9" d="M29.59,92.88c-4.96,7.3-9.4,14.84-12.63,23.08c-3.18,8.11-5.05,16.53-6.38,25.08
	C10.58,125.44,18.21,106.9,29.59,92.88z"/>
<path class="st9" d="M36.8,46.19c4.23-4.67,9.79-6.83,15.76-7.92c10.45-1.9,19.72,0.89,27.85,7.66c0.44,0.36,0.98,0.6,1.27,1.13
	c-2.21,0.58-2.97-1.33-4.19-2.19c-9.53-6.7-19.61-8.15-30.58-4.08c-3.64,1.35-6.59,3.68-9.74,5.75
	C37.05,46.42,36.92,46.31,36.8,46.19z"/>
<path class="st9" d="M34.73,48.98c-2.5,3.67-5.13,7.28-6.39,11.63c-3.21,11.01-1.2,20.98,6,29.9c0.36,0.44,0.82,0.8,0.88,1.43
	c-0.12,0.11-0.23,0.22-0.34,0.34c-2.7-1.87-4.01-4.78-5.43-7.53c-2.19-4.25-3.49-8.9-3.57-13.61c-0.1-5.89,1.18-11.64,4.23-16.82
	c1.21-2.05,2.23-4.27,4.27-5.71C34.5,48.73,34.61,48.86,34.73,48.98z"/>
<path class="st9" d="M36.69,93.41c3.22,2.13,6.14,4.67,9.85,6.09c8.97,3.44,17.7,3.3,26.29-1.14c0.63-0.33,1.28-0.63,1.93-0.91
	c0.1-0.04,0.28,0.11,0.7,0.28c-2.46,1.98-5.19,3.06-8.01,3.77c-9.39,2.35-18.33,1.39-26.6-3.93c-1.67-1.07-3.39-2.11-4.54-3.81
	C36.43,93.64,36.56,93.52,36.69,93.41z"/>
<path class="st9" d="M11.5,147.57c11.39,0,22.78,0,34.16,0c0,0.13,0,0.26,0,0.39c-11.37,0-22.73,0-34.1,0
	C11.54,147.83,11.52,147.7,11.5,147.57z"/>
<path class="st9" d="M142.33,70.52c1.3,9.68,7.4,14.39,16.67,15.82c-7.78,1.21-16.71-6.18-17.11-14.32
	C141.98,71.5,141.88,70.93,142.33,70.52z"/>
<path class="st9" d="M142.11,64.57c1.7-8.7,10.55-13.78,16.89-12.59c-8.02,0.88-13.67,4.73-16.13,12.59
	C142.62,64.57,142.37,64.57,142.11,64.57z"/>
<path class="st9" d="M222.36,120.01c-3.07,3.46-8.5,5.68-12.33,4.92c1.21-0.94,2.6-0.61,3.78-0.88c3.17-0.72,5.46-2.93,8.19-4.37
	C222.12,119.78,222.24,119.9,222.36,120.01z"/>
<path class="st9" d="M221.53,95.26c-2.15-1.29-4.26-2.64-6.64-3.56c-1.53-0.59-3.13-0.58-4.88-1.01c2.92-1.25,8.93,0.98,11.87,4.19
	C221.77,95.01,221.65,95.13,221.53,95.26z"/>
<path class="st5" d="M194.29,154.71c-0.19-0.01-0.37-0.02-0.56-0.04c-0.5-0.73-0.53-1.62-0.28-2.35c0.65-1.91,0.52-3.73,0-5.64
	c-0.22-0.82-0.26-1.84,0.85-2.64C194.29,147.6,194.29,151.15,194.29,154.71z"/>
<path class="st10" d="M142.11,64.57c0.25,0,0.51,0,0.76,0c-0.56,1.95-0.43,3.96-0.55,5.95c-0.44,0.41-0.35,0.98-0.44,1.5
	C141.18,69.51,141.05,67.03,142.11,64.57z"/>
<path class="st11" d="M40.93,224.42c4.3,0,8.6-0.01,12.9-0.01C49.53,225.04,45.23,225.02,40.93,224.42z"/>
<path class="st9" d="M62.65,67.94c0.95,1.24,1.21,2.51-0.12,4.53c0.02-1.82,0.26-3.07-0.28-4.18
	C62.38,68.18,62.51,68.06,62.65,67.94z"/>
<path class="st8" d="M147.34,229.71c0.33-1.31,1.36-1.46,2.47-1.48C149.25,229.16,148.34,229.51,147.34,229.71z"/>
<path class="st8" d="M162.53,218.93c0.06-0.96,0.59-1.42,1.52-1.45C164.08,218.52,163.31,218.73,162.53,218.93z"/>
<path class="st9" d="M61.17,73.96c-0.45,0.76-1.04,1.06-1.92,0.67c0.29-0.89,1.08-0.68,1.58-0.99
	C60.95,73.75,61.06,73.86,61.17,73.96z"/>
<path class="st9" d="M60.83,73.64c0.52-0.43,0.84-1.12,1.63-1.29c0.14,1.04-0.45,1.43-1.3,1.61C61.06,73.86,60.95,73.75,60.83,73.64
	z"/>
<path class="st8" d="M150.77,227.75c0.04-1.02,0.71-1.08,1.49-0.99C151.98,227.41,151.43,227.66,150.77,227.75z"/>
<path class="st8" d="M152.24,226.77c0.07-0.97,0.7-1.09,1.49-0.99C153.45,226.43,152.9,226.68,152.24,226.77z"/>
<path class="st8" d="M153.71,225.79c0.07-0.96,0.68-1.12,1.49-0.99C154.92,225.46,154.37,225.7,153.71,225.79z"/>
<path class="st9" d="M61.88,66.75c0.44,0.28,0.74,0.65,0.77,1.19c-0.13,0.12-0.26,0.24-0.39,0.35c-0.26-0.38-0.52-0.77-0.78-1.15
	C61.61,67.01,61.74,66.88,61.88,66.75z"/>
<path class="st8" d="M157.14,223.34c-0.02-0.72,0.38-0.97,1.04-0.96C158.3,223.2,157.68,223.23,157.14,223.34z"/>
<path class="st8" d="M159.59,221.38c0-0.7,0.39-0.98,1.04-0.96C160.77,221.27,160.14,221.28,159.59,221.38z"/>
<path class="st8" d="M155.18,224.81c-0.05-0.74,0.38-0.97,1.04-0.96C156.32,224.65,155.7,224.68,155.18,224.81z"/>
<path class="st8" d="M170.39,211.12c0-0.66,0.29-1.03,0.99-1C171.39,210.78,171.17,211.22,170.39,211.12z"/>
<path class="st8" d="M158.13,222.4c0.14-0.52,0.5-0.65,0.98-0.54C158.9,222.25,158.76,222.76,158.13,222.4z"/>
<path class="st8" d="M160.58,220.45c0.15-0.5,0.48-0.67,0.98-0.55C161.33,220.26,161.23,220.83,160.58,220.45z"/>
<path class="st8" d="M156.17,223.87c0.14-0.52,0.5-0.64,0.98-0.54C156.94,223.72,156.8,224.23,156.17,223.87z"/>
<path class="st8" d="M169.33,212.73c-0.08-0.53,0.02-0.97,0.61-1.15C170.34,212.28,169.58,212.37,169.33,212.73z"/>
<path class="st5" d="M63.09,149.38c-0.33-0.12-0.27-0.32-0.07-0.49c0.08-0.06,0.35-0.05,0.37,0c0.13,0.31-0.1,0.39-0.34,0.44
	L63.09,149.38z"/>
<path class="st8" d="M149.78,228.24c0.13-0.56,0.53-0.6,1-0.51C150.64,228.28,150.18,228.2,149.78,228.24z"/>
<path class="st8" d="M172.33,209.13c-0.11-0.49,0.06-0.82,0.55-0.98C173.26,208.79,172.7,208.91,172.33,209.13z"/>
<path class="st8" d="M164.5,217.01c0.19-0.58,0.63-0.68,1.16-0.6C165.3,216.65,165.2,217.41,164.5,217.01z"/>
<path class="st9" d="M174.79,206.19c-0.09-0.48,0.03-0.84,0.58-0.93C175.56,205.81,175.21,206.03,174.79,206.19z"/>
<path class="st9" d="M174.3,206.69c0.01-0.32,0.16-0.51,0.5-0.51C174.78,206.5,174.61,206.66,174.3,206.69z"/>
<path class="st11" d="M63.99,232.62c-0.21-0.08-0.43-0.15-0.64-0.23c0.19-0.09,0.37-0.17,0.56-0.26
	C63.93,232.3,63.96,232.46,63.99,232.62z"/>
<path class="st9" d="M173.83,207.2c0.02-0.31,0.16-0.5,0.48-0.52C174.27,206.96,174.3,207.3,173.83,207.2z"/>
<path class="st9" d="M173.39,207.73c-0.01-0.32,0.14-0.5,0.46-0.54C173.96,207.6,173.85,207.82,173.39,207.73z"/>
<path class="st8" d="M159.1,221.87c-0.01-0.35,0.17-0.51,0.51-0.51C159.44,221.53,159.27,221.7,159.1,221.87z"/>
<path class="st8" d="M161.55,219.91c-0.02-0.36,0.17-0.51,0.51-0.51C161.89,219.57,161.72,219.74,161.55,219.91z"/>
<path class="st8" d="M162.04,219.42c-0.01-0.35,0.17-0.51,0.51-0.51C162.38,219.08,162.21,219.25,162.04,219.42z"/>
<path class="st8" d="M164.02,217.49c0.03-0.31,0.2-0.48,0.52-0.51C164.72,217.51,164.52,217.65,164.02,217.49z"/>
<path class="st5" d="M58.7,153.78c0.02-0.2,0.04-0.4,0.06-0.61c0.14,0.04,0.28,0.07,0.43,0.11c0,0-0.05-0.04-0.05-0.04
	c-0.16,0.16-0.32,0.33-0.49,0.49C58.65,153.74,58.7,153.78,58.7,153.78z"/>
<path class="st5" d="M59.62,152.76c-0.16,0.16-0.33,0.33-0.49,0.49c0,0,0.05,0.04,0.05,0.04c0.02-0.2,0.04-0.4,0.06-0.6
	c0.14,0.04,0.28,0.08,0.42,0.11C59.67,152.8,59.62,152.76,59.62,152.76z"/>
<path class="st5" d="M60.11,152.27c-0.16,0.16-0.33,0.33-0.49,0.49c0,0,0.05,0.04,0.05,0.04c0.02-0.2,0.04-0.4,0.07-0.6
	c0.14,0.04,0.28,0.08,0.42,0.11L60.11,152.27z"/>
<path class="st5" d="M60.16,152.31c0.02-0.2,0.04-0.4,0.06-0.6c0.14,0.04,0.28,0.08,0.43,0.11l-0.05-0.04
	c-0.16,0.16-0.33,0.33-0.49,0.49C60.11,152.27,60.16,152.31,60.16,152.31z"/>
<path class="st8" d="M165.91,216.17c0-0.38,0.15-0.64,0.56-0.69C166.28,215.71,166.09,215.94,165.91,216.17z"/>
<path class="st5" d="M60.65,151.82c0.02-0.2,0.04-0.4,0.06-0.6c0.14,0.04,0.28,0.08,0.43,0.11l-0.05-0.04
	c-0.16,0.16-0.33,0.33-0.49,0.49C60.6,151.78,60.65,151.82,60.65,151.82z"/>
<path class="st5" d="M61.14,151.33c0.02-0.2,0.04-0.4,0.06-0.6c0.14,0.04,0.28,0.08,0.43,0.11c0,0-0.05-0.04-0.05-0.04
	c-0.16,0.16-0.33,0.33-0.49,0.49C61.09,151.29,61.14,151.33,61.14,151.33z"/>
<path class="st5" d="M62.07,150.31c-0.16,0.16-0.33,0.33-0.49,0.49c0,0,0.05,0.04,0.05,0.04c0.02-0.2,0.04-0.4,0.07-0.6
	c0.14,0.04,0.28,0.08,0.42,0.11C62.12,150.35,62.07,150.31,62.07,150.31z"/>
<path class="st5" d="M62.56,149.82c-0.16,0.16-0.33,0.33-0.49,0.49c0,0,0.05,0.04,0.05,0.04c0.02-0.2,0.04-0.4,0.07-0.6
	c0.14,0.04,0.28,0.08,0.43,0.11C62.61,149.86,62.56,149.82,62.56,149.82z"/>
<path class="st5" d="M63.05,149.33c-0.16,0.16-0.33,0.33-0.49,0.49c0,0,0.05,0.04,0.05,0.04c0.02-0.2,0.04-0.4,0.06-0.59
	c0.14,0.04,0.28,0.07,0.42,0.11C63.09,149.38,63.05,149.33,63.05,149.33z"/>
<path class="st12" d="M49.83,147.37c0.08,0.11,0.11,0.23,0.1,0.36c-0.14-0.03-0.28-0.05-0.42-0.08
	C49.62,147.56,49.72,147.47,49.83,147.37z"/>
<path class="st8" d="M166.45,215.5c-0.02-0.36,0.15-0.52,0.51-0.51C166.79,215.16,166.62,215.33,166.45,215.5z"/>
<path class="st9" d="M36.31,93.75c-0.16-0.16-0.33-0.33-0.49-0.49c0.13-0.12,0.25-0.23,0.38-0.35c0.16,0.16,0.33,0.33,0.49,0.49
	C36.56,93.52,36.43,93.64,36.31,93.75z"/>
<path class="st9" d="M35.71,92.43c0.16,0.16,0.33,0.33,0.49,0.49c-0.13,0.12-0.25,0.23-0.38,0.35c-0.16-0.16-0.33-0.33-0.49-0.49
	C35.45,92.66,35.58,92.54,35.71,92.43z"/>
<path class="st9" d="M35.32,92.77c-0.15-0.16-0.3-0.33-0.44-0.49c0.11-0.12,0.22-0.23,0.34-0.34c0.16,0.16,0.33,0.32,0.49,0.48
	C35.58,92.54,35.45,92.66,35.32,92.77z"/>
<path class="st8" d="M166.94,215.01c-0.02-0.36,0.15-0.52,0.51-0.51C167.28,214.67,167.11,214.84,166.94,215.01z"/>
<path class="st8" d="M167.43,214.52c-0.02-0.36,0.15-0.52,0.51-0.51C167.77,214.18,167.6,214.35,167.43,214.52z"/>
<path class="st8" d="M167.92,214.03c-0.02-0.35,0.15-0.52,0.51-0.51C168.25,213.69,168.09,213.86,167.92,214.03z"/>
<path class="st8" d="M168.4,213.54c0.05-0.4,0.3-0.55,0.67-0.56C168.85,213.17,168.63,213.35,168.4,213.54z"/>
<path class="st9" d="M172.94,208.24c-0.04-0.34,0.12-0.51,0.46-0.52C173.51,208.13,173.37,208.32,172.94,208.24z"/>
<path class="st8" d="M169.9,211.62c0.03-0.31,0.19-0.49,0.5-0.52C170.51,211.53,170.47,211.82,169.9,211.62z"/>
<path class="st8" d="M171.36,210.13c0-0.33,0.14-0.52,0.49-0.52C171.8,209.88,171.79,210.2,171.36,210.13z"/>
<path class="st8" d="M171.84,209.62c-0.01-0.35,0.16-0.52,0.51-0.51C172.18,209.28,172.01,209.45,171.84,209.62z"/>
<path class="st9" d="M35.22,48.49c-0.16,0.16-0.33,0.33-0.49,0.49c-0.12-0.13-0.23-0.25-0.35-0.38c0.16-0.16,0.33-0.33,0.49-0.49
	C34.99,48.24,35.1,48.37,35.22,48.49z"/>
<path class="st9" d="M34.87,48.11c0.16-0.16,0.33-0.33,0.49-0.49c0.12,0.13,0.23,0.25,0.35,0.38c-0.16,0.16-0.33,0.33-0.49,0.49
	C35.1,48.37,34.99,48.24,34.87,48.11z"/>
<path class="st9" d="M35.36,47.62c0.16-0.16,0.33-0.33,0.49-0.49c0.12,0.13,0.23,0.25,0.35,0.38c-0.16,0.16-0.33,0.33-0.49,0.49
	C35.59,47.88,35.48,47.75,35.36,47.62z"/>
<path class="st9" d="M35.85,47.13c0.16-0.16,0.33-0.33,0.49-0.49c0.11,0.13,0.23,0.25,0.34,0.38c-0.16,0.16-0.33,0.33-0.49,0.49
	C36.08,47.39,35.97,47.26,35.85,47.13z"/>
<path class="st9" d="M36.34,46.64c0.15-0.15,0.3-0.3,0.45-0.45c0.13,0.12,0.25,0.23,0.38,0.35c-0.16,0.16-0.32,0.32-0.49,0.49
	C36.57,46.9,36.46,46.77,36.34,46.64z"/>
<path class="st6" d="M91.03,86.54c-0.96,2.82-1.88,5.65-2.88,8.45c-0.67,1.89-1.37,3.74,0.49,5.38c1.77,1.56,3.44,0.92,5.09-0.24
	c0.26-0.18,0.58-0.3,0.89-0.04c-2.04,2.04-4.16,2.56-6,1.31c-2.06-1.4-2.36-3.33-1.55-5.6c1.14-3.15,2.21-6.33,3.3-9.5
	C90.6,86.38,90.81,86.46,91.03,86.54z"/>
<path class="st13" d="M122.39,88.84c-0.37,0.75-0.89,1.61-1.65,1.59c-0.84-0.02-1.72-0.81-1.64-1.7c0.06-0.7,0.83-1.54,1.65-1.49
	C121.53,87.29,122.04,88.09,122.39,88.84z"/>
<path class="st6" d="M114.52,113.59c0.02-0.07,0.04-0.15,0.06-0.22c-0.03,0.07-0.06,0.13-0.08,0.2
	C114.5,113.57,114.52,113.59,114.52,113.59z"/>
<path class="st6" d="M159.05,58.13c6.18-0.03,11.1,4.73,11.2,10.85c0.1,5.92-4.97,11.06-11.02,11.18c-5.92,0.12-11.13-5-11.17-11
	C148.02,63.05,152.88,58.16,159.05,58.13z"/>
<path class="st14" d="M221.13,107.55c0.07,6.04-4.86,11.08-10.95,11.17c-5.98,0.09-11.12-4.93-11.22-10.95
	c-0.09-5.95,4.97-11.08,11.01-11.16C216.03,96.53,221.06,101.46,221.13,107.55z"/>
</svg>
