<?xml version="1.0" encoding="utf-8"?>
<!-- Generator: Adobe Illustrator 24.1.3, SVG Export Plug-In . SVG Version: 6.00 Build 0)  -->
<svg version="1.1" id="Layer_1" xmlns="http://www.w3.org/2000/svg" xmlns:xlink="http://www.w3.org/1999/xlink" x="0px" y="0px"
	 viewBox="0 0 230.8 257.1" style="enable-background:new 0 0 230.8 257.1;" xml:space="preserve">
<style type="text/css">
	.st0{fill:#E7E7E7;}
	.st1{fill:#3C4750;}
	.st2{fill:#FEFEFE;}
	.st3{fill:#C66A98;}
	.st4{fill:#00838F;}
	.st5{fill:#FDB87E;}
	.st6{fill:#FDFDFD;}
	.st7{fill:#4F6D78;}
	.st8{fill:#B7BFC3;}
	.st9{fill:#FFD0CA;}
	.st10{fill:#FFFBE9;}
</style>
<g>
	<path class="st0" d="M157.99,220.26c0.15-0.15,0.3-0.3,0.44-0.45c1.05-0.39,1.77-1.12,2.04-2.38c-0.78,0.69-1.56,1.38-2.34,2.08
		c-0.17,0.15-0.35,0.3-0.52,0.45c-0.08,0.17-0.27,0.45-0.22,0.5C157.68,220.76,157.84,220.51,157.99,220.26z"/>
	<path class="st0" d="M163.9,98.76c0.14,0.14,0.28,0.28,0.42,0.42c0.64,1.56,1.82,2.64,3.19,3.54c0.22,0.8,0.75,1.39,1.26,2.02
		c6.33,7.81,11.15,16.45,14.18,26.06c-6.84,0.01-13.67,0.03-20.51,0.04c-3.05,0-5.88,0.62-8.19,2.8c-1.09-0.17-1.74-1.06-2.58-1.62
		c-4.76-3.16-10.21-4.34-15.65-5.52c-3.27-0.71-6.41-2.03-9.81-2.11c-0.73-2.14,0.01-4.27,0.33-6.32c0.18-1.14,2.06-1.21,3.09-1.9
		c4.2-2.82,6.18-7.71,2.9-12.38c5.34-10.64-0.57-22.66-10.38-24.95c-0.84-0.2-1.31-0.86-1.52-1.69c-1.21-4.93-4.41-8.09-8.88-10.2
		c-1.85-0.88-3.24-0.88-4.73,0.86c-2.01,2.35-4.35,4.41-6.83,6.87c0-1.87-0.09-3.21,0.02-4.53c0.12-1.48-0.59-1.58-1.72-1.28
		c-3.7,0.99-6.89,2.83-8.75,6.27c-1.67,3.1-3.61,5.78-6.07,8.41c-5.34,5.73-6.4,12.71-2.55,20.06c-2.69,4.83-1.76,8.17,1.15,11.18
		c2.75,2.85,5.05,6.6,5.8,10.13c0.01,0.07,0,0.15,0,0.22c-0.14,0.03-0.28,0.03-0.42,0.01c-0.42-1.51-1.48-0.81-2.32-0.62
		c-4.66,1.08-9.33,2.12-13.95,3.33c-7.58,1.99-13.95,5.83-18.24,12.6c-6.05,9.55-11.61,19.4-17.33,29.15
		c-1.94,3.31-4.36,6.38-5.37,10.18c-1.78,0.82-3.28,2.17-5.18,2.76c-4.04-12.6-5.2-25.42-3.24-38.53c1.32-8.77,3.99-17.09,7.98-25
		c6.07-0.01,12.13-0.02,18.2-0.05c1.33-0.01,2.66,0.06,3.96-0.34c6.51-1.98,10.02-6.87,10.17-13.44
		c0.14-6.06-4.37-11.39-10.64-13.03c8.87-7.62,19.2-12.52,30.28-16.03c-0.29-0.22-0.51-0.31-0.7-0.27c-0.5,0.1-1,0.26-1.49,0.4
		c-7.23,1.98-13.94,5.19-20.31,9.05c-3.05,1.85-6.03,3.89-8.6,6.42c-0.74,0.03-1.47,0.08-2.21,0.08c-13,0.01-26.01,0.19-39-0.09
		c-5.01-0.11-8.95,2.01-11.21,5.69c-2.51,4.09-3.71,9.09-1.08,13.98c1.26,2.35,3.02,4.45,5.1,5.9c2.11,1.47,4.88,1.75,7.59,1.71
		c6.2-0.09,12.41,0,18.61,0.01c0.09,0.17,0.18,0.34,0.27,0.5c-0.38,0.71-0.79,1.4-1.12,2.13c-3.65,7.92-5.88,16.26-6.98,24.88
		c-0.6,4.7-1.02,9.5-0.57,14.2c0.72,7.64,1.95,15.23,4.44,22.55c-4.64,4.22-6.66,9.45-6.23,15.72c0.4,5.83,2.61,10.73,7.41,14.11
		c3.85,2.71,8.27,3.86,13.03,3.42c2.34,0.04,4.67,0.07,7.01,0.11c1.42,2.2,3.68,3.54,5.61,5.18c3.33,2.82,7,5.2,10.81,7.36
		c6.08,3.45,12.48,6.13,19.24,7.91c4.9,1.3,9.85,2.27,14.91,2.74c4.21,0.39,8.38,0.28,12.72,0.19c-0.53-1.09-1.3-0.75-1.88-0.72
		c-10.46,0.46-20.64-1.05-30.51-4.52c-11.16-3.92-21.14-9.81-29.61-18.14c7.96-0.01,15.92-0.01,23.88-0.04
		c0.84,0,1.79,0.33,2.51-0.45c22.17,0,44.33,0,66.5,0c0.65,0.73,1.52,0.44,2.29,0.45c6.2,0.03,12.41,0.02,18.61,0.03
		c0.01,0.29-0.48,0.72,0.07,0.82c0.4,0.07,0.7-0.38,0.87-0.79c3.03-0.03,6.06-0.04,9.09-0.1c1.23-0.02,2.52,0.38,3.66-0.43
		c2.86,1.46,5.67-0.75,8.52-0.1c0.7-1.93,2.6-1.58,4.03-2.1c0.69-0.25,1.24-0.52,1.26-1.32c0.02-0.76,0.48-1.39,1.03-1.6
		c1.99-0.73,2.44-2.46,3.24-4.13c1.83-3.81,3.23-7.76,2.13-11.89c-1.02-3.82-0.64-8.5-5.12-10.73c-0.06-0.03-0.13-0.1-0.14-0.16
		c-0.53-2.27-3.02-2.45-4.25-3.97c-0.75-1.02-0.45-2.09-0.18-3.17c1.54-6.21,2.52-12.5,2.51-18.92c9.09-0.02,18.19-0.06,27.28-0.06
		c1.79,0,3.54-0.17,5.2-0.84c6.2-2.51,9.85-8.82,8.73-14.98c-1.24-6.81-6.79-11.34-13.88-11.36c-10.43-0.02-20.85-0.05-31.28-0.08
		c-1.87-5.66-4.15-11.14-7.23-16.25c-2.58-4.28-5.15-8.58-8.8-12.09c-0.65-1.53-1.91-2.51-3.12-3.55c-0.15-0.15-0.29-0.3-0.44-0.45
		c-0.15-0.15-0.29-0.3-0.44-0.45c-0.15-0.15-0.3-0.3-0.44-0.44c-0.15-0.15-0.3-0.3-0.44-0.44c-0.15-0.15-0.3-0.3-0.44-0.44
		c-0.15-0.15-0.3-0.29-0.45-0.44c-1.2-1.33-2.32-2.76-3.99-3.56c-0.29-0.33-0.55-0.7-0.88-0.97c-7.7-6.41-16.39-11.06-25.8-14.42
		c-0.45-0.16-1.06-0.52-1.66,0.21c7.28,2.46,14.01,5.88,20.39,9.97c2.63,1.69,5.08,3.67,7.61,5.52c1.14,1.42,2.28,2.84,4.02,3.58
		c0.15,0.15,0.3,0.3,0.45,0.45c0.15,0.15,0.3,0.3,0.44,0.44c0.15,0.15,0.3,0.3,0.44,0.44c0.15,0.15,0.3,0.3,0.44,0.44
		C163.6,98.46,163.75,98.61,163.9,98.76z"/>
	<path class="st0" d="M153.99,223.37c0.43-0.13,1.18-0.27,0.82-0.79c-0.33-0.47-0.76,0.24-1.12,0.5c-0.16,0.18-0.52,0.34-0.13,0.61
		C153.6,223.71,153.84,223.48,153.99,223.37z"/>
	<path class="st0" d="M151.9,224.34c-0.44,0.32-0.88,0.64-1.32,0.96c-0.44,0.3-0.89,0.59-1.33,0.89c-0.45,0.27-0.9,0.55-1.35,0.82
		c-0.74,0.44-1.48,0.89-2.22,1.33c-10.64,5.98-22,9.69-34.2,10.75c0.54,0.9,1.32,0.65,2.02,0.56c5.04-0.66,10.04-1.54,14.88-3.09
		c6.15-1.97,12.18-4.26,17.62-7.86c0.89-0.2,1.64-0.62,2.22-1.33c0.6-0.06,1.05-0.35,1.33-0.89c0.62-0.03,1.05-0.35,1.33-0.89
		c0.6-0.05,1.05-0.35,1.34-0.88c0.45-0.08,1.09-0.44,0.89-0.71C152.66,223.37,152.31,224.19,151.9,224.34z"/>
	<path class="st0" d="M155.77,222.04c0.69-0.19,1.32-0.44,1.29-1.38c-0.75,0.12-1.15,0.66-1.63,1.08c-0.15,0.19-0.5,0.37-0.1,0.61
		C155.39,222.39,155.62,222.15,155.77,222.04z"/>
	<path class="st0" d="M175.21,80.03c5.41,0,9.85,0.01,14.29,0c1.48,0,2.95-0.06,4.39-0.47c6.4-1.86,10.51-8.28,9.72-14.71
		c-0.85-6.86-6.62-11.95-13.57-12.01c-9.31-0.08-18.63-0.1-27.95,0.02c-3.23,0.04-6.21,1.05-8.7,3.36
		c-3.87,3.58-5.01,7.98-4.21,12.99c0.82,5.13,5.19,10.11,10.84,10.61C165.39,80.3,170.79,79.87,175.21,80.03z"/>
	<path class="st1" d="M126.21,124.39c3.4,0.08,6.55,1.39,9.81,2.11c5.44,1.19,10.89,2.36,15.65,5.52c0.84,0.56,1.49,1.45,2.58,1.62
		c3.44,3.25,6.52,6.76,8.85,10.95c2.53,4.57,5.36,8.98,8.06,13.46c2.01,3.5,4.07,6.98,6.03,10.52c2.06,3.73,4.7,7.14,6.09,11.23
		c-1-0.23-2-0.46-3-0.69c-7.24-1.66-15.74,1.72-19.32,7.69c-6.02,1.08-12.05,2.16-18.07,3.24c0.9-9.49,1.69-19,2.78-28.47
		c0.26-2.27-0.47-2.33-2.24-2.32c-24.36,0.04-48.71,0.03-73.07,0.03c-0.37,0-0.74,0.04-1.11-0.01c-1.12-0.13-1.35,0.35-1.22,1.41
		c0.34,2.79,0.57,5.59,0.83,8.39c0.66,6.99,1.31,13.98,1.97,20.98c-6.01-1.08-12.03-2.16-18.04-3.24c-1.86-3.09-4.63-5.11-7.84-6.55
		c-4.76-2.14-9.62-1.75-14.49-0.44c1.01-3.8,3.43-6.87,5.37-10.18c5.72-9.75,11.28-19.6,17.33-29.15
		c4.29-6.77,10.66-10.61,18.24-12.6c4.62-1.21,9.29-2.25,13.95-3.33c0.84-0.19,1.9-0.89,2.32,0.62c-0.04,2.8-0.21,5.61-0.11,8.41
		c0.26,6.83,3.33,12.11,9,15.93c1.15,0.77,1.91,0.88,2.95-0.26c1.98-2.19,4.2-4.16,6.23-6.31c0.88-0.93,1.4-0.9,2.26,0.01
		c2.03,2.15,4.22,4.14,6.23,6.31c0.92,0.99,1.61,1.13,2.76,0.38c5.05-3.29,8.2-7.81,8.99-13.82c0.47-3.6,0.23-7.23,0.13-10.85
		C126.13,124.77,126.17,124.58,126.21,124.39z"/>
	<path class="st2" d="M70.82,190.03c-0.66-6.99-1.31-13.98-1.97-20.98c-0.26-2.8-0.49-5.6-0.83-8.39c-0.13-1.06,0.1-1.54,1.22-1.41
		c0.36,0.04,0.74,0.01,1.11,0.01c24.36,0,48.71,0.01,73.07-0.03c1.76,0,2.5,0.05,2.24,2.32c-1.09,9.47-1.88,18.98-2.78,28.47
		c-0.32,3.15-0.63,6.3-0.97,9.45c-0.59,5.57-1.2,11.13-1.8,16.69c-22.17,0-44.33,0-66.5,0C72.68,207.46,71.75,198.75,70.82,190.03z
		 M106.85,193.58c3.23,0,5.77-2.55,5.76-5.77c-0.02-3.19-2.63-5.74-5.84-5.69c-3.09,0.04-5.63,2.59-5.67,5.66
		C101.05,190.95,103.66,193.58,106.85,193.58z"/>
	<path class="st3" d="M171.16,158.05c-2.7-4.48-5.53-8.89-8.06-13.46c-2.32-4.2-5.41-7.7-8.85-10.95c2.3-2.18,5.14-2.79,8.19-2.8
		c6.84-0.01,13.67-0.03,20.5-0.04c0.28-0.01,0.56-0.03,0.84-0.04c10.43,0.03,20.85,0.06,31.28,0.08
		c7.09,0.02,12.65,4.55,13.88,11.36c1.12,6.16-2.53,12.47-8.73,14.98c-1.65,0.67-3.41,0.84-5.2,0.84c-9.09,0-18.19,0.03-27.28,0.06
		c-0.24-0.02-0.48-0.03-0.72-0.05C181.74,158.04,176.45,158.04,171.16,158.05z"/>
	<path class="st4" d="M51.69,92.17c6.28,1.63,10.78,6.97,10.64,13.03c-0.15,6.57-3.66,11.46-10.17,13.44
		c-1.3,0.39-2.63,0.33-3.96,0.34c-6.07,0.02-12.13,0.03-18.2,0.05c-0.27,0-0.55,0-0.82,0c-0.17,0-0.34,0-0.51,0
		c-6.2-0.02-12.41-0.1-18.61-0.01c-2.71,0.04-5.48-0.25-7.59-1.71c-2.08-1.45-3.83-3.55-5.1-5.9c-2.63-4.89-1.43-9.89,1.08-13.98
		c2.25-3.67,6.2-5.79,11.21-5.69c13,0.27,26,0.09,39,0.09c0.74,0,1.47-0.05,2.21-0.08C51.04,92.09,51.34,92.17,51.69,92.17z"/>
	<path class="st5" d="M126.21,124.39c-0.04,0.19-0.08,0.38-0.12,0.57c-0.33,0.02-0.47,0.18-0.57,0.53
		c-2.79,9.07-9.91,14.45-18.94,14.35c-8.82-0.09-16.01-5.8-18.5-14.69c0-0.07,0.01-0.15,0-0.22c-0.74-3.52-3.04-7.28-5.8-10.13
		c-2.92-3.02-3.85-6.35-1.15-11.18c2.07-0.89,4.02-2.33,6.7-1.03c0-3.02,0.12-5.75-0.04-8.46c-0.11-1.87,0.67-2.1,2.21-1.79
		c2.82,0.56,5.63,1.2,8.48,1.53c3.48,0.4,6.82,1.85,10.46,1.12c4.91-0.98,9.87-1.73,14.8-2.65c1.56-0.29,2.3-0.05,2.2,1.8
		c-0.16,2.71-0.04,5.44-0.04,8.33c2.67-0.99,4.71-0.03,6.65,1.31c3.28,4.66,1.3,9.55-2.9,12.38c-1.03,0.69-2.91,0.76-3.09,1.9
		C126.21,120.12,125.48,122.25,126.21,124.39z M93.86,118.13c0.16,0.14,0.32,0.28,0.48,0.42c3.08,2.18,6.41,1.92,9.19-0.72
		c2.22-2.05,2.44-4.57,1.74-7.32c-0.12-0.49-0.89-1.09-0.05-1.51c1.03-0.51,2.19-0.45,3.24-0.07c0.91,0.33,0.19,1.01,0.05,1.49
		c-0.93,3.11-0.1,6.21,2.18,8.03c2.45,1.95,5.57,2.06,8.46,0.31c3.31-2.31,4.15-5.85,2.21-9.37c-2.43-4.13-7.09-4.9-10.85-1.79
		c-0.11,0.11-0.22,0.22-0.33,0.33c-2.28,0.11-4.57,0.5-6.83-0.17c-2.82-2.66-6.7-2.76-9.6-0.26c-2.89,2.5-3.21,6.47-0.77,9.74
		C93.13,117.68,93.41,117.99,93.86,118.13z"/>
	<path class="st3" d="M175.21,80.03c-4.41-0.15-9.81,0.27-15.2-0.21c-5.65-0.5-10.01-5.48-10.84-10.61
		c-0.81-5.01,0.33-9.41,4.21-12.99c2.5-2.31,5.48-3.32,8.7-3.36c9.31-0.12,18.63-0.1,27.95-0.02c6.95,0.06,12.73,5.16,13.57,12.01
		c0.79,6.43-3.32,12.85-9.72,14.71c-1.43,0.42-2.91,0.47-4.39,0.47C185.06,80.03,180.62,80.03,175.21,80.03z"/>
	<path class="st5" d="M70.82,190.03c0.93,8.71,1.86,17.43,2.78,26.14c-0.72,0.77-1.66,0.44-2.51,0.45
		c-7.96,0.03-15.92,0.03-23.88,0.04c-0.43,0-0.86-0.01-1.29-0.01c-2.34-0.04-4.67-0.07-7.01-0.11c-0.12-1.03-1.1-0.88-1.7-1.14
		c-7.27-3.06-11.11-10.35-9.46-18.04c1.54-7.15,8.16-12.11,15.83-11.91c3.13,0.08,6.1,1.09,9.2,1.34
		C58.8,187.87,64.81,188.95,70.82,190.03z"/>
	<path class="st5" d="M140.11,216.18c0.6-5.56,1.21-11.13,1.8-16.69c0.34-3.15,0.65-6.3,0.97-9.45c6.02-1.08,12.05-2.16,18.07-3.24
		c2.18-0.37,4.36-0.73,6.54-1.12c6.96-1.26,13.65,1.79,17.01,7.76c3.16,5.61,2.28,12.82-2.19,17.96c-2.05,2.36-4.8,3.62-7.61,4.77
		c-1.14,0.81-2.43,0.41-3.66,0.43c-3.03,0.06-6.06,0.07-9.09,0.1c-0.31-0.01-0.63-0.03-0.94-0.04c-6.2-0.01-12.41,0-18.61-0.03
		C141.63,216.62,140.76,216.91,140.11,216.18z"/>
	<path class="st1" d="M132.52,103.79c-1.94-1.34-3.98-2.3-6.65-1.31c0-2.9-0.12-5.62,0.04-8.33c0.11-1.85-0.64-2.09-2.2-1.8
		c-4.93,0.91-9.89,1.67-14.8,2.65c-3.63,0.72-6.98-0.72-10.46-1.12c-2.85-0.33-5.66-0.97-8.48-1.53c-1.53-0.31-2.32-0.08-2.21,1.79
		c0.16,2.71,0.04,5.44,0.04,8.46c-2.68-1.3-4.63,0.14-6.7,1.03c-3.85-7.36-2.79-14.33,2.55-20.06c2.46-2.64,4.4-5.32,6.07-8.41
		c1.85-3.43,5.04-5.27,8.75-6.27c1.13-0.3,1.84-0.2,1.72,1.28c-0.11,1.32-0.02,2.66-0.02,4.53c2.48-2.46,4.83-4.52,6.83-6.87
		c1.49-1.74,2.88-1.74,4.73-0.86c4.47,2.11,7.67,5.27,8.88,10.2c0.21,0.84,0.68,1.5,1.52,1.69
		C131.95,81.13,137.86,93.15,132.52,103.79z"/>
	<path class="st4" d="M52.78,186.79c-3.09-0.25-6.07-1.26-9.2-1.34c-7.66-0.2-14.28,4.76-15.83,11.91
		c-1.66,7.69,2.19,14.99,9.46,18.04c0.6,0.25,1.58,0.1,1.7,1.14c-4.76,0.43-9.18-0.72-13.03-3.43c-4.8-3.38-7.01-8.28-7.41-14.11
		c-0.43-6.27,1.59-11.5,6.23-15.72c0.18-0.25,0.37-0.49,0.55-0.74c1.9-0.59,3.4-1.94,5.18-2.76c4.88-1.3,9.74-1.7,14.49,0.44
		C48.16,181.69,50.92,183.71,52.78,186.79z"/>
	<path class="st4" d="M174.7,216.16c2.81-1.15,5.56-2.41,7.61-4.77c4.47-5.14,5.35-12.36,2.19-17.96
		c-3.36-5.97-10.05-9.01-17.01-7.76c-2.18,0.39-4.36,0.75-6.54,1.12c3.58-5.96,12.08-9.35,19.32-7.69c1,0.23,2,0.46,3,0.69
		c0.11-0.01,0.21,0.01,0.31,0.05c0.53,0.56,1.21,0.27,1.82,0.33c1.23,1.52,3.72,1.7,4.25,3.97c0.01,0.06,0.08,0.13,0.14,0.16
		c4.48,2.24,4.1,6.91,5.12,10.73c1.1,4.13-0.3,8.08-2.13,11.89c-0.8,1.67-1.25,3.4-3.24,4.13c-0.56,0.21-1.01,0.84-1.03,1.6
		c-0.02,0.79-0.58,1.07-1.26,1.32c-1.43,0.52-3.34,0.17-4.03,2.1C180.38,215.42,177.56,217.63,174.7,216.16z"/>
	<path class="st6" d="M88.07,125.15c2.5,8.89,9.68,14.59,18.5,14.69c9.03,0.1,16.15-5.29,18.94-14.35c0.11-0.35,0.24-0.5,0.57-0.53
		c0.1,3.62,0.34,7.25-0.13,10.85c-0.78,6.01-3.93,10.53-8.99,13.82c-1.15,0.75-1.85,0.61-2.76-0.38c-2.01-2.16-4.21-4.16-6.23-6.31
		c-0.86-0.91-1.38-0.95-2.26-0.01c-2.02,2.15-4.24,4.13-6.23,6.31c-1.04,1.14-1.8,1.04-2.95,0.26c-5.67-3.82-8.74-9.1-9-15.93
		c-0.11-2.8,0.06-5.61,0.11-8.41C87.79,125.18,87.93,125.18,88.07,125.15z"/>
	<path class="st7" d="M45.93,216.65c0.43,0,0.86,0.01,1.29,0.01c8.47,8.33,18.45,14.21,29.61,18.14c9.87,3.47,20.04,4.98,30.51,4.52
		c0.58-0.03,1.35-0.37,1.88,0.72c-4.34,0.09-8.51,0.2-12.72-0.19c-5.07-0.47-10.01-1.45-14.91-2.74
		c-6.76-1.79-13.16-4.46-19.24-7.91c-3.8-2.16-7.48-4.54-10.81-7.36C49.61,220.2,47.35,218.86,45.93,216.65z"/>
	<path class="st7" d="M25.26,182.55c-0.18,0.25-0.37,0.49-0.55,0.74c-2.48-7.32-3.71-14.92-4.44-22.55c-0.45-4.7-0.02-9.5,0.57-14.2
		c1.1-8.62,3.33-16.96,6.98-24.88c0.34-0.73,0.75-1.42,1.12-2.13c0.08-0.17,0.16-0.33,0.24-0.5c0.27,0,0.55,0,0.82,0
		c-4,7.91-6.67,16.23-7.98,25C20.06,157.13,21.22,169.96,25.26,182.55z"/>
	<path class="st7" d="M51.69,92.17c-0.35,0-0.65-0.08-0.82-0.43c2.57-2.54,5.55-4.58,8.6-6.42c6.37-3.87,13.08-7.07,20.31-9.05
		c0.5-0.14,0.99-0.3,1.49-0.4c0.19-0.04,0.41,0.05,0.7,0.27C70.89,79.65,60.56,84.55,51.69,92.17z"/>
	<path class="st7" d="M145.99,228.7c-5.43,3.6-11.46,5.89-17.62,7.86c-4.84,1.55-9.84,2.43-14.88,3.09
		c-0.71,0.09-1.48,0.34-2.02-0.56c12.21-1.06,23.56-4.77,34.2-10.75C145.79,228.46,145.89,228.58,145.99,228.7z"/>
	<path class="st7" d="M183.79,130.76c-0.28,0.01-0.56,0.03-0.84,0.04c-3.03-9.61-7.84-18.25-14.18-26.06
		c-0.51-0.63-1.04-1.22-1.26-2.02c0.08-0.1,0.17-0.2,0.26-0.3c3.64,3.51,6.22,7.81,8.8,12.09
		C179.64,119.62,181.92,125.11,183.79,130.76z"/>
	<path class="st7" d="M157.65,92.96c-2.53-1.85-4.98-3.83-7.61-5.52c-6.37-4.1-13.1-7.52-20.39-9.97c0.6-0.73,1.21-0.37,1.66-0.21
		c9.41,3.36,18.1,8,25.8,14.42c0.33,0.28,0.59,0.65,0.88,0.97C157.88,92.75,157.77,92.85,157.65,92.96z"/>
	<path class="st7" d="M185.41,180.17c-0.62-0.06-1.3,0.23-1.82-0.33c2.41-7.07,3.34-14.38,3.43-21.81c0.24,0.02,0.48,0.03,0.72,0.05
		c0.01,6.42-0.97,12.71-2.51,18.92C184.96,178.08,184.67,179.15,185.41,180.17z"/>
	<path class="st7" d="M158,92.64c1.67,0.8,2.79,2.23,3.99,3.56c-0.1,0.11-0.21,0.22-0.31,0.33c-1.75-0.74-2.88-2.16-4.02-3.58
		C157.77,92.85,157.88,92.75,158,92.64z"/>
	<path class="st7" d="M167.51,102.72c-1.37-0.91-2.55-1.98-3.19-3.54c0.11-0.1,0.22-0.2,0.33-0.3c1.21,1.04,2.47,2.02,3.12,3.55
		C167.68,102.52,167.59,102.62,167.51,102.72z"/>
	<path class="st7" d="M158.13,219.51c0.78-0.69,1.56-1.38,2.35-2.07c-0.27,1.26-0.99,1.99-2.04,2.38
		C158.34,219.71,158.24,219.61,158.13,219.51z"/>
	<path class="st7" d="M148.22,227.36c-0.58,0.71-1.33,1.13-2.22,1.33c-0.1-0.12-0.21-0.24-0.31-0.36c0.74-0.44,1.48-0.89,2.22-1.33
		C148,227.13,148.11,227.25,148.22,227.36z"/>
	<path class="st7" d="M155.43,221.74c0.48-0.41,0.88-0.95,1.63-1.08c0.03,0.94-0.59,1.19-1.29,1.38
		C155.66,221.94,155.54,221.84,155.43,221.74z"/>
	<path class="st7" d="M149.55,226.47c-0.28,0.54-0.73,0.83-1.33,0.89c-0.11-0.12-0.21-0.24-0.32-0.36c0.45-0.27,0.9-0.55,1.35-0.82
		C149.35,226.29,149.45,226.38,149.55,226.47z"/>
	<path class="st7" d="M149.25,226.19c0.44-0.3,0.89-0.59,1.33-0.89c0.1,0.1,0.2,0.19,0.3,0.29c-0.28,0.54-0.71,0.86-1.33,0.89
		C149.45,226.38,149.35,226.29,149.25,226.19z"/>
	<path class="st7" d="M150.58,225.3c0.44-0.32,0.88-0.64,1.32-0.96c0.11,0.12,0.22,0.24,0.32,0.36c-0.29,0.53-0.73,0.83-1.34,0.88
		C150.78,225.49,150.68,225.4,150.58,225.3z"/>
	<path class="st7" d="M153.69,223.08c0.36-0.26,0.79-0.97,1.12-0.5c0.36,0.52-0.38,0.66-0.82,0.79
		C153.89,223.26,153.79,223.17,153.69,223.08z"/>
	<path class="st7" d="M151.9,224.34c0.41-0.16,0.77-0.97,1.21-0.35c0.2,0.27-0.44,0.63-0.89,0.71
		C152.11,224.58,152,224.46,151.9,224.34z"/>
	<path class="st7" d="M161.01,216.65c0.31,0.01,0.63,0.03,0.94,0.04c-0.17,0.41-0.47,0.86-0.87,0.79
		C160.53,217.38,161.02,216.94,161.01,216.65z"/>
	<path class="st7" d="M161.99,96.2c0.15,0.15,0.3,0.29,0.45,0.44c-0.11,0.11-0.21,0.23-0.32,0.34c-0.15-0.15-0.3-0.3-0.45-0.45
		C161.78,96.43,161.89,96.31,161.99,96.2z"/>
	<path class="st7" d="M162.44,96.64c0.15,0.15,0.3,0.3,0.44,0.44c-0.11,0.11-0.21,0.23-0.32,0.34c-0.15-0.15-0.3-0.3-0.44-0.44
		C162.23,96.87,162.33,96.76,162.44,96.64z"/>
	<path class="st7" d="M162.88,97.09c0.15,0.15,0.3,0.3,0.44,0.44c-0.11,0.11-0.21,0.23-0.32,0.34c-0.15-0.15-0.3-0.3-0.44-0.44
		C162.67,97.31,162.78,97.2,162.88,97.09z"/>
	<path class="st7" d="M163.33,97.53c0.15,0.15,0.3,0.3,0.44,0.44c-0.11,0.11-0.21,0.23-0.32,0.34c-0.15-0.15-0.3-0.3-0.44-0.44
		C163.12,97.76,163.22,97.64,163.33,97.53z"/>
	<path class="st7" d="M163.9,98.76c-0.15-0.15-0.3-0.3-0.45-0.44c0.11-0.11,0.21-0.23,0.32-0.34c0.15,0.15,0.29,0.3,0.44,0.45
		C164.11,98.54,164,98.65,163.9,98.76z"/>
	<path class="st7" d="M164.32,99.18c-0.14-0.14-0.28-0.28-0.42-0.42c0.1-0.11,0.21-0.22,0.31-0.33c0.15,0.15,0.29,0.3,0.44,0.45
		C164.54,98.97,164.43,99.07,164.32,99.18z"/>
	<path class="st8" d="M29.19,119.03c-0.08,0.17-0.16,0.33-0.24,0.5c-0.09-0.17-0.18-0.34-0.27-0.5
		C28.85,119.02,29.02,119.02,29.19,119.03z"/>
	<path class="st7" d="M158.44,219.82c-0.15,0.15-0.3,0.3-0.44,0.45c-0.13-0.1-0.26-0.2-0.38-0.3c0.17-0.15,0.35-0.3,0.52-0.45
		C158.24,219.61,158.34,219.71,158.44,219.82z"/>
	<path class="st7" d="M157.99,220.26c-0.15,0.24-0.32,0.5-0.61,0.2c-0.05-0.05,0.14-0.33,0.22-0.5
		C157.74,220.06,157.87,220.16,157.99,220.26z"/>
	<path class="st7" d="M155.77,222.04c-0.15,0.11-0.38,0.35-0.44,0.32c-0.4-0.24-0.05-0.42,0.1-0.62
		C155.54,221.84,155.66,221.94,155.77,222.04z"/>
	<path class="st7" d="M153.99,223.37c-0.15,0.11-0.38,0.35-0.43,0.32c-0.39-0.27-0.03-0.42,0.13-0.61
		C153.79,223.17,153.89,223.26,153.99,223.37z"/>
	<path class="st0" d="M187.02,158.03c-0.09,7.44-1.02,14.74-3.43,21.81c-0.1-0.04-0.21-0.06-0.31-0.05
		c-1.39-4.09-4.03-7.5-6.09-11.23c-1.95-3.54-4.01-7.01-6.03-10.52C176.45,158.04,181.74,158.04,187.02,158.03z"/>
	<path class="st7" d="M106.85,193.58c-3.19,0-5.8-2.63-5.76-5.79c0.04-3.08,2.59-5.62,5.67-5.66c3.21-0.05,5.82,2.5,5.84,5.69
		C112.62,191.04,110.08,193.58,106.85,193.58z M101.85,187.84c-0.01,2.77,2.33,5.13,5.05,5.1c2.66-0.03,4.9-2.27,4.96-4.96
		c0.06-2.88-2.06-5.09-4.91-5.11C104.09,182.85,101.85,185.03,101.85,187.84z"/>
	<path class="st7" d="M103.35,107.76c2.26,0.66,4.55,0.28,6.83,0.17c0.11,0.15,0.22,0.29,0.34,0.44c-1.11,1.52-1.84,3.15-1.65,5.09
		c0.46,4.74,4.78,6.9,9.9,4.93c0.13,0.12,0.26,0.25,0.39,0.37c-2.89,1.75-6.01,1.63-8.46-0.32c-2.28-1.82-3.11-4.92-2.18-8.03
		c0.14-0.48,0.86-1.16-0.05-1.49c-1.05-0.37-2.21-0.44-3.24,0.07c-0.84,0.42-0.08,1.03,0.05,1.51c0.7,2.76,0.48,5.27-1.74,7.32
		c-0.11-0.12-0.23-0.23-0.34-0.35c2.45-3.89,2.41-5.84-0.21-9.34C103.1,108.02,103.22,107.89,103.35,107.76z"/>
	<path class="st7" d="M92.97,117.24c-2.44-3.27-2.12-7.25,0.77-9.74c2.9-2.5,6.78-2.4,9.6,0.26c-0.12,0.13-0.24,0.26-0.37,0.39
		c-3.41-2.24-6.44-2.23-8.87,0.03c-2.37,2.21-2.63,5.29-0.71,8.65C93.25,116.97,93.11,117.11,92.97,117.24z"/>
	<path class="st7" d="M110.5,107.59c3.76-3.11,8.43-2.34,10.85,1.79c-0.13,0.1-0.27,0.2-0.4,0.29c-3.32-3.74-5.82-4.17-10.02-1.74
		C110.8,107.82,110.65,107.7,110.5,107.59z"/>
	<path class="st7" d="M121.36,109.38c1.94,3.52,1.11,7.07-2.21,9.37c-0.13-0.12-0.26-0.25-0.39-0.37c2.86-2.37,3.53-5.29,2.2-8.71
		C121.09,109.58,121.22,109.48,121.36,109.38z"/>
	<path class="st7" d="M103.53,117.83c-2.78,2.64-6.11,2.9-9.19,0.72c0.12-0.14,0.24-0.28,0.36-0.42c2.99,1.88,5.8,1.4,8.49-0.65
		C103.3,117.6,103.41,117.72,103.53,117.83z"/>
	<path class="st7" d="M93.86,118.13c-0.45-0.14-0.73-0.46-0.89-0.89c0.14-0.14,0.28-0.27,0.42-0.41c0.28,0.32,0.56,0.63,0.84,0.95
		C94.11,117.9,93.99,118.02,93.86,118.13z"/>
	<path class="st7" d="M110.17,107.92c0.11-0.11,0.22-0.22,0.33-0.33c0.14,0.11,0.29,0.23,0.44,0.34c-0.14,0.14-0.29,0.29-0.43,0.43
		C110.4,108.22,110.29,108.07,110.17,107.92z"/>
	<path class="st7" d="M94.34,118.55c-0.16-0.14-0.32-0.28-0.48-0.42c0.12-0.12,0.25-0.23,0.37-0.35c0.15,0.11,0.31,0.23,0.46,0.34
		C94.58,118.27,94.46,118.41,94.34,118.55z"/>
	<path class="st6" d="M101.85,187.84c0.01-2.81,2.25-4.99,5.1-4.97c2.85,0.02,4.97,2.23,4.91,5.11c-0.05,2.69-2.29,4.93-4.96,4.96
		C104.18,192.97,101.84,190.61,101.85,187.84z"/>
	<path class="st5" d="M94.69,118.13c-0.15-0.11-0.31-0.23-0.46-0.34c-0.28-0.32-0.56-0.64-0.84-0.95c-1.91-3.36-1.66-6.45,0.71-8.65
		c2.44-2.26,5.46-2.28,8.87-0.03c2.62,3.5,2.66,5.44,0.21,9.34C100.49,119.53,97.68,120.01,94.69,118.13z"/>
	<path class="st5" d="M110.51,108.36c0.14-0.14,0.29-0.29,0.43-0.43c4.2-2.43,6.69-1.99,10.02,1.74c1.33,3.42,0.67,6.34-2.2,8.71
		c-5.12,1.97-9.44-0.19-9.9-4.93C108.67,111.51,109.4,109.88,110.51,108.36z"/>
</g>
<g>
	<path class="st9" d="M75.91,10.42c-0.9-7.03-2.24-14-3.53-20.97c-0.97-5.23-2.3-10.73-6.35-14.46c-7.05-6.49-19.89,0.11-26.76,3.39
		C27.95-16.21,17.63-9.06,6.66-3.03C6.44-2.91,6.34-2.76,6.3-2.62C3.21-0.81,0.51,1.42-0.73,4.31c-2.45,5.72,10.59,10.1,13.9,11.45
		c8.98,3.66,17.69,7.2,26.47,11.41c5.43,2.6,10.94,4.97,16.5,7.25c3.93,1.62,8.39,3.47,12.73,3.04
		C81.56,36.2,76.93,18.37,75.91,10.42z"/>
	<path class="st10" d="M10.54,7.6c0.25,0.89,2.56,1.61,2.23,0.4C12.52,7.11,10.2,6.39,10.54,7.6z"/>
	<path class="st10" d="M7.02,4.36C7,4.4,6.99,4.44,6.97,4.47C6.69,5.11,7.48,5.62,7.95,5.83C8.32,5.99,8.7,6.04,9.03,5.79
		c0.13-0.1,0.12-0.22,0.07-0.35c0.01-0.22-0.1-0.47-0.25-0.62C8.8,4.78,8.75,4.72,8.7,4.67C8.42,4.39,7.32,3.7,7.02,4.36z"/>
	<path class="st10" d="M11.34,1.05c-0.03,0.02-0.06,0.05-0.08,0.07c-0.34,0.26-0.18,0.73,0.08,1c-0.01,0.03-0.01,0.05-0.02,0.08
		c-0.08,0.33,0.65,0.75,0.9,0.51c0.01-0.01,0.02-0.02,0.03-0.03c0.19,0.05,0.37,0.09,0.57,0.06C14.46,2.52,12.38,0.22,11.34,1.05z"
		/>
	<path class="st10" d="M17.79,1.39c-0.06,0.03-0.09,0.09-0.11,0.17c-0.02,0.05-0.02,0.1-0.03,0.16c0,0-0.01,0-0.01,0
		c-0.19,0.24,0.13,0.63,0.31,0.77c0.38,0.28,0.83,0.54,1.32,0.53C19.81,3,20.06,2.55,19.8,2.08C19.47,1.51,18.22,0.95,17.79,1.39z"
		/>
	<path class="st10" d="M14.89,5.93c-0.15,0.2,0.02,0.43,0.23,0.61c0.02,0.03,0.03,0.07,0.06,0.1c0.22,0.32,1.33,1.03,1.46,0.26
		C16.78,6.1,15.45,5.18,14.89,5.93z"/>
	<path class="st10" d="M21.65,13.83c0.17,0.62,0.87,1.06,1.48,1.17c0.48,0.08,1.14-0.11,0.97-0.73c-0.17-0.62-0.87-1.06-1.48-1.17
		C22.15,13.02,21.48,13.21,21.65,13.83z"/>
	<path class="st10" d="M31.51,12.38c-0.01,0.02-0.02,0.03-0.05,0.1c-0.04,0.13-0.12,0.24-0.16,0.37c-0.05,0.18,0.23,0.37,0.36,0.41
		c0.5,0.16,1.02,0.25,1.55,0.27c0.57,0.03,0.81-0.5,0.54-0.96c-0.34-0.59-0.93-0.9-1.6-0.91C31.71,11.65,31.44,11.95,31.51,12.38z"
		/>
	<path class="st10" d="M54.57-21.85c0.31,0.35,1.99,1.2,2.03,0.17c0.02-0.07-0.01-0.06-0.08,0.03c0.62-0.56-0.63-1.19-1.06-1.21
		c0.13,0,0.15-0.01,0.05-0.04C54.69-23.25,53.88-22.64,54.57-21.85z"/>
	<path class="st10" d="M61.76-23.3c-0.24,0.89,1.78,1.68,1.86,0.78C63.68-23.24,61.98-24.14,61.76-23.3z"/>
	<path class="st10" d="M63.45-14.01l0.12,0.08c0.32,0.22,1.12,0.63,1.4,0.12c0.27-0.48-0.45-1.02-0.83-1.14
		c-0.05-0.01-0.09-0.03-0.14-0.04C63.22-15.25,62.67-14.54,63.45-14.01z"/>
	<path class="st10" d="M49.98-13.38c-0.02,0.01-0.04,0.01-0.06,0.02c-0.03,0.01-0.06,0.02-0.09,0.03c-0.3,0.18-0.28,0.47-0.09,0.75
		c0.01,0.02,0,0.03,0.02,0.05c0.01,0.03,0.04,0.04,0.05,0.07c0,0,0,0,0.01,0c0.31,0.47,0.93,0.83,1.49,0.81
		c0.56-0.03,0.87-0.4,1.2-0.8c0.33-0.39-0.57-0.91-0.84-0.95C51.14-13.45,50.49-13.59,49.98-13.38z"/>
	<path class="st10" d="M56.93-18.16c0.19,0.68,0.94,1.15,1.6,1.27c0.52,0.09,1.24-0.12,1.05-0.79c-0.18-0.67-0.94-1.15-1.59-1.27
		C57.47-19.05,56.74-18.84,56.93-18.16z"/>
	<path class="st10" d="M57.61-12.04c0.15,0.56,0.78,0.95,1.32,1.04c0.43,0.08,1.02-0.1,0.87-0.65c-0.15-0.56-0.77-0.95-1.31-1.05
		C58.05-12.78,57.45-12.6,57.61-12.04z"/>
	<path class="st10" d="M55.35-9.67c0.03,0.02,0.07,0.04,0.1,0.07c0.39,0.24,1.49,0.5,1.55-0.24c0.07-0.8-1.04-1.34-1.7-1.35
		c-0.03,0-0.06,0-0.1,0C54.03-11.21,54.86-9.99,55.35-9.67z"/>
	<path class="st10" d="M50.47-18.71c0.22,0.8,2.32,1.46,2.02,0.36C52.26-19.15,50.16-19.8,50.47-18.71z"/>
	<path class="st10" d="M63.02,23.88c-0.48,0.42-0.15,0.91,0.31,1.26c0.46,0.53,2.16,1.5,2.27,0.33
		C65.71,24.39,63.98,23.04,63.02,23.88z"/>
	<path class="st10" d="M58.11,25.47c0-0.01,0-0.02,0-0.04c-0.02,0.03-0.02,0.06-0.02,0.09c0,0.01-0.01,0.02-0.01,0.03
		c0.03-0.12-0.06,0.15-0.06,0.15c-0.01,0.1,0.06,0.2,0.14,0.27c0.02,0.06,0.06,0.11,0.08,0.17c0.15,0.3,1.4,0.95,1.38,0.25
		c-0.02-0.57-0.43-1.01-1-1.11C58.4,25.25,58.2,25.29,58.11,25.47z"/>
	<path class="st10" d="M55.83,16.89c0.08,0.1,0.14,0.2,0.19,0.32c0.2,0.37,1.7,1.18,1.71,0.31c0-0.09,0-0.18,0.01-0.27
		c0.24-0.74-0.65-1.33-1.28-1.45C55.63,15.65,55.36,16.29,55.83,16.89z"/>
	<path class="st10" d="M63.98,16.2c-0.1,0.58,1.18,1.2,1.57,1.18c0.2-0.01,0.41-0.02,0.57-0.17c0.41-0.35,0.07-0.94-0.3-1.19
		c-0.39-0.27-0.74-0.4-1.19-0.52C64.09,15.35,63.79,15.78,63.98,16.2z"/>
	<path class="st10" d="M60.4,19.35c-0.37,0.49,0.31,1.11,0.7,1.3c0.35,0.17,0.89,0.38,1.25,0.11c0.06-0.04,0.12-0.09,0.17-0.15
		c0.58-0.55-0.47-1.34-0.99-1.38c-0.09-0.01-0.18-0.02-0.28-0.04C60.94,19.09,60.61,19.07,60.4,19.35z"/>
	<path class="st10" d="M53.99,20.78c-0.61,0.44,0.38,1.23,0.77,1.36c0.43,0.14,0.85,0.21,1.28,0.06c0.68-0.24-0.06-0.82-0.54-1.01
		C55.12,20.79,54.46,20.45,53.99,20.78z"/>
	<path class="st10" d="M56.28,11.66c-0.1,0.5,0.23,0.9,0.49,1.28c0.14,0.2,0.89,0.75,1.07,0.3c0.13-0.34,0.44-0.37,0.59-0.68
		c0.32-0.64-0.67-1.22-1.16-1.31c-0.04-0.01-0.08-0.02-0.12-0.02C56.78,11.16,56.37,11.24,56.28,11.66z"/>
	<path class="st10" d="M69.93,18.43c-0.75,0.21-0.26,1.02,0.11,1.33c0.47,0.41,1.12,0.67,1.74,0.47c0.82-0.27,0.16-1.04-0.44-1.4
		C70.96,18.5,70.37,18.3,69.93,18.43z"/>
	<path class="st10" d="M60.84,0.8c-0.01,0.02-0.03,0.04-0.04,0.06c-0.26,0.38,0.22,0.84,0.61,1.06c0.46,0.39,1.46,0.88,1.55,0.11
		c0.09-0.77-0.61-1.39-1.35-1.47C61.32,0.53,61.02,0.53,60.84,0.8z"/>
	<path class="st10" d="M47.96,1.85c0.21,0.75,2.18,1.37,1.89,0.34C49.64,1.44,47.67,0.83,47.96,1.85z"/>
	<path class="st10" d="M49.49,8.14c0.08,0.09,0.15,0.19,0.23,0.28c0.16,0.2,0.97,0.65,1.13,0.21c0.03-0.08,0.06-0.15,0.09-0.23
		C51.41,7.17,48.51,6.92,49.49,8.14z"/>
	<path class="st10" d="M42.04-2.02c0.18,0.64,0.89,1.1,1.52,1.21c0.49,0.09,1.18-0.11,1-0.75c-0.18-0.64-0.9-1.09-1.52-1.21
		C42.55-2.87,41.86-2.66,42.04-2.02z"/>
</g>
<g>
	<path class="st4" d="M157.53,15.5c-3.3-1.48-6.69-2.76-10.06-4.06c-2.53-0.97-5.28-1.86-7.98-1.1c-4.7,1.34-5.26,8.68-5.67,12.54
		c-0.67,6.37-0.31,12.77-0.61,19.14c-0.01,0.13,0.03,0.21,0.08,0.27c-0.04,1.83,0.21,3.6,1.14,4.91c1.83,2.59,7.22-1.91,8.69-2.99
		c3.99-2.93,7.85-5.77,12.02-8.47c2.58-1.67,5.08-3.43,7.56-5.24c1.75-1.28,3.75-2.72,4.72-4.72
		C170.25,19.92,161.26,17.18,157.53,15.5z"/>
	<path class="st10" d="M138.86,43.18c0.45,0.13,1.38-0.69,0.77-0.86C139.18,42.19,138.25,43,138.86,43.18z"/>
	<path class="st10" d="M136.52,43.85c0.01,0.02,0.02,0.03,0.04,0.05c0.2,0.29,0.64,0.09,0.85-0.06c0.17-0.12,0.29-0.27,0.27-0.48
		c-0.01-0.08-0.07-0.11-0.13-0.13c-0.09-0.06-0.23-0.08-0.34-0.06c-0.03,0.01-0.07,0.02-0.1,0.03
		C136.9,43.25,136.31,43.54,136.52,43.85z"/>
	<path class="st10" d="M136.23,41.08c0,0.02,0.01,0.04,0.01,0.06c0.03,0.22,0.27,0.27,0.45,0.23c0.01,0.01,0.02,0.02,0.03,0.03
		c0.12,0.12,0.5-0.08,0.46-0.26c0-0.01,0-0.01,0-0.02c0.07-0.07,0.14-0.14,0.18-0.23C137.7,40.12,136.15,40.41,136.23,41.08z"/>
	<path class="st10" d="M138.1,38.37c0,0.03,0.02,0.06,0.04,0.09c0.02,0.02,0.04,0.04,0.06,0.05c0,0,0,0,0,0.01
		c0.06,0.15,0.31,0.11,0.42,0.07c0.22-0.09,0.46-0.22,0.58-0.43c0.14-0.24,0.01-0.47-0.26-0.48
		C138.6,37.67,138.02,38.06,138.1,38.37z"/>
	<path class="st10" d="M139.3,40.84c0.05,0.12,0.19,0.1,0.32,0.06c0.02,0,0.04,0,0.06,0c0.2-0.01,0.8-0.31,0.51-0.57
		C139.88,40.06,139.12,40.4,139.3,40.84z"/>
	<path class="st10" d="M144.54,40.01c0.32,0.09,0.7-0.1,0.9-0.33c0.16-0.19,0.26-0.53-0.06-0.62c-0.32-0.09-0.7,0.09-0.9,0.33
		C144.32,39.58,144.22,39.92,144.54,40.01z"/>
	<path class="st10" d="M146.54,35.33c0.01,0.01,0.01,0.02,0.03,0.04c0.04,0.05,0.07,0.12,0.12,0.17c0.07,0.07,0.22,0,0.27-0.05
		c0.2-0.18,0.38-0.38,0.53-0.6c0.17-0.24,0-0.49-0.27-0.49c-0.35-0.01-0.64,0.17-0.82,0.46C146.28,35.05,146.33,35.25,146.54,35.33z
		"/>
	<path class="st10" d="M137.8,16.17c0.24-0.04,1.05-0.54,0.62-0.84c-0.03-0.02-0.03-0.01-0.01,0.04c-0.08-0.42-0.69-0.04-0.81,0.14
		c0.03-0.06,0.03-0.07,0-0.03C137.23,15.75,137.28,16.26,137.8,16.17z"/>
	<path class="st10" d="M139.09,12.66c0.32,0.34,1.2-0.33,0.83-0.6C139.63,11.84,138.78,12.34,139.09,12.66z"/>
	<path class="st10" d="M143.58,14.4l0.07-0.03c0.18-0.08,0.57-0.32,0.43-0.58c-0.13-0.25-0.57-0.08-0.72,0.06
		c-0.02,0.02-0.04,0.03-0.06,0.05C142.98,14.17,143.14,14.6,143.58,14.4z"/>
	<path class="st10" d="M140.26,20.43c0,0.01-0.01,0.02-0.01,0.03c0,0.02-0.01,0.03-0.01,0.05c0,0.18,0.13,0.24,0.3,0.24
		c0.01,0,0.02,0.01,0.03,0.01c0.01,0,0.03-0.01,0.04-0.01c0,0,0,0,0,0c0.29-0.01,0.61-0.18,0.75-0.43c0.14-0.25,0.06-0.48-0.02-0.74
		c-0.08-0.25-0.55,0-0.64,0.11C140.54,19.9,140.31,20.15,140.26,20.43z"/>
	<path class="st10" d="M140.04,16.13c0.34,0.1,0.75-0.1,0.98-0.36c0.18-0.2,0.28-0.57-0.06-0.67c-0.34-0.1-0.75,0.1-0.98,0.36
		C139.8,15.66,139.7,16.03,140.04,16.13z"/>
	<path class="st10" d="M142.88,17.47c0.28,0.08,0.62-0.09,0.8-0.29c0.15-0.17,0.23-0.47-0.05-0.55c-0.28-0.08-0.62,0.08-0.8,0.29
		C142.68,17.08,142.6,17.39,142.88,17.47z"/>
	<path class="st10" d="M143.31,19.08c0.02-0.01,0.04-0.02,0.06-0.03c0.21-0.1,0.61-0.52,0.31-0.74c-0.33-0.24-0.86,0.09-1.04,0.38
		c-0.01,0.01-0.02,0.03-0.03,0.04C142.29,19.25,143.04,19.21,143.31,19.08z"/>
	<path class="st10" d="M138.08,18.79c0.41,0.12,1.25-0.62,0.69-0.78C138.36,17.89,137.52,18.63,138.08,18.79z"/>
	<path class="st10" d="M159.95,24.7c0.06,0.32,0.35,0.31,0.63,0.2c0.35-0.06,1.23-0.54,0.75-0.9
		C160.89,23.66,159.84,24.05,159.95,24.7z"/>
	<path class="st10" d="M159.33,27.26c0,0-0.01,0-0.02-0.01c0.01,0.02,0.02,0.02,0.03,0.03c0,0,0,0.01,0.01,0.01
		c-0.04-0.04,0.05,0.06,0.05,0.06c0.04,0.03,0.1,0.03,0.15,0.01c0.03,0,0.06,0.01,0.09,0.01c0.17,0.01,0.79-0.35,0.48-0.53
		c-0.25-0.14-0.55-0.08-0.75,0.14C159.31,27.07,159.27,27.17,159.33,27.26z"/>
	<path class="st10" d="M154.99,25.96c0.06-0.01,0.13-0.01,0.19,0c0.21,0.01,0.97-0.42,0.59-0.66c-0.04-0.02-0.08-0.05-0.11-0.08
		c-0.26-0.3-0.75-0.07-0.97,0.17C154.4,25.72,154.6,26,154.99,25.96z"/>
	<path class="st10" d="M156.87,22.23c0.22,0.2,0.84-0.19,0.93-0.37c0.05-0.09,0.1-0.18,0.08-0.29c-0.04-0.27-0.39-0.28-0.6-0.19
		c-0.22,0.1-0.37,0.22-0.55,0.38C156.52,21.96,156.63,22.2,156.87,22.23z"/>
	<path class="st10" d="M157.28,24.63c0.11,0.29,0.56,0.16,0.75,0.04c0.17-0.11,0.41-0.29,0.38-0.52c0-0.04-0.01-0.08-0.02-0.11
		c-0.09-0.4-0.71-0.15-0.86,0.07c-0.03,0.04-0.06,0.07-0.09,0.11C157.31,24.32,157.21,24.46,157.28,24.63z"/>
	<path class="st10" d="M156.19,27.8c0.03,0.38,0.63,0.16,0.79,0.03c0.17-0.15,0.32-0.32,0.37-0.54c0.07-0.36-0.37-0.19-0.58-0.04
		C156.5,27.31,156.17,27.51,156.19,27.8z"/>
	<path class="st10" d="M152.83,24.37c0.19,0.18,0.45,0.14,0.69,0.13c0.12-0.01,0.56-0.19,0.41-0.38c-0.11-0.15-0.05-0.29-0.14-0.44
		c-0.19-0.31-0.71-0.03-0.88,0.15c-0.01,0.02-0.03,0.03-0.04,0.05C152.75,24.02,152.68,24.22,152.83,24.37z"/>
	<path class="st10" d="M159.42,20.24c-0.11,0.38,0.37,0.38,0.61,0.31c0.3-0.1,0.59-0.31,0.67-0.63c0.1-0.43-0.41-0.35-0.72-0.18
		C159.73,19.81,159.48,20.01,159.42,20.24z"/>
	<path class="st10" d="M149.33,19.49c0.01,0.01,0.01,0.02,0.02,0.03c0.1,0.22,0.42,0.13,0.62,0.02c0.29-0.09,0.78-0.4,0.46-0.65
		c-0.31-0.24-0.77-0.11-1,0.19C149.34,19.21,149.26,19.34,149.33,19.49z"/>
	<path class="st10" d="M146.35,25.37c0.38,0.11,1.17-0.58,0.65-0.73C146.62,24.53,145.83,25.22,146.35,25.37z"/>
	<path class="st10" d="M149.49,26.38c0.06-0.01,0.12-0.02,0.18-0.02c0.13-0.02,0.54-0.25,0.39-0.44c-0.03-0.03-0.05-0.07-0.08-0.1
		C149.58,25.29,148.7,26.49,149.49,26.38z"/>
	<path class="st10" d="M143.08,26.91c0.33,0.09,0.72-0.1,0.93-0.34c0.17-0.19,0.27-0.54-0.06-0.64c-0.33-0.09-0.72,0.1-0.93,0.34
		C142.85,26.47,142.76,26.82,143.08,26.91z"/>
</g>
</svg>
