<?xml version="1.0" encoding="utf-8"?>
<!-- Generator: Adobe Illustrator 24.1.3, SVG Export Plug-In . SVG Version: 6.00 Build 0)  -->
<svg version="1.1" id="Layer_1" xmlns="http://www.w3.org/2000/svg" xmlns:xlink="http://www.w3.org/1999/xlink" x="0px" y="0px"
	 viewBox="0 0 5760.3 4000" style="enable-background:new 0 0 5760.3 4000;" xml:space="preserve">
<style type="text/css">
	.st0{fill:#FFFFFF;}
	.st1{fill:#CECECE;}
	.st2{fill:#E0E0E0;}
	.st3{fill:#EDEDED;}
	.st4{fill:#939393;}
	.st5{fill:#9E9E9E;}
	.st6{opacity:8.000000e-02;fill:#020202;enable-background:new    ;}
	.st7{fill:#777777;}
	.st8{fill:#BFBFBF;}
	.st9{fill:#E6E7E9;}
	.st10{fill:#B8B9BB;}
	.st11{fill:#FEFCFE;}
	.st12{fill:#662A48;}
	.st13{fill:#BC658D;}
	.st14{fill:#1B1F21;}
	.st15{fill:#475059;}
	.st16{fill:#F9F9F7;}
	.st17{fill:#F4BA2E;}
	.st18{fill:#FFDB92;}
	.st19{fill:#FFCC5A;}
	.st20{fill:#2D3538;}
	.st21{fill:#CECFD1;}
	.st22{opacity:0.15;fill:#231F20;enable-background:new    ;}
	.st23{fill:#F6F4F4;}
	.st24{opacity:0.2;fill:#231F20;enable-background:new    ;}
	.st25{fill:#DEDEDE;}
	.st26{fill:#3A4349;}
	.st27{fill:#252B2D;}
	.st28{fill:#414A51;}
	.st29{fill:#323B3F;}
	.st30{fill:#8E6040;}
	.st31{fill:#763452;}
	.st32{fill:#EAEAEA;}
	.st33{fill:#B2B2B2;}
	.st34{fill:#848484;}
	.st35{fill:#3F4D50;}
	.st36{opacity:0.26;fill:#020202;enable-background:new    ;}
	.st37{fill:#EDBE85;}
	.st38{fill:#FFF2E6;}
	.st39{fill:#E2E2E2;}
	.st40{fill:#31373A;}
</style>
<g id="Layer_5">
	
		<rect x="1184.5" y="2809.8" transform="matrix(0.3696 -0.9292 0.9292 0.3696 -1938.1249 2931.6917)" class="st0" width="14" height="168.7"/>
	
		<rect x="1109.8" y="2860.1" transform="matrix(0.3695 -0.9292 0.9292 0.3695 -1957.6638 2843.8459)" class="st1" width="14" height="9"/>
	<path class="st0" d="M1109.2,2883l14.7-36.8c0.4-1-0.1-2.1-1.1-2.5l-43.8-17.4c-1-0.4-2.1,0.1-2.5,1.1l-14.7,36.8
		c-0.4,1,0.1,2.1,1.1,2.5l43.8,17.4C1107.7,2884.5,1108.8,2884,1109.2,2883z"/>
	<g>
		<path class="st0" d="M1063.9,2873.1l20-50.3c2.1-5.4-0.5-11.5-5.9-13.6l-88.1-35.1c-5.4-2.1-11.5,0.5-13.7,5.9l-20,50.3
			c-2.1,5.4,0.5,11.5,5.9,13.6l88.1,35.1C1055.7,2881.1,1061.8,2878.5,1063.9,2873.1z"/>
		<path class="st2" d="M1054.2,2881.7c-1.5,0-3.1-0.3-4.6-0.9l-88.1-35.1c-3.1-1.2-5.5-3.6-6.8-6.7s-1.4-6.5-0.2-9.6l20-50.3
			c1.2-3.1,3.6-5.5,6.7-6.9c3.1-1.3,6.5-1.4,9.6-0.1l88.1,35c6.4,2.6,9.6,9.8,7,16.2l-20,50.3
			C1063.8,2878.8,1059.1,2881.7,1054.2,2881.7z M986.1,2775.4c-1.2,0-2.3,0.2-3.4,0.7c-2.1,0.9-3.7,2.6-4.5,4.7l-20,50.3
			c-0.8,2.1-0.8,4.4,0.1,6.5c0.9,2.1,2.6,3.7,4.7,4.5l88.1,35.1c4.4,1.7,9.3-0.4,11.1-4.8l20-50.3c1.7-4.4-0.4-9.3-4.8-11.1
			l-88.1-35C988.2,2775.6,987.1,2775.4,986.1,2775.4z"/>
	</g>
	<path class="st3" d="M306.2,2350.5l-132,331.9c-9.7,24.3,2.2,51.9,26.5,61.6l653.1,259.8c24.3,9.7,51.9-2.2,61.6-26.5l132-331.9
		c9.7-24.3-2.2-51.9-26.5-61.6l-653.1-259.8C343.5,2314.2,315.9,2326.1,306.2,2350.5z"/>
	
		<rect x="398.9" y="2353.5" transform="matrix(0.3695 -0.9292 0.9292 0.3695 -2089.6018 2248.3755)" class="st4" width="426.2" height="621"/>
	<path class="st5" d="M955.7,2736.6l-43.9,110.4c-1.4,3.4,0.3,7.3,3.8,8.7l0,0c3.4,1.4,7.3-0.3,8.7-3.8l43.9-110.4
		c1.4-3.4-0.3-7.3-3.8-8.7l0,0C960.9,2731.4,957,2733.1,955.7,2736.6z"/>
	<path class="st6" d="M1021.1,2583.6l-653.1-259.8c-24.3-9.7-51.9,2.4-61.6,26.7l-18,45.2L969.6,2841l77.8-195.7
		C1057.1,2620.9,1045.4,2593.2,1021.1,2583.6z"/>
	
		<rect x="1020" y="2803.1" transform="matrix(0.3695 -0.9292 0.9292 0.3695 -1980.9313 2737.7734)" class="st2" width="14.1" height="51.2"/>
	<path class="st0" d="M550.7,3240.2c15.6-27.5,39-49.4,62-68.9c12.4-10.6,25.7-21.3,40-30.6c1-17.6,4.9-35.9,11.7-54.4
		c11.4-30.8,29.7-59,46.1-82.5c14.9-21.4,33-45.4,58.6-58.6c25.2-13,57.6-15.2,91.2-6.2c18.1,4.9,36.2,13.3,53.7,21.5
		c11,5.2,21.4,10.1,31.8,14.1c45.1,17.5,91.7,35.5,140,42.7c37.4,5.5,91.9,6.4,139.3-21c24.4-14.1,44.1-33.8,63.6-55.4l-30.7-12.4
		l5.2-13l35.4,14.3c1.2-1.4,2.4-2.7,3.6-4.1c18.7-21.1,38-43,60.8-60.4c11.6-8.9,29.5-20.6,50.3-20.4c22.9,0.3,44.5,16.1,52.5,38.5
		c7.5,20.9,2.7,46-12.2,63.8c-13.9,16.6-35.8,26.7-58.8,27.1c-22.6,0.3-43.9-8.3-62.8-16l-29.4-11.9c-20.8,23.2-42.9,46.1-70.4,62
		c-50.9,29.4-108.8,28.6-148.3,22.7c-49.9-7.4-97.2-25.7-143-43.5c-10.8-4.2-21.9-9.4-32.7-14.4c-16.9-7.9-34.5-16.1-51.3-20.7
		c-30.2-8.1-59-6.3-81.2,5.1c-22.7,11.8-38.9,33.2-53.5,54.2c-16.7,23.9-33.6,50.1-44.4,79.3c-5.1,13.8-8.4,27.4-10,40.6
		c3.7-2,7.5-4,11.4-5.8c19.4-9,49.2-18.3,80.9-11.4c29.4,6.4,54.1,27.1,62.8,52.8c8,23.4,2.8,50.7-13.2,69.6
		c-21.4,25.1-60.5,33.3-93.1,19.4c-28.8-12.3-51.8-40.9-60-74.8c-1.9-7.8-3-15.8-3.5-24.1c-10.9,7.7-21.2,16.1-31,24.4
		c-22,18.7-44.4,39.6-58.9,65.2c-15.6,27.5-19.4,57.2-10.5,81.4c1.4,3.8,3.1,7.5,4.9,11.5c2.8,6.1,5.7,12.5,7.5,19.4
		c3,11.7,2.2,27.6-9,37.2l-9.1-10.6c6.3-5.4,6.4-15.8,4.5-23.1c-1.5-5.7-4-11.2-6.7-17c-1.8-4-3.8-8.2-5.3-12.5
		c-8.4-23-7.2-49.9,3.2-75.9C544.7,3251.6,547.5,3245.8,550.7,3240.2z M809.4,3171.8c-7.2-21.1-27.9-38.2-52.6-43.6
		c-27.9-6.1-54.5,2.3-72,10.4c-6.3,2.9-12.4,6.2-18.3,9.8c0,10.3,1.1,20.3,3.4,29.8c7.2,29.6,27.1,54.6,51.9,65.2
		c26.7,11.4,59.8,4.6,77-15.6c4-4.7,7.1-10,9.4-15.7C813.2,3199.4,813.8,3184.9,809.4,3171.8z M1452.6,2888
		c-6-16.7-22.6-29-39.5-29.2c-12.5-0.1-25.8,5.4-41.6,17.5c-21.8,16.6-40.6,37.9-58.8,58.5c-0.1,0.1-0.2,0.2-0.3,0.4l24.8,10
		c17.6,7.1,37.6,15.2,57.4,14.9c18.9-0.3,37-8.5,48.2-22c3.7-4.4,6.6-9.4,8.7-14.6C1456.1,2912.1,1456.6,2899.3,1452.6,2888z"/>
	<path class="st0" d="M659,3563.4c-42.9-9.2-73.4-23.4-95.9-44.6c-28-26.3-40.6-64.6-32-96.6c-3,2.3-6,4.5-9,6.6
		c-57,40.9-123.2,71-191.4,87.1l-3.2-13.6c66.5-15.7,131-45,186.5-84.9c18.4-13.2,38.1-28.9,38.2-47.7l14-0.8
		c1.7,15.5-4.7,25.5-10.9,35.2c-3.5,5.5-7.2,11.2-9.5,18.2c-10.5,32.1,6,66.4,27.1,86.2c20.6,19.4,49,32.4,89.3,41.1L659,3563.4z"/>
	
		<ellipse transform="matrix(0.9292 -0.3697 0.3697 0.9292 -1269.5216 327.3401)" class="st7" cx="219.3" cy="3476.1" rx="61.4" ry="12.8"/>
	<path class="st0" d="M170,3489.7c-12.8,4-20.4,26.5-7.3,35.4c17.8,12.1,36.9,21.1,41.2,22.9l-23.7,9.4c-6.5,2.6-9.4,10.3-6.7,17.1
		l0.5,1.3c2.7,6.8,10,10.3,16.5,7.7l167.1-66.5l-10.4-26.1l-69.3,27.6c1.6-5.3,10.1-33.3,12.6-40.6c3.4-9.9-1.1-17.6-1.1-17.6
		c-1.6-2.8-3.5-4.9-5.5-6.4c-5.2-4-12.5-5.9-17.8-2.5C249.3,3462.4,184.2,3485.2,170,3489.7z"/>
	<path class="st8" d="M415.3,3470.6l5.8,14.6c1.3,3.2-0.3,6.9-3.5,8.2l-78.1,31.1l-10.5-26.4l78.1-31.1
		C410.3,3465.8,414,3467.4,415.3,3470.6z"/>
	
		<ellipse transform="matrix(0.3697 -0.9292 0.9292 0.3697 -2777.9006 2981.4849)" class="st7" cx="808.6" cy="3538.2" rx="12.8" ry="61.4"/>
	<path class="st0" d="M857.7,3552c12.8,4,20.4,26.5,7.3,35.4c-17.8,12.1-37,21.1-41.2,22.9l23.7,9.4c6.5,2.6,9.4,10.3,6.7,17.1
		l-0.5,1.3c-2.7,6.8-10,10.3-16.5,7.7l-167.1-66.5l10.4-26.1l69.3,27.6c-1.6-5.3-10.1-33.3-12.6-40.6c-3.4-9.9,1.1-17.6,1.1-17.6
		c1.6-2.8,3.5-4.9,5.5-6.4c5.2-4,12.5-5.9,17.8-2.5C778.5,3524.8,843.5,3547.6,857.7,3552z"/>
	<path class="st8" d="M612.5,3532.9l-5.8,14.6c-1.3,3.2,0.3,6.9,3.5,8.2l78.2,31.1l10.5-26.4l-78.2-31.1
		C617.4,3528.1,613.8,3529.7,612.5,3532.9z"/>
</g>
<g id="Layer_6">
	<g>
		<path class="st9" d="M2425.9,3089.5c0,19.2-1.4,38.1-4.1,56.5c-27.4,188.1-189.3,332.4-384.8,332.4c-5.7,0-11.2-0.1-16.8-0.4
			c-207-8.8-372.2-179.4-372.2-388.6c0-214.8,174.2-388.9,389-388.9C2251.7,2700.6,2425.9,2874.7,2425.9,3089.5z"/>
		<path class="st0" d="M2036.9,2689.4c-220.6,0-400.2,179.4-400.2,400.1c0,215.1,168.1,390.6,382.9,399.7c4.2,0.1,8.3,0.3,12.5,0.3
			l-11.4-11.4l-11.7-11.8c-197.2-14.2-350-177.6-350-376.7c0-208.3,169.5-377.8,377.8-377.8c208.3,0,377.8,169.5,377.8,377.8
			c0,15.1-0.9,30.4-2.8,45.4l10,10l9.7,9.7c0.4-2.3,0.7-4.6,1.1-7c2.8-19.2,4.2-38.8,4.2-58.1
			C2437,2868.9,2257.6,2689.4,2036.9,2689.4z"/>
	</g>
	<path class="st5" d="M2431.6,3154.6c-31.3,191.4-199.8,334.9-394.7,334.9c-1.6,0-3.2,0-4.8-0.1l-11.4-11.4l-11.7-11.8
		c3.8,0.3,7.7,0.5,11.5,0.7c5.4,0.2,10.8,0.4,16.4,0.4c186.4,0,347-138.8,373.8-322.9c0.4-3.1,0.9-6.3,1.2-9.4l10,10L2431.6,3154.6z
		"/>
	<path class="st10" d="M2411.9,3134.9c-0.3,3.1-0.7,6.3-1.2,9.4c-26.8,184.1-187.5,322.9-373.8,322.9c-5.5,0-10.9-0.1-16.4-0.4
		c-3.9-0.1-7.7-0.4-11.5-0.7l-342.3-345.6l552.8-177.6L2411.9,3134.9z"/>
	<path class="st11" d="M1679.1,3120.7h135c0.2,0,0.4-0.2,0.4-0.4v-54.9c0-2.9-2.4-5.3-5.3-5.3h-129.4c-16.9,0-30.7,13.8-30.7,30.6
		l0,0C1649.2,3107.2,1662.6,3120.7,1679.1,3120.7z"/>
	
		<ellipse transform="matrix(0.7071 -0.7071 0.7071 0.7071 -1588.0112 2345.1724)" class="st11" cx="2036.9" cy="3089.5" rx="233" ry="233"/>
	<path class="st12" d="M2229.2,3089.5c0,106.2-86.1,192.3-192.2,192.3c-60.3,0-114-27.7-149.3-71.1c-27-33-43-75.2-43-121.2
		c0-106.2,86.1-192.3,192.3-192.3c74.8,0,139.6,42.7,171.3,105.2C2221.6,3028.5,2229.2,3058.1,2229.2,3089.5z"/>
	<path class="st13" d="M2229.2,3089.5c0,106.2-86.1,192.3-192.2,192.3c-60.3,0-114-27.7-149.3-71.1c-13.4-26.2-20.9-55.8-20.9-87.1
		c0-106.1,86.1-192.3,192.2-192.3c60.3,0,114,27.7,149.3,71.1C2221.6,3028.5,2229.2,3058.1,2229.2,3089.5z"/>
</g>
<g id="Layer_7">
	<path class="st11" d="M2825.5,1029.9l-476.8,414.5l-693.9-798.4l476.8-414.5c28.6-24.9,72.1-21.9,96.9,6.8l37.5,43.1l1.5,1.8
		l35.5,40.8l1.5,1.8l33.9,39l1.5,1.8l33.9,39l1.5,1.8l33.9,39l1.5,1.8l421.4,484.8c3,3.5,5.7,7.2,7.9,11.1c0.4,0.7,0.8,1.4,1.2,2.1
		C2855.8,973.7,2850,1008.5,2825.5,1029.9z"/>
	<path class="st14" d="M1732.7,644.3c6.5,7.4,6.9,17.6,1.1,22.7c-5.9,5.1-15.9,3.2-22.3-4.2s-6.9-17.6-1.1-22.7
		C1716.3,635,1726.3,636.9,1732.7,644.3z"/>
	<path class="st14" d="M1805.6,728.1c6.5,7.4,6.9,17.6,1.1,22.7c-5.9,5.1-15.9,3.2-22.3-4.2s-6.9-17.6-1.1-22.7
		C1789.1,718.8,1799.1,720.7,1805.6,728.1z"/>
	<path class="st14" d="M1874.1,809.6c6.5,7.4,6.9,17.6,1.1,22.7c-5.9,5.1-15.9,3.2-22.3-4.2s-6.9-17.6-1.1-22.7
		C1857.6,800.3,1867.6,802.2,1874.1,809.6z"/>
	<path class="st14" d="M1950,890.7c6.5,7.4,6.9,17.6,1.1,22.7c-5.9,5.1-15.9,3.2-22.3-4.2s-6.9-17.6-1.1-22.7
		C1933.6,881.4,1943.6,883.3,1950,890.7z"/>
	<path class="st14" d="M2019.8,971c6.5,7.4,6.9,17.6,1.1,22.7c-5.9,5.1-15.9,3.2-22.3-4.2s-6.9-17.6-1.1-22.7
		C2003.4,961.7,2013.4,963.6,2019.8,971z"/>
	<path class="st14" d="M2089.7,1051.4c6.5,7.4,6.9,17.6,1.1,22.7s-15.9,3.2-22.3-4.2c-6.5-7.4-6.9-17.6-1.1-22.7
		S2083.2,1044,2089.7,1051.4z"/>
	<path class="st14" d="M2159.5,1131.8c6.5,7.4,6.9,17.6,1.1,22.7s-15.9,3.2-22.3-4.2c-6.5-7.4-6.9-17.6-1.1-22.7
		C2143.1,1122.4,2153.1,1124.3,2159.5,1131.8z"/>
	
		<ellipse transform="matrix(0.7548 -0.656 0.656 0.7548 -260.2768 1760.8179)" class="st14" cx="2225" cy="1228.5" rx="14.1" ry="17.8"/>
	<path class="st14" d="M2306.9,1301.3c6.5,7.4,6.9,17.6,1.1,22.7s-15.9,3.2-22.3-4.2s-6.9-17.6-1.1-22.7
		C2290.5,1292,2300.5,1293.9,2306.9,1301.3z"/>
	<path class="st15" d="M1725.7,644.2l-73.2,63.6c-1.4,1.2-3.6,1.1-4.8-0.3l0,0c-1.2-1.4-1.1-3.5,0.3-4.8l73.2-63.6
		c1.4-1.2,3.6-1.1,4.8,0.3l0,0C1727.2,640.9,1727.1,643,1725.7,644.2z"/>
	<path class="st15" d="M1736.6,658.1l-73.2,63.6c-1.4,1.2-3.6,1.1-4.8-0.3l0,0c-1.2-1.4-1.1-3.5,0.3-4.8l73.2-63.6
		c1.4-1.2,3.6-1.1,4.8,0.3l0,0C1738.1,654.8,1738,656.9,1736.6,658.1z"/>
	<path class="st15" d="M1798,727.8l-73.2,63.6c-1.4,1.2-3.6,1.1-4.8-0.3l0,0c-1.2-1.4-1.1-3.5,0.3-4.8l73.2-63.6
		c1.4-1.2,3.6-1.1,4.8,0.3l0,0C1799.6,724.4,1799.4,726.6,1798,727.8z"/>
	<path class="st15" d="M1809.2,740.7l-73.2,63.6c-1.4,1.2-3.6,1.1-4.8-0.3l0,0c-1.2-1.4-1.1-3.5,0.3-4.8l73.2-63.6
		c1.4-1.2,3.6-1.1,4.8,0.3l0,0C1810.8,737.3,1810.6,739.5,1809.2,740.7z"/>
	<path class="st15" d="M1866.5,809.4l-73.2,63.6c-1.4,1.2-3.6,1.1-4.8-0.3l0,0c-1.2-1.4-1.1-3.5,0.3-4.8l73.2-63.6
		c1.4-1.2,3.6-1.1,4.8,0.3l0,0C1868.1,806.1,1867.9,808.2,1866.5,809.4z"/>
	<path class="st15" d="M1877.7,822.3l-73.2,63.6c-1.4,1.2-3.6,1.1-4.8-0.3l0,0c-1.2-1.4-1.1-3.5,0.3-4.8l73.2-63.6
		c1.4-1.2,3.6-1.1,4.8,0.3l0,0C1879.2,818.9,1879.1,821.1,1877.7,822.3z"/>
	<path class="st15" d="M1942.4,890.5l-73.2,63.6c-1.4,1.2-3.6,1.1-4.8-0.3l0,0c-1.2-1.4-1.1-3.5,0.3-4.8l73.2-63.6
		c1.4-1.2,3.6-1.1,4.8,0.3l0,0C1944,887.1,1943.8,889.2,1942.4,890.5z"/>
	<path class="st15" d="M1953.6,903.3l-73.2,63.6c-1.4,1.2-3.6,1.1-4.8-0.3l0,0c-1.2-1.4-1.1-3.5,0.3-4.8l73.2-63.6
		c1.4-1.2,3.6-1.1,4.8,0.3l0,0C1955.1,900,1955,902.1,1953.6,903.3z"/>
	<path class="st15" d="M2012.3,970.8l-73.2,63.6c-1.4,1.2-3.6,1.1-4.8-0.3l0,0c-1.2-1.4-1.1-3.6,0.3-4.8l73.2-63.6
		c1.4-1.2,3.6-1.1,4.8,0.3l0,0C2013.8,967.4,2013.7,969.6,2012.3,970.8z"/>
	<path class="st15" d="M2023.5,983.7l-73.2,63.6c-1.4,1.2-3.6,1.1-4.8-0.3l0,0c-1.2-1.4-1.1-3.6,0.3-4.8l73.2-63.6
		c1.4-1.2,3.6-1.1,4.8,0.3l0,0C2025,980.3,2024.9,982.4,2023.5,983.7z"/>
	<path class="st15" d="M2082.2,1051.2l-73.2,63.6c-1.4,1.2-3.6,1.1-4.8-0.3l0,0c-1.2-1.4-1.1-3.6,0.3-4.8l73.2-63.6
		c1.4-1.2,3.6-1.1,4.8,0.3l0,0C2083.8,1047.8,2083.6,1050,2082.2,1051.2z"/>
	<path class="st15" d="M2093.4,1064l-73.2,63.6c-1.4,1.2-3.6,1.1-4.8-0.3l0,0c-1.2-1.4-1.1-3.6,0.3-4.8l73.2-63.6
		c1.4-1.2,3.6-1.1,4.8,0.3l0,0C2095,1060.7,2094.8,1062.8,2093.4,1064z"/>
	<path class="st15" d="M2152,1131.5l-73.2,63.6c-1.4,1.2-3.6,1.1-4.8-0.3l0,0c-1.2-1.4-1.1-3.6,0.3-4.8l73.2-63.6
		c1.4-1.2,3.6-1.1,4.8,0.3l0,0C2153.6,1128.1,2153.4,1130.3,2152,1131.5z"/>
	<path class="st15" d="M2163.2,1144.4L2090,1208c-1.4,1.2-3.6,1.1-4.8-0.3l0,0c-1.2-1.4-1.1-3.6,0.3-4.8l73.2-63.6
		c1.4-1.2,3.6-1.1,4.8,0.3l0,0C2164.7,1141,2164.6,1143.2,2163.2,1144.4z"/>
	<path class="st15" d="M2228,1218.9l-73.2,63.6c-1.4,1.2-3.6,1.1-4.8-0.3l0,0c-1.2-1.4-1.1-3.6,0.3-4.8l73.2-63.6
		c1.4-1.2,3.6-1.1,4.8,0.3l0,0C2229.6,1215.6,2229.4,1217.7,2228,1218.9z"/>
	<path class="st15" d="M2239.2,1231.8l-73.2,63.6c-1.4,1.2-3.6,1.1-4.8-0.3l0,0c-1.2-1.4-1.1-3.6,0.3-4.8l73.2-63.6
		c1.4-1.2,3.6-1.1,4.8,0.3l0,0C2240.7,1228.4,2240.6,1230.6,2239.2,1231.8z"/>
	<path class="st15" d="M2299.3,1301.1l-73.2,63.6c-1.4,1.2-3.6,1.1-4.8-0.3l0,0c-1.2-1.4-1.1-3.6,0.3-4.8l73.2-63.6
		c1.4-1.2,3.6-1.1,4.8,0.3l0,0C2300.8,1297.8,2300.7,1299.9,2299.3,1301.1z"/>
	<path class="st15" d="M2310.4,1314l-73.2,63.6c-1.4,1.2-3.6,1.1-4.8-0.3l0,0c-1.2-1.4-1.1-3.6,0.3-4.8l73.2-63.6
		c1.4-1.2,3.6-1.1,4.8,0.3l0,0C2312,1310.6,2311.9,1312.8,2310.4,1314z"/>
	
		<rect x="1689.7" y="553.2" transform="matrix(0.7547 -0.656 0.656 0.7547 136.5472 1473.985)" class="st14" width="699.8" height="2.3"/>
	
		<rect x="1652.8" y="510.7" transform="matrix(0.7548 -0.656 0.656 0.7548 155.3616 1439.2783)" class="st14" width="699.8" height="2.4"/>
	
		<rect x="1620.5" y="473.4" transform="matrix(0.7548 -0.656 0.656 0.7548 171.8615 1408.9008)" class="st14" width="699.8" height="2.4"/>
	
		<rect x="1725.3" y="594" transform="matrix(0.7548 -0.656 0.656 0.7548 118.4361 1507.2693)" class="st14" width="699.8" height="2.4"/>
	
		<rect x="1760.8" y="634.9" transform="matrix(0.7548 -0.656 0.656 0.7548 100.3654 1540.5474)" class="st14" width="699.8" height="2.4"/>
	
		<rect x="1796.2" y="675.7" transform="matrix(0.7548 -0.656 0.656 0.7548 82.2868 1573.8204)" class="st14" width="699.8" height="2.4"/>
	
		<rect x="1831.6" y="716.3" transform="matrix(0.7548 -0.656 0.656 0.7548 64.4273 1607.2169)" class="st14" width="700.5" height="2.4"/>
	
		<rect x="1867.1" y="757.1" transform="matrix(0.7548 -0.656 0.656 0.7548 46.3529 1640.4847)" class="st14" width="700.5" height="2.4"/>
	
		<rect x="1901" y="796.1" transform="matrix(0.7548 -0.656 0.656 0.7548 29.07 1672.3124)" class="st14" width="700.5" height="2.4"/>
	
		<rect x="1938" y="838.7" transform="matrix(0.7548 -0.656 0.656 0.7548 10.2124 1707.0332)" class="st14" width="700.5" height="2.4"/>
	
		<rect x="1972" y="877.7" transform="matrix(0.7548 -0.656 0.656 0.7548 -7.0738 1738.8672)" class="st14" width="700.5" height="2.4"/>
	
		<rect x="2005.9" y="916.8" transform="matrix(0.7548 -0.656 0.656 0.7548 -24.3626 1770.6915)" class="st14" width="700.5" height="2.4"/>
	
		<rect x="2042.9" y="959.3" transform="matrix(0.7548 -0.656 0.656 0.7548 -43.22 1805.4122)" class="st14" width="700.5" height="2.4"/>
	
		<rect x="2081.5" y="1003.7" transform="matrix(0.7548 -0.656 0.656 0.7548 -62.863 1841.5764)" class="st14" width="700.5" height="2.4"/>
	
		<rect x="2118.5" y="1046.3" transform="matrix(0.7548 -0.656 0.656 0.7548 -81.7204 1876.2972)" class="st14" width="700.5" height="2.4"/>
	
		<rect x="2153.9" y="1087.1" transform="matrix(0.7548 -0.656 0.656 0.7548 -99.7921 1909.5746)" class="st14" width="700.5" height="2.4"/>
	
		<rect x="2191" y="1129.7" transform="matrix(0.7548 -0.656 0.656 0.7548 -118.6496 1944.2953)" class="st14" width="700.5" height="2.4"/>
	<path class="st14" d="M2841.3,946.1L2314.5,1404l-1.6-1.8L2840.2,944C2840.6,944.7,2840.9,945.4,2841.3,946.1z"/>
</g>
<g id="Layer_4">
	
		<rect x="218.9" y="300.6" transform="matrix(0.6748 -0.738 0.738 0.6748 -263.241 645.8712)" class="st16" width="764.7" height="642.1"/>
	
		<rect x="3543.2" y="1279.6" transform="matrix(0.9201 -0.3917 0.3917 0.9201 -313.3044 1665.5428)" class="st16" width="764.7" height="642.1"/>
	<path class="st17" d="M964.7,228.5l-76.9,437.9c-0.5,2.7,2.7,5.5,7,6.2l41.9,7.4c4.3,0.8,8.2-0.8,8.7-3.5l76.9-437.9
		c0.1-0.4,0.1-0.8,0-1.1l-57.2-10.1C964.9,227.8,964.8,228.1,964.7,228.5z"/>
	<path class="st18" d="M919.8,677l17,3c4.3,0.8,8.2-0.8,8.7-3.5l76.9-437.9c0.1-0.4,0.1-0.8,0-1.1l-17-3c0.1,0.3,0.1,0.6,0,0.9
		c0,0.1,0,0.2,0,0.3l-76.9,437.9C928,676.2,924.1,677.8,919.8,677z"/>
	<path class="st19" d="M985,232.1l-76.9,437.9c-0.5,2.7,0.4,5.1,1.9,5.3l14.8,2.6c1.5,0.3,3.2-1.7,3.6-4.4l76.9-437.9
		c0-0.1,0-0.2,0-0.3c0-0.3,0.1-0.6,0.1-0.8l-20.2-3.5C985.2,231.3,985.1,231.7,985,232.1z"/>
	<path class="st3" d="M1022.4,237.5c0,0-8.8-99-12-99.7s-45.3,89.7-45.3,89.7L1022.4,237.5z"/>
	<path class="st20" d="M1015.9,172.1c0,0-3.6-35-5.3-35c-2.1,0-17,31-17,31L1015.9,172.1z"/>
	<path class="st21" d="M2735.5,1747.2c-28.9-14.1-64.2-2-78.3,26.9l-177.1,362.3c-14.1,28.9-2,64.2,26.9,78.3l502.8,245.7
		c28.9,14.1,64.2,2,78.3-26.9l177.1-362.3c14.1-28.9,2-64.2-26.9-78.3L2735.5,1747.2z"/>
	<path class="st22" d="M2685.1,2301.8l-210.7-150.3c0.4-5.5,5.8-15.4,8.5-20.8l84.9-170c0,0,157.7-216.9,158.3-217.7l201.6,103.7
		l315.3,210.9l-4.1,10.2L2738,2327.2L2685.1,2301.8z"/>
	<path class="st23" d="M2823.3,1741c-25.8-19.3-62.7-14-82,11.8l-241.7,322.8c-19.3,25.8-14,62.7,11.8,82l447.9,335.4
		c25.8,19.3,62.7,14,82-11.8l241.7-322.8c19.3-25.8,14-62.7-11.8-82L2823.3,1741z"/>
	<path class="st24" d="M3080.4,2416.2l-107.8-69.8c0,0-12.6-12-24.2,2.1c-11.5,14-50.3,99.5-50.3,99.5L3080.4,2416.2z"/>
	<path class="st25" d="M3086.2,2420.4l-95.7-69.4c0,0-12.6-12-24.2,2.1c-11.6,14-68.7,94.6-68.7,94.6L3086.2,2420.4z"/>
	<path class="st22" d="M2813.1,2261.2c-3.6-2.7-4.3-7.8-1.6-11.4l185.6-248.1c2.7-3.6,7.8-4.3,11.4-1.6l0,0
		c3.6,2.7,4.3,7.8,1.6,11.4l-185.6,248.1C2821.8,2263.2,2816.7,2263.9,2813.1,2261.2L2813.1,2261.2z"/>
	<path class="st22" d="M2840.8,2169c-3.6-2.7-4.3-7.8-1.6-11.4l131.8-174.9c2.7-3.6,7.8-4.3,11.4-1.6l0,0c3.6,2.7,4.3,7.8,1.6,11.4
		l-131.8,174.9C2849.4,2171,2844.4,2171.7,2840.8,2169L2840.8,2169z"/>
	<path class="st22" d="M2757.9,2221.1c-3.6-2.7-4.3-7.8-1.6-11.4l185.6-248.1c2.7-3.6,7.8-4.3,11.4-1.6l0,0
		c3.6,2.7,4.3,7.8,1.6,11.4l-185.6,248.1C2766.6,2223.1,2761.5,2223.8,2757.9,2221.1L2757.9,2221.1z"/>
	<path class="st22" d="M2798.7,2101.6c-3.6-2.7-4.3-7.8-1.6-11.4l113.8-151.1c2.7-3.6,7.8-4.3,11.4-1.6l0,0
		c3.6,2.7,4.3,7.8,1.6,11.4l-113.8,151.1C2807.4,2103.5,2802.3,2104.3,2798.7,2101.6L2798.7,2101.6z"/>
	<path class="st22" d="M2748.2,2109.1c-3.6-2.7-4.3-7.8-1.6-11.4l135.3-179.7c2.7-3.6,7.8-4.3,11.4-1.6l0,0
		c3.6,2.7,4.3,7.8,1.6,11.4l-135.3,179.7C2756.8,2111,2751.7,2111.8,2748.2,2109.1L2748.2,2109.1z"/>
	<path class="st22" d="M2666.6,2154.7c-3.6-2.7-4.3-7.8-1.6-11.4l185.6-248.1c2.7-3.6,7.8-4.3,11.4-1.6l0,0
		c3.6,2.7,4.3,7.8,1.6,11.4l-185.6,248.1C2675.2,2156.7,2670.1,2157.4,2666.6,2154.7L2666.6,2154.7z"/>
	<path class="st22" d="M2638.1,2134.1c-3.6-2.7-4.3-7.8-1.6-11.4l185.6-248.1c2.7-3.6,7.8-4.3,11.4-1.6l0,0
		c3.6,2.7,4.3,7.8,1.6,11.4l-185.6,248.1C2646.8,2136,2641.7,2136.7,2638.1,2134.1L2638.1,2134.1z"/>
	<path class="st20" d="M3381.3,2250.7l-90.6,435.2c-0.6,2.7,2.5,5.6,6.8,6.5l41.7,8.7c4.3,0.9,8.3-0.5,8.8-3.2l90.6-435.2
		c0.1-0.4,0.1-0.8,0-1.1l-56.9-11.9C3381.5,2250,3381.4,2250.4,3381.3,2250.7z"/>
	<path class="st15" d="M3322.2,2697.6l16.9,3.5c4.3,0.9,8.3-0.5,8.8-3.2l90.6-435.2c0.1-0.4,0.1-0.8,0-1.1l-16.9-3.5
		c0.1,0.3,0.1,0.6,0,0.9c0,0.1,0,0.2,0,0.3l-90.6,435.2C3330.4,2697,3326.5,2698.5,3322.2,2697.6z"/>
	<path class="st26" d="M3401.5,2254.9l-90.6,435.2c-0.6,2.7,0.2,5.1,1.7,5.4l14.7,3.1c1.5,0.3,3.2-1.6,3.8-4.3l90.6-435.2
		c0-0.1,0-0.2,0-0.3c0.1-0.3,0.1-0.6,0.1-0.8l-20.1-4.2C3401.6,2254.2,3401.5,2254.6,3401.5,2254.9z"/>
	<path class="st13" d="M3438.6,2261.5c0,0-5.6-99.3-8.9-100.1c-3.2-0.8-48.1,88.2-48.1,88.2L3438.6,2261.5z"/>
	<path class="st23" d="M3434.2,2195.9c0,0-2.5-35.1-4.2-35.2c-2.1-0.1-18,30.4-18,30.4L3434.2,2195.9z"/>
	<path class="st27" d="M3125.7,2194.2l256.2,363.3c1.6,2.2,5.8,2,9.4-0.6l34.8-24.5c3.6-2.5,5.2-6.4,3.7-8.6l-256.2-363.3
		c-0.2-0.3-0.5-0.6-0.8-0.8l-47.5,33.5C3125.4,2193.6,3125.5,2193.9,3125.7,2194.2z"/>
	<path class="st28" d="M3412,2542.4l14.1-10c3.6-2.5,5.2-6.4,3.7-8.6l-256.2-363.3c-0.2-0.3-0.5-0.6-0.8-0.8l-14.1,10
		c0.2,0.2,0.5,0.4,0.6,0.6c0.1,0.1,0.1,0.1,0.2,0.2l256.2,363.3C3417.2,2536,3415.6,2539.9,3412,2542.4z"/>
	<path class="st29" d="M3142.6,2182.3l256.2,363.3c1.6,2.2,3.9,3.3,5.1,2.4l12.3-8.6c1.3-0.9,1-3.4-0.6-5.7l-256.2-363.3
		c-0.1-0.1-0.1-0.2-0.2-0.2c-0.2-0.2-0.3-0.4-0.5-0.6l-16.8,11.8C3142.2,2181.7,3142.4,2182,3142.6,2182.3z"/>
	<path class="st30" d="M3172.8,2159.7c0,0-76.4-63.6-79.2-61.8c-2.8,1.8,31.6,95.3,31.6,95.3L3172.8,2159.7z"/>
	<path class="st29" d="M3121.8,2118.1c0,0-27.4-22.1-28.6-20.9c-1.6,1.5,9.9,33.9,9.9,33.9L3121.8,2118.1z"/>
</g>
<g id="Layer_2_1_">
	<path class="st26" d="M4141.2,1030.5c-7.8,24.8-296.9,300-572.4,534.9c-285.6,243.5-1003.1,632.9-1003.1,632.9
		c-495.3,198.1-1297.7,292.7-1297.7,292.7l-508.8-10.8l9.8-862.5l1319.7,30.8c214.9-139.9,770.9-285.1,922.2-344.4
		c24.7-9.7,38.7-15.1,38.7-15.1c74.8-64.1,171.1-67.9,223.8-97.3c71.7-39.9,141.4-68.4,202.1-123.7c57.8-52.6,145.5-82,208.2-121
		c92.8-57.8,156.1-115.9,192.5-132.6c12.1-5.5,18.9-8.4,18.9-8.4C4151.8,813.1,4141.2,1030.5,4141.2,1030.5z"/>
	<path class="st14" d="M3876.5,814.4C3619,1073,2695,1868.3,2695,1868.3l-10.2-343.3c24.7-9.7,383.3-251,383.3-251
		c96.8-51,242.2-130.9,295.8-162c104.1-60.3,276.9-158.2,351-202S3876.5,814.4,3876.5,814.4z"/>
	<path class="st15" d="M4505.8,2073.2l-285.1-49.6c0,0-713.5-172.9-991.5-204.1c0,0-673.5-84.7-907-104.8
		c0,0-1294.4-59.4-1483.1-73.6l-110.6-535.7L1232,854.1c0,0,561.1,96.6,1135.8,207.6c456.9,88.3,922.4,185.7,1121.5,250.9
		l519.8,172.7c56,18.6,299,107.8,361.5,145.7c40.3,24.4,89,20.2,141,96c0,0,102.9,58.4,169,166.8c0,0,55.6-13.9,58,23.9
		C4740.9,1955.5,4640.2,2073.2,4505.8,2073.2z"/>
	<path class="st14" d="M4803.2,508c0,216.6-223.1,309.5-338.2,343c-50.7,14.8-99.3,36.2-144.2,64.1l-142,88.2
		c0,0-10.6-207-238.8-228.2l393.3-329l86.6-72.4c63.3-55.5,167.3-108,247.4-81.8c37.6,12.3,73.9,34.5,99.4,73.3v0
		C4789.1,398.8,4803.2,445,4803.2,508z"/>
	<path class="st31" d="M548,2535.4c0,0,268.4,51.6,280.3-10.5C962,1826.9,842.7,812.2,842.7,812.2L493.6,839L548,2535.4z"/>
	<path class="st20" d="M4511.6,1727c-615.9-327.3-2167.1-579.5-2167.1-579.5l23.2-85.8c456.9,88.3,922.4,185.7,1121.5,250.9
		l519.8,172.7c56,18.6,293.7,96.4,358.9,129.4C4426.6,1644.3,4497.7,1697.7,4511.6,1727z"/>
	<path class="st32" d="M969.6,2369.7V975.1c0-40.8,33.1-73.9,73.9-73.9h930c40.8,0,73.9,33.1,73.9,73.9v1394.6
		c0,40.8-33.1,73.9-73.9,73.9h-930C1002.7,2443.6,969.6,2410.5,969.6,2369.7z"/>
	<path class="st33" d="M1427.5,2316.2V1021.9c0-15.4,12.5-27.9,27.9-27.9h497c15.4,0,27.9,12.5,27.9,27.9v1294.4
		c0,15.4-12.5,27.9-27.9,27.9h-497C1440,2344.2,1427.5,2331.7,1427.5,2316.2z"/>
	<path class="st8" d="M1015.4,1906.2v-464.6c0-10.6,8.6-19.2,19.2-19.2h326.8c10.6,0,19.2,8.6,19.2,19.2v464.6
		c0,10.6-8.6,19.2-19.2,19.2h-326.8C1024,1925.4,1015.4,1916.8,1015.4,1906.2z"/>
	<g>
		<path class="st0" d="M1901.6,1089.2v-55.7c0-7.8,6.3-14,14.1-14h23.1c7.8,0,14.1,6.3,14.1,14v55.7c0,7.8-6.3,14.1-14.1,14.1h-23.1
			C1907.9,1103.2,1901.6,1096.9,1901.6,1089.2z"/>
		<path class="st0" d="M1901.6,1183v-55.7c0-7.8,6.3-14.1,14.1-14.1h23.1c7.8,0,14.1,6.3,14.1,14.1v55.7c0,7.8-6.3,14.1-14.1,14.1
			h-23.1C1907.9,1197.1,1901.6,1190.8,1901.6,1183z"/>
		<path class="st0" d="M1901.6,1276.9v-55.7c0-7.8,6.3-14.1,14.1-14.1h23.1c7.8,0,14.1,6.3,14.1,14.1v55.7c0,7.8-6.3,14.1-14.1,14.1
			h-23.1C1907.9,1290.9,1901.6,1284.6,1901.6,1276.9z"/>
		<path class="st0" d="M1901.6,1370.7v-55.7c0-7.8,6.3-14.1,14.1-14.1h23.1c7.8,0,14.1,6.3,14.1,14.1v55.7c0,7.8-6.3,14.1-14.1,14.1
			h-23.1C1907.9,1384.8,1901.6,1378.5,1901.6,1370.7z"/>
		<path class="st0" d="M1901.6,1464.6v-55.7c0-7.8,6.3-14.1,14.1-14.1h23.1c7.8,0,14.1,6.3,14.1,14.1v55.7c0,7.8-6.3,14.1-14.1,14.1
			h-23.1C1907.9,1478.7,1901.6,1472.3,1901.6,1464.6z"/>
		<path class="st0" d="M1901.6,1558.4v-55.7c0-7.8,6.3-14.1,14.1-14.1h23.1c7.8,0,14.1,6.3,14.1,14.1v55.7c0,7.8-6.3,14.1-14.1,14.1
			h-23.1C1907.9,1572.5,1901.6,1566.2,1901.6,1558.4z"/>
		<path class="st0" d="M1901.6,1652.3v-55.7c0-7.8,6.3-14.1,14.1-14.1h23.1c7.8,0,14.1,6.3,14.1,14.1v55.7c0,7.8-6.3,14.1-14.1,14.1
			h-23.1C1907.9,1666.4,1901.6,1660.1,1901.6,1652.3z"/>
		<path class="st0" d="M1901.6,1746.2v-55.7c0-7.8,6.3-14.1,14.1-14.1h23.1c7.8,0,14.1,6.3,14.1,14.1v55.7c0,7.8-6.3,14.1-14.1,14.1
			h-23.1C1907.9,1760.2,1901.6,1753.9,1901.6,1746.2z"/>
		<path class="st0" d="M1901.6,1840v-55.7c0-7.8,6.3-14.1,14.1-14.1h23.1c7.8,0,14.1,6.3,14.1,14.1v55.7c0,7.8-6.3,14.1-14.1,14.1
			h-23.1C1907.9,1854.1,1901.6,1847.8,1901.6,1840z"/>
		<path class="st0" d="M1901.6,1933.9v-55.7c0-7.8,6.3-14.1,14.1-14.1h23.1c7.8,0,14.1,6.3,14.1,14.1v55.7c0,7.8-6.3,14.1-14.1,14.1
			h-23.1C1907.9,1947.9,1901.6,1941.6,1901.6,1933.9z"/>
		<path class="st0" d="M1901.6,2027.7v-55.7c0-7.8,6.3-14.1,14.1-14.1h23.1c7.8,0,14.1,6.3,14.1,14.1v55.7c0,7.8-6.3,14.1-14.1,14.1
			h-23.1C1907.9,2041.8,1901.6,2035.5,1901.6,2027.7z"/>
		<path class="st0" d="M1901.6,2121.6V2066c0-7.8,6.3-14.1,14.1-14.1h23.1c7.8,0,14.1,6.3,14.1,14.1v55.6c0,7.8-6.3,14.1-14.1,14.1
			h-23.1C1907.9,2135.6,1901.6,2129.4,1901.6,2121.6z"/>
		<path class="st0" d="M1901.6,2215.5v-55.6c0-7.8,6.3-14.1,14.1-14.1h23.1c7.8,0,14.1,6.3,14.1,14.1v55.6c0,7.8-6.3,14.1-14.1,14.1
			h-23.1C1907.9,2229.5,1901.6,2223.2,1901.6,2215.5z"/>
		<path class="st0" d="M1901.6,2309.3v-55.6c0-7.8,6.3-14.1,14.1-14.1h23.1c7.8,0,14.1,6.3,14.1,14.1v55.6c0,7.8-6.3,14.1-14.1,14.1
			h-23.1C1907.9,2323.4,1901.6,2317.1,1901.6,2309.3z"/>
		<path class="st0" d="M1818,1095.2v-69.7c0-1.7,1.4-3.1,3.1-3.1h69.7c1.7,0,3.1,1.4,3.1,3.1v69.7c0,1.7-1.4,3.1-3.1,3.1h-69.7
			C1819.4,1098.4,1818,1097,1818,1095.2z"/>
		<path class="st0" d="M1730.1,1233v-69.7c0-1.7,1.4-3.1,3.1-3.1h69.7c1.7,0,3.1,1.4,3.1,3.1v69.7c0,1.7-1.4,3.1-3.1,3.1h-69.7
			C1731.4,1236.1,1730.1,1234.7,1730.1,1233z"/>
		<path class="st0" d="M1642.1,1253.3v-69.7c0-1.7,1.4-3.1,3.1-3.1h69.7c1.7,0,3.1,1.4,3.1,3.1v69.7c0,1.7-1.4,3.1-3.1,3.1h-69.7
			C1643.5,1256.4,1642.1,1255,1642.1,1253.3z"/>
		<path class="st0" d="M1554.2,1300.5v-69.7c0-1.7,1.4-3.1,3.1-3.1h69.7c1.7,0,3.1,1.4,3.1,3.1v69.7c0,1.7-1.4,3.1-3.1,3.1h-69.7
			C1555.6,1303.7,1554.2,1302.3,1554.2,1300.5z"/>
		<path class="st0" d="M1456.6,1095v-69.3c0-1.8,1.5-3.3,3.3-3.3h78.9c1.8,0,3.3,1.5,3.3,3.3v69.3c0,1.8-1.5,3.3-3.3,3.3h-78.9
			C1458.1,1098.4,1456.6,1096.9,1456.6,1095z"/>
		<path class="st0" d="M1456.6,1187.6v-69.3c0-1.8,1.5-3.3,3.3-3.3h78.9c1.8,0,3.3,1.5,3.3,3.3v69.3c0,1.8-1.5,3.3-3.3,3.3h-78.9
			C1458.1,1190.9,1456.6,1189.4,1456.6,1187.6z"/>
		<path class="st0" d="M1456.6,1277.3V1208c0-1.8,1.5-3.3,3.3-3.3h78.9c1.8,0,3.3,1.5,3.3,3.3v69.3c0,1.8-1.5,3.3-3.3,3.3h-78.9
			C1458.1,1280.6,1456.6,1279.1,1456.6,1277.3z"/>
		<path class="st0" d="M1456.6,1390.3v-91.4c0-2.1,1.7-3.8,3.8-3.8h78c2.1,0,3.8,1.7,3.8,3.8v91.4c0,2.1-1.7,3.8-3.8,3.8h-78
			C1458.3,1394.1,1456.6,1392.4,1456.6,1390.3z"/>
		<path class="st0" d="M1456.6,1952.6v-91.4c0-2.1,1.7-3.8,3.8-3.8h78c2.1,0,3.8,1.7,3.8,3.8v91.4c0,2.1-1.7,3.8-3.8,3.8h-78
			C1458.3,1956.4,1456.6,1954.8,1456.6,1952.6z"/>
		<path class="st0" d="M1456.6,2045.2v-68.3c0-1.8,1.5-3.3,3.3-3.3h79c1.8,0,3.3,1.5,3.3,3.3v68.3c0,1.8-1.5,3.3-3.3,3.3h-79
			C1458.1,2048.5,1456.6,2047,1456.6,2045.2z"/>
		<path class="st0" d="M1456.6,1838.4v-421.8c0-4.4,3.6-8,8-8h69.6c4.4,0,8,3.6,8,8v421.8c0,4.4-3.6,8-8,8h-69.6
			C1460.2,1846.4,1456.6,1842.9,1456.6,1838.4z"/>
		<path class="st0" d="M1554.2,1391v-69.7c0-1.7,1.4-3.1,3.1-3.1h69.7c1.7,0,3.1,1.4,3.1,3.1v69.7c0,1.7-1.4,3.1-3.1,3.1h-69.7
			C1555.6,1394.1,1554.2,1392.7,1554.2,1391z"/>
		<path class="st0" d="M1554.2,1481.5v-69.7c0-1.7,1.4-3.1,3.1-3.1h69.7c1.7,0,3.1,1.4,3.1,3.1v69.7c0,1.7-1.4,3.1-3.1,3.1h-69.7
			C1555.6,1484.6,1554.2,1483.2,1554.2,1481.5z"/>
		<path class="st0" d="M1554.2,1571.9v-69.7c0-1.7,1.4-3.1,3.1-3.1h69.7c1.7,0,3.1,1.4,3.1,3.1v69.7c0,1.7-1.4,3.1-3.1,3.1h-69.7
			C1555.6,1575.1,1554.2,1573.7,1554.2,1571.9z"/>
		<path class="st0" d="M1554.2,1662.4v-69.7c0-1.7,1.4-3.1,3.1-3.1h69.7c1.7,0,3.1,1.4,3.1,3.1v69.7c0,1.7-1.4,3.1-3.1,3.1h-69.7
			C1555.6,1665.5,1554.2,1664.1,1554.2,1662.4z"/>
		<path class="st0" d="M1554.2,1752.8v-69.7c0-1.7,1.4-3.1,3.1-3.1h69.7c1.7,0,3.1,1.4,3.1,3.1v69.7c0,1.7-1.4,3.1-3.1,3.1h-69.7
			C1555.6,1756,1554.2,1754.6,1554.2,1752.8z"/>
		<path class="st0" d="M1554.2,1843.3v-69.7c0-1.7,1.4-3.1,3.1-3.1h69.7c1.7,0,3.1,1.4,3.1,3.1v69.7c0,1.7-1.4,3.1-3.1,3.1h-69.7
			C1555.6,1846.4,1554.2,1845,1554.2,1843.3z"/>
		<path class="st0" d="M1554.2,1933.8v-69.7c0-1.7,1.4-3.1,3.1-3.1h69.7c1.7,0,3.1,1.4,3.1,3.1v69.7c0,1.7-1.4,3.1-3.1,3.1h-69.7
			C1555.6,1936.9,1554.2,1935.5,1554.2,1933.8z"/>
		<path class="st0" d="M1554.2,2024.2v-69.7c0-1.7,1.4-3.1,3.1-3.1h69.7c1.7,0,3.1,1.4,3.1,3.1v69.7c0,1.7-1.4,3.1-3.1,3.1h-69.7
			C1555.6,2027.4,1554.2,2026,1554.2,2024.2z"/>
		<path class="st0" d="M1455.3,2126.9v-53c0-6.7,5.5-12.2,12.2-12.2h19.7c6.7,0,12.2,5.5,12.2,12.2v53c0,6.7-5.5,12.2-12.2,12.2
			h-19.7C1460.7,2139.1,1455.3,2133.6,1455.3,2126.9z"/>
		<path class="st0" d="M1455.3,2217.6v-53c0-6.7,5.5-12.2,12.2-12.2h19.7c6.7,0,12.2,5.5,12.2,12.2v53c0,6.7-5.5,12.2-12.2,12.2
			h-19.7C1460.7,2229.8,1455.3,2224.3,1455.3,2217.6z"/>
		<path class="st0" d="M1504.7,2217.6v-53c0-6.7,5.5-12.2,12.2-12.2h19.7c6.7,0,12.2,5.5,12.2,12.2v53c0,6.7-5.5,12.2-12.2,12.2
			h-19.7C1510.2,2229.8,1504.7,2224.3,1504.7,2217.6z"/>
		<path class="st0" d="M1455.3,2308.3v-53c0-6.7,5.5-12.2,12.2-12.2h19.7c6.7,0,12.2,5.5,12.2,12.2v53c0,6.7-5.5,12.2-12.2,12.2
			h-19.7C1460.7,2320.5,1455.3,2315.1,1455.3,2308.3z"/>
		<path class="st0" d="M1642.1,1344.6v-69.7c0-1.7,1.4-3.1,3.1-3.1h69.7c1.7,0,3.1,1.4,3.1,3.1v69.7c0,1.7-1.4,3.1-3.1,3.1h-69.7
			C1643.5,1347.7,1642.1,1346.3,1642.1,1344.6z"/>
		<path class="st0" d="M1642.1,1435.9v-69.7c0-1.7,1.4-3.1,3.1-3.1h69.7c1.7,0,3.1,1.4,3.1,3.1v69.7c0,1.7-1.4,3.1-3.1,3.1h-69.7
			C1643.5,1439,1642.1,1437.6,1642.1,1435.9z"/>
		<path class="st0" d="M1642.1,1527.2v-69.7c0-1.7,1.4-3.1,3.1-3.1h69.7c1.7,0,3.1,1.4,3.1,3.1v69.7c0,1.7-1.4,3.1-3.1,3.1h-69.7
			C1643.5,1530.3,1642.1,1528.9,1642.1,1527.2z"/>
		<path class="st0" d="M1642.1,1617.9v-69.7c0-1.7,1.4-3.1,3.1-3.1h69.7c1.7,0,3.1,1.4,3.1,3.1v69.7c0,1.7-1.4,3.1-3.1,3.1h-69.7
			C1643.5,1621,1642.1,1619.6,1642.1,1617.9z"/>
		<path class="st0" d="M1642.1,1709.2v-69.7c0-1.7,1.4-3.1,3.1-3.1h69.7c1.7,0,3.1,1.4,3.1,3.1v69.7c0,1.7-1.4,3.1-3.1,3.1h-69.7
			C1643.5,1712.3,1642.1,1710.9,1642.1,1709.2z"/>
		<path class="st0" d="M1642.1,1796.6v-69.7c0-1.7,1.4-3.1,3.1-3.1h69.7c1.7,0,3.1,1.4,3.1,3.1v69.7c0,1.7-1.4,3.1-3.1,3.1h-69.7
			C1643.5,1799.7,1642.1,1798.3,1642.1,1796.6z"/>
		<path class="st0" d="M1642.1,1887.1v-69.7c0-1.7,1.4-3.1,3.1-3.1h69.7c1.7,0,3.1,1.4,3.1,3.1v69.7c0,1.7-1.4,3.1-3.1,3.1h-69.7
			C1643.5,1890.2,1642.1,1888.8,1642.1,1887.1z"/>
		<path class="st0" d="M1642.1,1977.5v-69.7c0-1.7,1.4-3.1,3.1-3.1h69.7c1.7,0,3.1,1.4,3.1,3.1v69.7c0,1.7-1.4,3.1-3.1,3.1h-69.7
			C1643.5,1980.7,1642.1,1979.2,1642.1,1977.5z"/>
		<path class="st0" d="M1642.1,2067.4v-69.7c0-1.7,1.4-3.1,3.1-3.1h69.7c1.7,0,3.1,1.4,3.1,3.1v69.7c0,1.7-1.4,3.1-3.1,3.1h-69.7
			C1643.5,2070.6,1642.1,2069.1,1642.1,2067.4z"/>
		<path class="st0" d="M1642.1,2157.3v-69.7c0-1.7,1.4-3.1,3.1-3.1h69.7c1.7,0,3.1,1.4,3.1,3.1v69.7c0,1.7-1.4,3.1-3.1,3.1h-69.7
			C1643.5,2160.4,1642.1,2159.1,1642.1,2157.3z"/>
		<path class="st0" d="M1554.2,2113.8v-69.7c0-1.7,1.4-3.1,3.1-3.1h69.7c1.7,0,3.1,1.4,3.1,3.1v69.7c0,1.7-1.4,3.1-3.1,3.1h-69.7
			C1555.6,2116.9,1554.2,2115.5,1554.2,2113.8z"/>
		<path class="st0" d="M1642.1,2316.6v-134.5c0-2.4,1.9-4.3,4.3-4.3h67.3c2.4,0,4.3,1.9,4.3,4.3v134.5c0,2.4-1.9,4.3-4.3,4.3h-67.3
			C1644,2320.9,1642.1,2319,1642.1,2316.6z"/>
		<path class="st0" d="M1554.2,2315.9v-180.4c0-2.8,2.2-5,5-5h66c2.8,0,5,2.2,5,5v180.4c0,2.8-2.2,5-5,5h-66
			C1556.4,2320.9,1554.2,2318.7,1554.2,2315.9z"/>
		<path class="st0" d="M1642.1,1162.7v-136c0-2.4,1.9-4.3,4.3-4.3h67.3c2.4,0,4.3,1.9,4.3,4.3v136c0,2.4-1.9,4.3-4.3,4.3h-67.3
			C1644,1167.1,1642.1,1165.1,1642.1,1162.7z"/>
		<path class="st0" d="M1554.2,1209v-183c0-2.8,2.2-5,5-5h65.9c2.8,0,5,2.2,5,5v183c0,2.8-2.2,5-5,5h-65.9
			C1556.4,1214,1554.2,1211.7,1554.2,1209z"/>
		<path class="st0" d="M1730.1,1323.8v-69.7c0-1.7,1.4-3.1,3.1-3.1h69.7c1.7,0,3.1,1.4,3.1,3.1v69.7c0,1.7-1.4,3.1-3.1,3.1h-69.7
			C1731.4,1326.9,1730.1,1325.5,1730.1,1323.8z"/>
		<path class="st0" d="M1730.1,1414.1v-69.7c0-1.7,1.4-3.1,3.1-3.1h69.7c1.7,0,3.1,1.4,3.1,3.1v69.7c0,1.7-1.4,3.1-3.1,3.1h-69.7
			C1731.4,1417.2,1730.1,1415.8,1730.1,1414.1z"/>
		<path class="st0" d="M1730.1,1504.9v-69.7c0-1.7,1.4-3.1,3.1-3.1h69.7c1.7,0,3.1,1.4,3.1,3.1v69.7c0,1.7-1.4,3.1-3.1,3.1h-69.7
			C1731.4,1508.1,1730.1,1506.7,1730.1,1504.9z"/>
		<path class="st0" d="M1730.1,1595.8v-69.7c0-1.7,1.4-3.1,3.1-3.1h69.7c1.7,0,3.1,1.4,3.1,3.1v69.7c0,1.7-1.4,3.1-3.1,3.1h-69.7
			C1731.4,1598.9,1730.1,1597.5,1730.1,1595.8z"/>
		<path class="st0" d="M1730.1,1686v-69.7c0-1.7,1.4-3.1,3.1-3.1h69.7c1.7,0,3.1,1.4,3.1,3.1v69.7c0,1.7-1.4,3.1-3.1,3.1h-69.7
			C1731.4,1689.2,1730.1,1687.8,1730.1,1686z"/>
		<path class="st0" d="M1730.1,1774.2v-69.7c0-1.7,1.4-3.1,3.1-3.1h69.7c1.7,0,3.1,1.4,3.1,3.1v69.7c0,1.7-1.4,3.1-3.1,3.1h-69.7
			C1731.4,1777.4,1730.1,1776,1730.1,1774.2z"/>
		<path class="st0" d="M1730.1,1865.8v-69.7c0-1.7,1.4-3.1,3.1-3.1h69.7c1.7,0,3.1,1.4,3.1,3.1v69.7c0,1.7-1.4,3.1-3.1,3.1h-69.7
			C1731.4,1869,1730.1,1867.6,1730.1,1865.8z"/>
		<path class="st0" d="M1730.1,1956.3v-69.7c0-1.7,1.4-3.1,3.1-3.1h69.7c1.7,0,3.1,1.4,3.1,3.1v69.7c0,1.7-1.4,3.1-3.1,3.1h-69.7
			C1731.4,1959.4,1730.1,1958,1730.1,1956.3z"/>
		<path class="st0" d="M1730.1,2045.3v-69.7c0-1.7,1.4-3.1,3.1-3.1h69.7c1.7,0,3.1,1.4,3.1,3.1v69.7c0,1.7-1.4,3.1-3.1,3.1h-69.7
			C1731.4,2048.4,1730.1,2047,1730.1,2045.3z"/>
		<path class="st0" d="M1730.1,2138v-69.7c0-1.7,1.4-3.1,3.1-3.1h69.7c1.7,0,3.1,1.4,3.1,3.1v69.7c0,1.7-1.4,3.1-3.1,3.1h-69.7
			C1731.4,2141.1,1730.1,2139.7,1730.1,2138z"/>
		<path class="st0" d="M1730.1,2226.6v-69.7c0-1.7,1.4-3.1,3.1-3.1h69.7c1.7,0,3.1,1.4,3.1,3.1v69.7c0,1.7-1.4,3.1-3.1,3.1h-69.7
			C1731.4,2229.7,1730.1,2228.3,1730.1,2226.6z"/>
		<path class="st0" d="M1730.1,2317.8v-69.7c0-1.7,1.4-3.1,3.1-3.1h69.7c1.7,0,3.1,1.4,3.1,3.1v69.7c0,1.7-1.4,3.1-3.1,3.1h-69.7
			C1731.4,2320.9,1730.1,2319.5,1730.1,2317.8z"/>
		<path class="st0" d="M1818,1187.4v-69.7c0-1.7,1.4-3.1,3.1-3.1h69.7c1.7,0,3.1,1.4,3.1,3.1v69.7c0,1.7-1.4,3.1-3.1,3.1h-69.7
			C1819.4,1190.5,1818,1189.1,1818,1187.4z"/>
		<path class="st0" d="M1818,1276.7V1207c0-1.7,1.4-3.1,3.1-3.1h69.7c1.7,0,3.1,1.4,3.1,3.1v69.7c0,1.7-1.4,3.1-3.1,3.1h-69.7
			C1819.4,1279.8,1818,1278.4,1818,1276.7z"/>
		<path class="st0" d="M1818,1368.3v-69.7c0-1.7,1.4-3.1,3.1-3.1h69.7c1.7,0,3.1,1.4,3.1,3.1v69.7c0,1.7-1.4,3.1-3.1,3.1h-69.7
			C1819.4,1371.4,1818,1370,1818,1368.3z"/>
		<path class="st0" d="M1818,1457.6v-69.7c0-1.7,1.4-3.1,3.1-3.1h69.7c1.7,0,3.1,1.4,3.1,3.1v69.7c0,1.7-1.4,3.1-3.1,3.1h-69.7
			C1819.4,1460.7,1818,1459.3,1818,1457.6z"/>
		<path class="st0" d="M1818,1549.7V1480c0-1.7,1.4-3.1,3.1-3.1h69.7c1.7,0,3.1,1.4,3.1,3.1v69.7c0,1.7-1.4,3.1-3.1,3.1h-69.7
			C1819.4,1552.8,1818,1551.4,1818,1549.7z"/>
		<path class="st0" d="M1818,1638.2v-69.7c0-1.7,1.4-3.1,3.1-3.1h69.7c1.7,0,3.1,1.4,3.1,3.1v69.7c0,1.7-1.4,3.1-3.1,3.1h-69.7
			C1819.4,1641.3,1818,1639.9,1818,1638.2z"/>
		<path class="st0" d="M1818,1730.1v-69.7c0-1.7,1.4-3.1,3.1-3.1h69.7c1.7,0,3.1,1.4,3.1,3.1v69.7c0,1.7-1.4,3.1-3.1,3.1h-69.7
			C1819.4,1733.3,1818,1731.9,1818,1730.1z"/>
		<path class="st0" d="M1818,1819.5v-69.7c0-1.7,1.4-3.1,3.1-3.1h69.7c1.7,0,3.1,1.4,3.1,3.1v69.7c0,1.7-1.4,3.1-3.1,3.1h-69.7
			C1819.4,1822.6,1818,1821.2,1818,1819.5z"/>
		<path class="st0" d="M1818,1911.2v-69.7c0-1.7,1.4-3.1,3.1-3.1h69.7c1.7,0,3.1,1.4,3.1,3.1v69.7c0,1.7-1.4,3.1-3.1,3.1h-69.7
			C1819.4,1914.4,1818,1913,1818,1911.2z"/>
		<path class="st0" d="M1818,2002.8v-69.7c0-1.7,1.4-3.1,3.1-3.1h69.7c1.7,0,3.1,1.4,3.1,3.1v69.7c0,1.7-1.4,3.1-3.1,3.1h-69.7
			C1819.4,2006,1818,2004.6,1818,2002.8z"/>
		<path class="st0" d="M1818,2093.5v-69.7c0-1.7,1.4-3.1,3.1-3.1h69.7c1.7,0,3.1,1.4,3.1,3.1v69.7c0,1.7-1.4,3.1-3.1,3.1h-69.7
			C1819.4,2096.6,1818,2095.2,1818,2093.5z"/>
		<path class="st0" d="M1818,2180.6v-69.7c0-1.7,1.4-3.1,3.1-3.1h69.7c1.7,0,3.1,1.4,3.1,3.1v69.7c0,1.7-1.4,3.1-3.1,3.1h-69.7
			C1819.4,2183.7,1818,2182.3,1818,2180.6z"/>
		<path class="st0" d="M1818,2311.1V2207c0-4.8,3.9-8.7,8.7-8.7h58.5c4.8,0,8.7,3.9,8.7,8.7v104.2c0,4.8-3.9,8.7-8.7,8.7h-58.5
			C1821.9,2319.9,1818,2316,1818,2311.1z"/>
		<path class="st0" d="M1730.1,1135.3v-104.2c0-4.8,3.9-8.7,8.7-8.7h58.5c4.8,0,8.7,3.9,8.7,8.7v104.2c0,4.8-3.9,8.7-8.7,8.7h-58.5
			C1733.9,1144.1,1730.1,1140.2,1730.1,1135.3z"/>
	</g>
	<path class="st34" d="M2024.9,2273.2V1067.1c0-4.1,3.3-7.5,7.5-7.5h17.5c4.1,0,7.5,3.3,7.5,7.5v1206.1c0,4.1-3.4,7.5-7.5,7.5h-17.5
		C2028.2,2280.7,2024.9,2277.3,2024.9,2273.2z"/>
	<path class="st32" d="M2057.4,2400.8V939.5c0-13.4,8.3-26,20.3-30.6l595.2-229.6c6.1-2.3,12,1.5,12,7.9v1962.8
		c0,7.3-6.8,11.8-13.9,9.1l-592.2-225.9C2066.2,2428.2,2057.4,2415,2057.4,2400.8z"/>
	<path class="st34" d="M2685.6,2663l-0.8-1985.5c0,0,13.6,10.6,19.8,17.4c6.2,6.8,15.8,24,15.8,24v1897.9c0,0-12.2,19.3-15.8,23.9
		C2701,2645.1,2685.6,2663,2685.6,2663z"/>
	<polygon class="st35" points="2122,2398 2122,947.4 2649.9,757.7 2649.9,2586.7 	"/>
	<path class="st8" d="M2024.9,2273.2V1067c0-4.1,3.3-7.4,7.4-7.4h4.6v1221.1h-4.6C2028.2,2280.7,2024.9,2277.3,2024.9,2273.2z"/>
	<path class="st13" d="M0.6,2769.5V512.7l241.9,36l315.1,125.5c0,3.7,62.8,105.4,118.4,292.8c50.7,171.1,95.3,413.6,80.5,718.2
		c0,0,20.7,316.8-160.1,894.6L0.6,2769.5z"/>
	<path class="st36" d="M878.5,2270.9l19.8-5.1c0,0-1.7-55.3,21.5-78.2c0,0,187.5-195.1,221.2-224.6c0,0,64.5-14.8,55.6,52.5
		c0,0,2.9,12.2-11.2,29.6l-70.2,78.2l319.6-94.6c10.3-3.1,21.3-3.5,31.7-0.8c13.7,3.4,29.3,12.6,35.2,35.5c0,0,3.6,12.4-5,28.2
		c-7.4,13.6-20.3,18.1-35.1,22.5l-250,85.3l285.2-78.9c15.8-4.6,45.1-10.4,58.8-1.2c11.7,7.9,21.5,25.5,21.5,43.9
		c0,0-2.4,32-40.8,47l-273,85.1l225.7-56.9c18.2-5,61.9-14.6,75.1,3.6c3.5,4.9,5.6,12.1,6.9,19.1c0,0,11.3,24-21.4,45.2
		c-5.7,3.7-22.8,10.1-29.2,12l-245.3,80.5l168.2-43.6c17.5-5.1,38.5-5.1,49.6,9.4c3.7,4.8,6.4,10.5,7.4,17.2c0,0,8.9,36.6-36.6,51.3
		l-300.1,78.7l-68.7,14.2c-18.2,3.8-37,4.9-55.5,3.1c-13-1.3-27.2-4.1-40.4-9.8c0,0-26.5-10.3-28.9-17.2l-25.5,8.1L878.5,2270.9z"/>
	<path class="st37" d="M880,2281.1l19.8-5.1c0,0-1.7-55.3,21.5-78.2c0,0,187.5-195.1,221.2-224.6c0,0,64.5-14.8,55.6,52.5
		c0,0,2.9,12.2-11.2,29.6l-70.2,78.2l319.6-94.6c10.3-3.1,21.3-3.5,31.7-0.8c13.7,3.4,29.3,12.6,35.2,35.5c0,0,3.6,12.4-5,28.2
		c-7.4,13.6-20.3,18.1-35.1,22.5l-250,85.3l285.2-78.9c15.8-4.6,45.1-10.4,58.8-1.2c11.7,7.9,21.5,25.5,21.5,43.9
		c0,0-2.4,32-40.8,47l-273,85.1l225.7-56.9c18.2-5,61.9-14.6,75.1,3.6c3.5,4.9,5.6,12.1,6.9,19.1c0,0,11.3,24-21.4,45.2
		c-5.7,3.7-22.8,10.1-29.2,12l-245.3,80.5l168.2-43.6c17.5-5.1,38.5-5.1,49.6,9.4c3.7,4.8,6.4,10.5,7.4,17.2c0,0,8.9,36.6-36.6,51.3
		l-300.1,78.7l-68.7,14.2c-18.2,3.8-37,4.9-55.5,3.1c-13-1.3-27.2-4.1-40.4-9.8c0,0-26.5-10.3-28.9-17.2l-25.5,8.1L880,2281.1z"/>
	
		<rect x="895.1" y="2239.6" transform="matrix(0.9564 -0.2919 0.2919 0.9564 -660.6105 370.9097)" class="st0" width="35.1" height="319.3"/>
	<path class="st13" d="M949.2,2557.8l-43.4,10.9c0,0-367.4,103.7-674.2,180.4c-99.6,24.9-184.5,44.5-231.2,53.4l0.1-406.9
		c153.1-6.7,644.7-110.3,644.7-110.3l203.8-51.9l22,70.4L949.2,2557.8z"/>
	<path class="st0" d="M822,2551.6c4.8,5.8,4.1,14.4-1.7,19.2c-5.8,4.8-14.4,4.1-19.2-1.7s-4.1-14.4,1.7-19.2
		S817.2,2545.8,822,2551.6z"/>
	<path class="st0" d="M779.6,2564.1c4.8,5.8,4.1,14.4-1.7,19.2c-5.8,4.8-14.4,4.1-19.2-1.7s-4.1-14.4,1.7-19.2
		S774.8,2558.3,779.6,2564.1z"/>
	
		<ellipse transform="matrix(0.8434 -0.5372 0.5372 0.8434 -1274.7576 794.5958)" class="st0" cx="725.9" cy="2584.4" rx="13.6" ry="13.6"/>
	<path class="st38" d="M1416.2,2066.4l15.2,51.2c1.3,4.4,5.9,6.8,10.3,5.4l27.8-8.9c0,0,21.7-8.4,16.9-37.4c0,0-4.9-24.2-28.7-28.7
		c0,0-9.7-1.1-26.9,5.6l-9,2.6C1417.4,2057.5,1415,2062.1,1416.2,2066.4z"/>
	<path class="st38" d="M1491.7,2156.7l14.5,49c1.2,4.2,5.7,6.5,9.8,5.2l26.7-8.5c0,0,20.7-8,16.2-35.8c0,0-4.7-23.2-27.5-27.4
		c0,0-9.2-1.1-25.8,5.3l-8.6,2.5C1492.8,2148.2,1490.5,2152.6,1491.7,2156.7z"/>
	<path class="st38" d="M1500.7,2266.6l10.6,42.7c0.9,3.6,4.6,5.9,8.3,4.9l23.2-6.2c0,0,18.2-6.1,15.3-30.2c0,0-3.1-20.1-22.6-24.7
		c0,0-7.9-1.3-22.3,3.6l-7.5,1.8C1502,2259.3,1499.8,2263,1500.7,2266.6z"/>
	<path class="st38" d="M1431.3,2388.2l10.3,41.8c0.9,3.6,4.5,5.7,8.1,4.8l22.7-6.1c0,0,17.8-5.9,15-29.5c0,0-3.1-19.7-22.1-24.1
		c0,0-7.7-1.2-21.9,3.5l-7.3,1.8C1432.6,2381.1,1430.4,2384.7,1431.3,2388.2z"/>
	<path class="st38" d="M1123.2,2010.2l24.2,21.8c2.1,1.9,5.6,1.1,7.8-1.6l14.2-17.7c0,0,10.6-14.6-0.8-28.7c0,0-10.1-11.3-25.8-3
		c0,0-6.2,3.8-14.6,15.4l-4.7,5.6C1121.3,2004.7,1121.2,2008.3,1123.2,2010.2z"/>
	<path class="st36" d="M1030.8,1044l18.7,4.8c0,0-1.6,52.4,20.3,74.1c0,0,177.6,184.8,209.5,212.7c0,0,61.1,14,52.7-49.7
		c0,0,2.8-11.5-10.6-28.1l-66.5-74.1l302.7,89.6c9.8,2.9,20.2,3.3,30.1,0.8c12.9-3.3,27.7-11.9,33.3-33.6c0,0,3.4-11.8-4.8-26.7
		c-7-12.9-19.2-17.1-33.3-21.3l-236.8-80.8l270.2,74.8c15,4.4,42.7,9.9,55.7,1.2c11.1-7.4,20.4-24.2,20.3-41.6
		c0,0-2.3-30.3-38.6-44.5l-258.5-80.6l213.8,53.9c17.2,4.7,58.6,13.9,71.2-3.4c3.3-4.6,5.3-11.5,6.6-18.1c0,0,10.7-22.8-20.3-42.8
		c-5.4-3.5-21.6-9.5-27.7-11.4l-232.4-76.2l159.3,41.3c16.6,4.8,36.5,4.8,47-8.9c3.5-4.5,6.1-9.9,7-16.3c0,0,8.5-34.7-34.7-48.6
		l-284.2-74.5l-65.1-13.4c-17.3-3.6-35-4.7-52.6-2.9c-12.3,1.2-25.8,3.9-38.2,9.3c0,0-25.1,9.7-27.4,16.3l-24.1-7.6L1030.8,1044z"/>
	<path class="st37" d="M1039.1,1039.3l18.7,4.8c0,0-1.6,52.4,20.3,74.1c0,0,177.6,184.8,209.5,212.7c0,0,61.1,14,52.7-49.7
		c0,0,2.8-11.5-10.6-28.1l-66.5-74.1l302.7,89.6c9.8,2.9,20.2,3.3,30.1,0.8c12.9-3.3,27.7-11.9,33.3-33.6c0,0,3.4-11.8-4.8-26.7
		c-7-12.9-19.2-17.1-33.3-21.3l-236.8-80.8l270.2,74.8c15,4.4,42.7,9.9,55.7,1.2c11.1-7.4,20.4-24.2,20.3-41.6
		c0,0-2.3-30.3-38.6-44.5l-258.5-80.6l213.8,53.9c17.2,4.7,58.6,13.9,71.2-3.4c3.3-4.6,5.3-11.5,6.6-18.1c0,0,10.7-22.8-20.3-42.8
		c-5.4-3.5-21.6-9.5-27.7-11.4l-232.4-76.2l159.3,41.3c16.6,4.8,36.5,4.8,47-8.9c3.5-4.5,6.1-9.9,7-16.3c0,0,8.5-34.7-34.7-48.6
		l-284.2-74.5l-65.1-13.4c-17.3-3.6-35-4.7-52.6-2.9c-12.3,1.2-25.8,3.9-38.2,9.3c0,0-25.1,9.7-27.4,16.3l-24.1-7.6L1039.1,1039.3z"
		/>
	
		<rect x="902.2" y="913" transform="matrix(0.2692 -0.9631 0.9631 0.2692 -120.133 1702.741)" class="st0" width="319.3" height="35.1"/>
	<path class="st13" d="M999.3,1082.9l-71.7-18.2l-244.8-62.1v-0.6c-12.3-2.8-24.8-5.6-37.6-8.5C425.8,944.4,153.7,889.9,0.6,883.3
		L0.5,459.5c46.7,8.9,134.1,27.1,233.4,53.1C418.3,561,647.1,639.3,820.9,689l278,70.5L999.3,1082.9z"/>
	<path class="st0" d="M987,802.3c4.8-5.8,4.1-14.4-1.7-19.2s-14.4-4.1-19.2,1.7s-4.1,14.4,1.7,19.2S982.2,808,987,802.3z"/>
	<path class="st0" d="M944.6,789.8c4.8-5.8,4.1-14.4-1.7-19.2s-14.4-4.1-19.2,1.7c-4.8,5.8-4.1,14.4,1.7,19.2
		C931.2,796.3,939.8,795.5,944.6,789.8z"/>
	<path class="st0" d="M901.5,778.1c4.8-5.8,4.1-14.4-1.7-19.2s-14.4-4.1-19.2,1.7s-4.1,14.4,1.7,19.2S896.6,783.9,901.5,778.1z"/>
	<path class="st38" d="M1547,1242.6l14.3-48.5c1.2-4.1,5.6-6.5,9.7-5.2l26.4,8.4c0,0,20.5,7.9,16,35.4c0,0-4.7,22.9-27.2,27.2
		c0,0-9.2,1-25.5-5.3l-8.5-2.5C1548.2,1251,1545.8,1246.7,1547,1242.6z"/>
	<path class="st38" d="M1618.5,1157.1l13.7-46.4c1.2-4,5.4-6.2,9.3-4.9l25.2,8c0,0,19.7,7.6,15.3,33.9c0,0-4.4,21.9-26,26
		c0,0-8.8,1-24.4-5l-8.2-2.4C1619.6,1165.1,1617.3,1161,1618.5,1157.1z"/>
	<path class="st38" d="M1627,1053l10-40.5c0.8-3.5,4.4-5.5,7.8-4.6l22,5.9c0,0,17.2,5.8,14.5,28.6c0,0-3,19-21.4,23.4
		c0,0-7.5,1.2-21.2-3.4l-7.1-1.7C1628.2,1059.9,1626.1,1056.4,1627,1053z"/>
	<path class="st38" d="M1561.3,937.8l9.8-39.6c0.8-3.4,4.3-5.4,7.7-4.5l21.5,5.8c0,0,16.8,5.6,14.2,28c0,0-2.9,18.6-20.9,22.9
		c0,0-7.3,1.2-20.7-3.3l-6.9-1.7C1562.5,944.5,1560.4,941.2,1561.3,937.8z"/>
	<path class="st38" d="M1269.5,1295.9l22.9-20.6c2-1.8,5.3-1.1,7.4,1.5l13.4,16.7c0,0,10.1,13.8-0.8,27.1c0,0-9.5,10.7-24.4,2.8
		c0,0-5.8-3.6-13.8-14.6l-4.4-5.3C1267.7,1301.1,1267.5,1297.6,1269.5,1295.9z"/>
	<path class="st12" d="M999.3,1082.9c-14.8-5.2-39.5-11.3-71.7-18.2l-244.8-62.1v-0.6c-12.3-2.8-24.8-5.6-37.6-8.5
		C425.8,944.4,153.7,889.9,0.6,883.3v-139l734.9,181.6c0,0,72,20.4,164.1,34.4c91.7,13.9,157.2-64.1,157.2-64.1L999.3,1082.9z"/>
	<path class="st12" d="M894.7,2379c0,0-41-29.2-99.5-36.3s-128,8.7-128,8.7L0.6,2507v-111.5c153.1-6.7,644.7-110.3,644.7-110.3
		l203.8-51.9L894.7,2379z"/>
	<path class="st39" d="M3876.5,814.4l52.9-51.6c21.2-20.7,53.1-25.7,79.6-12.4c55.3,27.8,146.3,84.8,192.6,176.9
		c16.4,32.6,6,72.4-24.3,92.8l-51.9,35C4125.3,1055.1,4086.9,906.3,3876.5,814.4z"/>
	<path class="st14" d="M5456.3,1807.9c-1.8,26.6-9.6,51.3-20.7,73.6c-0.3,0.7-0.6,1.3-1,2c-38.1,75.1-148.8,111.5-232.8,117
		l-34.8,3.1l-8.9,0.8l-579.5,51.6c146.3-176.3,7.5-330.2,7.5-330.2l162.8-38.1c51.5-12,100.9-31.2,147.3-56.6
		c105-57.7,328.5-149.8,481.6,3.4c3.7,3.7,7.2,7.4,10.6,11c29.2,31.6,47.6,62.1,57.9,91.2C5455,1761.6,5457.8,1785.5,5456.3,1807.9z
		"/>
	<path class="st39" d="M4505.8,2073.2l73.9-0.9c29.6-0.4,55.7-19.4,65-47.5c19.5-58.7,43.5-163.4,11.1-261.2
		c-11.5-34.7-47-55.4-82.8-48.5l-62.4,10.1C4510.7,1725.2,4586.8,1857.2,4505.8,2073.2z"/>
	<path class="st39" d="M4528.9,716.8c0,0-33.8-46.9-74.1-91.3c-28.1-31-83.8-82.5-83.8-82.5c-5.3-5.8-6.2-13.5-2.2-17.2l3.7-3.3
		c4.1-3.7,11-1.2,17,3.8c0,0,36.8,31.1,83.7,82.6c50.2,55.2,74.3,91.2,74.3,91.2c5.3,8.1,6.2,13.5,2.2,17.2l-3.7,3.3
		C4541.7,724.3,4534.1,722.6,4528.9,716.8z"/>
	<path class="st39" d="M4576.1,675.3c0,0-33.8-46.9-74.1-91.3c-28.1-31-83.8-82.5-83.8-82.5c-5.3-5.8-6.2-13.5-2.2-17.2l3.7-3.4
		c4.1-3.7,11-1.2,17,3.8c0,0,36.8,31.1,83.7,82.6c50.2,55.2,74.3,91.2,74.3,91.2c5.3,8.1,6.2,13.5,2.2,17.2l-3.7,3.3
		C4589,682.9,4581.4,681.1,4576.1,675.3z"/>
	<path class="st39" d="M4625,635.9c0,0-33.8-46.9-74.1-91.3c-28.1-31-83.8-82.5-83.8-82.5c-5.3-5.8-6.2-13.5-2.2-17.2l3.7-3.4
		c4.1-3.7,11-1.2,17,3.8c0,0,36.8,31.1,83.7,82.6c50.2,55.2,74.3,91.2,74.3,91.2c5.3,8.1,6.2,13.5,2.2,17.2l-3.7,3.3
		C4637.9,643.4,4630.2,641.7,4625,635.9z"/>
	<path class="st39" d="M5083.9,1926.4c0,0-0.3-57.8-7.4-117.4c-4.9-41.5-20.3-115.8-20.3-115.8c-0.9-7.8,2.8-14.7,8.2-15.3l5-0.6
		c5.4-0.7,9.6,5.4,11.6,13c0,0,12,46.7,20.2,115.9c8.8,74.1,7.5,117.4,7.5,117.4c-0.4,9.7-2.8,14.7-8.2,15.3l-5,0.6
		C5090,1940,5084.8,1934.2,5083.9,1926.4z"/>
	<path class="st39" d="M5146.4,1920c0,0-0.3-57.8-7.4-117.4c-4.9-41.5-20.3-115.8-20.3-115.8c-0.9-7.8,2.8-14.7,8.2-15.3l5-0.6
		c5.4-0.7,9.6,5.4,11.6,13c0,0,12,46.7,20.2,115.9c8.8,74.1,7.5,117.4,7.5,117.4c-0.4,9.7-2.8,14.7-8.2,15.3l-5,0.6
		C5152.5,1933.6,5147.3,1927.8,5146.4,1920z"/>
	<path class="st39" d="M5209.1,1916.3c0,0-0.3-57.8-7.4-117.4c-4.9-41.5-20.3-115.8-20.3-115.8c-0.9-7.8,2.8-14.7,8.2-15.3l5-0.6
		c5.4-0.7,9.6,5.4,11.6,13c0,0,12,46.7,20.2,115.9c8.8,74.1,7.5,117.4,7.5,117.4c-0.4,9.7-2.8,14.7-8.2,15.3l-5,0.6
		C5215.3,1929.9,5210.1,1924.1,5209.1,1916.3z"/>
	<path class="st40" d="M4766.8,365.1L4766.8,365.1c-137.2-64.8-433.4,81-433.4,81l86.6-72.4c63.3-55.5,167.3-108,247.4-81.8
		C4705,304.1,4741.3,326.4,4766.8,365.1z"/>
	<path class="st40" d="M5158.1,2004.4l8.9-0.8C5164.1,2003.9,5161.1,2004.2,5158.1,2004.4z"/>
	<path class="st40" d="M5456.3,1807.9c-2.5,33.8-13.4,58.4-20.7,73.6c-0.3,0.7-0.6,1.3-1,2c-38.1,75.1-148.8,111.5-232.8,117
		l-34.8,3.1c189.9-21.8,218.5-351.1,221.4-358c29.2,31.6,47.6,62.1,57.9,91.2C5455,1761.6,5457.8,1785.5,5456.3,1807.9z"/>
</g>
<g id="Layer_3">
</g>
</svg>
