<?xml version="1.0" encoding="utf-8"?>
<!-- Generator: Adobe Illustrator 24.1.3, SVG Export Plug-In . SVG Version: 6.00 Build 0)  -->
<svg version="1.1" id="Layer_1" xmlns="http://www.w3.org/2000/svg" xmlns:xlink="http://www.w3.org/1999/xlink" x="0px" y="0px"
	 viewBox="0 0 230.8 257.1" style="enable-background:new 0 0 230.8 257.1;" xml:space="preserve">
<style type="text/css">
	.st0{fill:#E7E7E7;}
	.st1{fill:#BC658D;}
	.st2{fill:#FDB87E;}
	.st3{fill:#C66A98;}
	.st4{fill:#3C4750;}
	.st5{fill:#00838F;}
	.st6{fill:#FDFDFD;}
	.st7{fill:#4F6D78;}
	.st8{fill:#266467;}
	.st9{fill:#6D848D;}
	.st10{fill:#254A59;}
	.st11{fill:#B7BFC3;}
</style>
<path class="st0" d="M38.28,217.32c0.18,0.18,0.36,0.36,0.54,0.54c1.5,2.78,3.64,4.91,6.41,6.41c0.18,0.18,0.36,0.36,0.54,0.54
	c0.22,0.14,0.43,0.28,0.65,0.41c0.28,1,1.05,1.64,1.81,2.2c5.31,3.94,10.6,7.85,16.35,11.24c13.66,8.05,28.46,12.52,44.02,14.07
	c9.05,0.91,18.3,0.63,27.37-1.04c6.59-0.82,12.96-2.53,19.19-4.82c4.56-1.64,9.12-3.32,13.37-5.67c5.24-2.89,10.63-5.57,15.1-9.66
	c1.08-0.17,1.74-0.89,2.32-1.73c1.31-0.34,2.12-1.31,2.9-2.32c1.96-0.89,3.29-2.49,4.64-4.07c0.2-0.19,0.39-0.38,0.59-0.57
	c0.2-0.19,0.39-0.38,0.59-0.57c0.19-0.19,0.39-0.39,0.58-0.58c0.19-0.19,0.39-0.39,0.58-0.58c0.19-0.19,0.39-0.39,0.58-0.58
	c0.19-0.19,0.39-0.39,0.58-0.58c0.19-0.19,0.39-0.39,0.58-0.58c0.19-0.19,0.38-0.39,0.57-0.58c1.74-1.57,3.59-3.05,4.64-5.22
	c1.01-0.77,1.98-1.59,2.32-2.9c0.84-0.58,1.56-1.24,1.73-2.32c4.64-5.32,7.89-11.51,10.93-17.79c4.47-9.24,7.44-18.99,9.1-29.12
	c0.74-4.5,1.34-9.05,0.92-13.66c-0.68,3.23-0.86,6.52-1.33,9.76c-1.94,13.32-5.76,26.05-12.36,37.84
	c-2.39,4.27-5.07,8.38-7.62,12.56c-1.12,0.38-1.43,1.38-1.81,2.33c-1.22,0.61-1.89,1.65-2.32,2.9c-1.77,1.55-3.69,2.95-4.64,5.23
	c-0.18,0.18-0.36,0.36-0.54,0.54c-0.19,0.19-0.39,0.39-0.58,0.58c-0.19,0.19-0.39,0.39-0.58,0.58c-0.19,0.19-0.39,0.39-0.58,0.58
	c-0.19,0.19-0.39,0.39-0.58,0.58c-0.19,0.19-0.39,0.39-0.58,0.58c-0.19,0.19-0.39,0.39-0.58,0.58c-0.19,0.19-0.39,0.39-0.58,0.58
	c-2.12,0.69-3.26,2.51-4.64,4.05c-1.28,0.38-2.29,1.1-2.9,2.32c-0.97,0.36-1.97,0.67-2.33,1.81c-3.8,2.32-7.57,4.69-11.4,6.96
	c-5.3,3.15-11.02,5.44-16.67,7.86c-6.35,1.95-12.79,3.53-19.27,4.97c-0.62-0.01-1.24-0.03-1.85-0.04c0.65-1.79,1.32-3.57,1.95-5.36
	c7.44-21.36,10.56-43.37,9.84-65.94c-0.03-1.09,0.4-2.33-0.55-3.3c0.21-0.95,0.42-1.89,0.63-2.84l-0.02,0.03
	c1.2-1.56,2.04-3.28,2.34-5.24l-0.02,0.03c1.19-1.57,2.08-3.26,2.34-5.25c0,0-0.02,0.03-0.02,0.03c0.53-0.68,1.05-1.35,1.58-2.03
	c1.47,0.88,2.76-0.34,4.17-0.35c9.96-0.02,19.9-0.78,29.85-1.04c5.85-0.15,11.68-0.57,17.51-0.81c4.03-0.17,7.51-2.08,9.96-5.47
	c2.81-3.87,2.55-8.13,1.93-12.63c-1.06-7.67-1.62-15.4-2.49-23.1c-0.86-7.59-1.94-15.15-2.77-22.74
	c-0.77-7.03-1.35-14.08-2.46-21.07c-0.02-1.15,0.24-2.39-0.1-3.44c-0.84-2.59-0.1-4.67,1.45-6.71c3.02-3.98,5.99-8,8.93-12.03
	c2.04-2.8,4.37-5.46,5.89-8.52c2.82-5.65-0.49-10.69-2.33-15.81c0.03-5.92,0.05-11.84,0.11-17.76c0.02-1.6-0.29-2.86-2.22-2.94
	c-0.22-4.16-0.3-4.22-4.21-2.35c-4.38,2.09-8.74,4.22-13.1,6.34c-1.4,0.11-2.61-0.41-3.83-1.03c-3.33-1.69-6.61-3.53-10.06-4.95
	c-4.97-2.05-4-2.18-4.28,2.6c-1.85-1.27-2.26-0.37-2.25,1.42c0.03,5.22-0.01,10.43,0.02,15.65c0.02,3.38-0.96,7.3,0.43,9.98
	c1.4,2.69,5.67,3.16,8.69,4.61c0.09,0.04,0.15,0.12,0.23,0.18c-0.18,3.06-1.97,5.57-2.84,8.4c-0.6,1.96-1.4,3.75-0.88,6.07
	c1.49,6.68,4.44,13.12,3.73,20.21c-3.08-0.44-3.83,1.02-3.63,3.9c0.26,3.53,0.06,7.1,0.05,10.65c0,0.2,0,0.4-0.01,0.61
	c-0.11,12.91-0.21,25.83-0.32,38.74c-0.01,1.15-0.07,2.31-0.15,3.46c-0.09,1.48-0.85,1.86-2.32,1.69
	c-8.93-1.01-17.86-1.93-26.8-2.88c-0.84-1.93,0.99-1.8,1.83-2.13c3.12-1.24,6.37-2.19,9.47-3.47c7.93-3.27,10.29-8.09,8.66-16.5
	c-0.85-4.39-2.63-8.72,0.12-13.35c1.41-2.37-1.17-5.31-4.12-5.61c-2.38-0.24-4.56,0.54-6.79,1.13c-0.34-1.16-0.7-2.33-1.03-3.49
	c-0.76-2.66-3.6-4.08-6.36-3.17c-2.25,0.75-3.6,3.7-2.61,6.07c0.4,0.97,0.79,1.91,0.92,2.95c-0.8,0.32-1.58,0.75-2.41,0.94
	c-3.77,0.84-6,3.07-6.89,6.89c-0.82,3.54-1.86,7.03-2.96,10.49c-1.88,5.9-2.82,12.19-6.95,17.18c-9.82-0.98-19.65-1.97-29.47-2.95
	c-2.52-6.43-5.03-12.86-7.58-19.27c-0.71-1.79-0.19-2.54,1.71-2.86c5.09-0.87,10.13-1.98,15.22-2.83c1.73-0.29,2.28-0.72,1.81-2.61
	c-1.18-4.83-1.73-9.84-3.24-14.55c-1.24-3.86-0.77-6.32,3.08-7.9c1.2-0.49,1.27-1.28,0.13-2.13c-2.15-1.6-4.26-3.27-6.36-4.93
	c-1.06-0.84-1.93-1.69-1.99-3.29c-0.4-10.9-5.01-19.54-14.11-25.69c-1.11-2.83-2.2-5.67-3.34-8.49
	c-3.14-7.76-13.15-11.55-20.71-7.93c-5.2,2.49-7.75,6.97-9.02,12.2c-0.4,1.65-1.24,2.47-2.36,3.13c-3.47,2.03-6.21,4.68-8.82,7.79
	c-7.85,9.37-7.75,25.76-0.93,35.3c2.39,3.34,5.17,6.33,7.91,9.34c4.17,4.6,7.92,9.58,12.53,13.77c0.03,2.02-0.03,4.05,0.11,6.06
	c0.5,7.06,1.07,14.12,1.61,21.19c-0.16,0.15-0.33,0.29-0.49,0.44c-0.77-0.03-1.54-0.08-2.31-0.08c-6.79-0.01-12.81,2.25-17.4,7.17
	c-4.61,4.93-6.54,10.97-6.48,17.92c0.2,23.04,0.05,46.09,0.04,69.13c-0.55-0.22-1.1-0.45-1.66-0.67c-0.18-0.21-0.35-0.42-0.53-0.63
	c-0.19-0.19-0.39-0.38-0.58-0.57c-2.13-2.12-4.26-4.25-6.39-6.37c-0.19-0.19-0.38-0.39-0.57-0.58c-0.19-0.19-0.38-0.39-0.58-0.58
	c-0.35-0.56-0.64-1.18-1.06-1.68c-21.31-25.29-29.67-54.33-25.11-87.07c2.22-16,7.97-30.67,17.06-44.02
	c2.37-3.48,4.91-6.85,7.37-10.27c1.02-0.75,1.96-1.58,2.61-2.9c-2.18-0.26-2.36,1.41-3.03,2.52c-2.66,1.56-3.93,4.36-5.62,6.68
	C17.9,96.66,11.16,115.96,9.7,136.92c-0.58,8.38-0.07,16.89,1.46,25.29c2.67,14.7,7.78,28.41,15.9,40.94
	c3.12,4.82,6.18,9.76,10.64,13.55C37.9,216.91,38.09,217.12,38.28,217.32z"/>
<path class="st0" d="M157.52,79.96c0.29,0,0.65,0.07,0.47-0.44c6.27-0.09,9.99-2.59,11.85-8.29c0.76-2.33,1.33-4.8,1.52-7.24
	c1.22-15.33-2.68-29.59-9.48-43.17c-1.11-2.21-2.44-4.37-4.02-6.26c-6.85-8.18-9.56-9.73-18.98-6.6c-6,0.55-8.61,4.75-9.66,9.86
	c-1.52,7.37-1.3,14.88-0.08,22.3c2.08,12.69,6.24,24.53,14.24,34.83C147.28,79.96,152.6,81.97,157.52,79.96z"/>
<path class="st0" d="M227.61,140.27c1.82-8.91-5.97-40.61-10.95-43.14C223.38,110.77,226.38,125.29,227.61,140.27z"/>
<path class="st1" d="M145.27,176.32c0.95,0.97,0.51,2.21,0.55,3.3c0.72,22.57-2.39,44.59-9.84,65.94c-0.63,1.8-1.3,3.57-1.95,5.36
	c-8.69,1.6-17.45,1.63-26.19,0.68c-12.36-1.33-24.22-4.59-35.44-9.99c-8.71-4.2-16.88-9.27-24-15.91
	c0.01-23.04,0.16-46.09-0.04-69.13c-0.06-6.95,1.87-12.99,6.48-17.92c4.59-4.92,10.61-7.18,17.4-7.17c0.77,0,1.54,0.05,2.31,0.08
	c0.21,0.01,0.41,0.02,0.62,0.04c14.54,3.31,29.08,6.63,43.89,10.01c-3.33-5.77-6.5-11.27-9.66-16.76
	c9.82,0.98,19.65,1.97,29.47,2.95c0.18,0.78-0.27,1.38-0.59,2.01c-0.92,0.61-1.41,1.56-1.92,2.49c-4.18,7.61-8.48,15.15-12.53,22.83
	c-2.38,4.5-5.42,8.66-7.05,13.55c-0.42,0.31-0.58,0.74-0.57,1.25c-4.15-1.88-7.34-5.14-10.96-7.77
	c-6.98-5.07-13.82-10.32-20.72-15.49c-0.14-0.22-0.29-0.45-0.43-0.67c-0.07,0.06-0.2,0.17-0.19,0.19c0.13,0.22,0.27,0.44,0.42,0.65
	c0.36,0.55,0.65,1.18,1.1,1.65c7.46,7.93,14.89,15.87,22.41,23.73c5.44,5.69,5.68,5.59,8.46-2.21c0.24-0.37,0.47-0.74,0.71-1.11
	c0.44-0.62,0.94-1.21,1.31-1.88c3.8-6.83,7.63-13.64,11.34-20.52c0.81-1.51,1.37-1.88,3.01-0.93c4.93,2.83,9.99,5.46,15.02,8.12
	c0.75,0.4,1.48,1.17,3.1,0.62c-1.55-0.91-2.66-1.61-3.81-2.24c-4.66-2.53-9.32-5.08-14.02-7.54c-1.2-0.62-1.54-1.17-0.82-2.41
	c1.79-3.09,3.53-6.2,5.19-9.36c0.62-1.19,1.46-1.7,2.74-1.64l-0.01-0.01c0.15,0.66,0.62,0.71,1.17,0.59l-0.01-0.01
	c0.15,0.66,0.61,0.73,1.17,0.6l-0.01-0.01c1.55,2.23,3.88,3.02,6.39,3.48l-0.01-0.01c0.15,0.66,0.61,0.72,1.17,0.6l-0.01-0.01
	c-0.01,1.15,1.03,1.28,1.73,1.67c1.59,0.89,3.2,1.74,4.85,2.51c2.03,0.94,2.82,1.97,1.61,4.36c-2.42,4.78-4.46,9.75-6.67,14.65
	c-0.51,1.13-1.21,2.2-0.94,3.54c0,0,0.02-0.03,0.02-0.03c-1.67,1.35-2.35,3.14-2.34,5.25c0,0,0.02-0.03,0.02-0.03
	c-1.68,1.35-2.35,3.14-2.34,5.24c0,0,0.02-0.03,0.02-0.03c-2.79,2.84-3.54,6.73-5.17,10.16c-5.41,11.4-9.95,23.21-15.84,34.39
	c-0.19,0.19-0.38,0.38-0.57,0.57c-5.59,4.32-11.33,4.41-17.2,0.59c-0.13-0.1-0.32-0.3-0.37-0.27c-0.36,0.23-0.06,0.38,0.1,0.54
	c3.75,5.13,14.86,4.38,17.76-0.56c0.19-0.19,0.39-0.39,0.58-0.58c2.59-1.76,3.16-4.74,4.34-7.31
	C134.84,199.48,140.03,187.89,145.27,176.32z M92.43,207.79c0.13,0.1,0.32,0.3,0.37,0.27c0.36-0.23,0.06-0.38-0.1-0.54
	c-0.28-0.91-0.94-1.41-1.82-1.68c-0.13-0.09-0.33-0.29-0.38-0.26c-0.35,0.22-0.08,0.39,0.09,0.56
	C90.9,207.03,91.55,207.55,92.43,207.79z M84.5,200.63c-0.13-0.09-0.32-0.29-0.37-0.26c-0.36,0.23-0.06,0.38,0.1,0.54
	c0.29,0.91,0.94,1.41,1.82,1.68c0.13,0.09,0.33,0.29,0.38,0.26c0.35-0.22,0.08-0.39-0.09-0.56C86.03,201.4,85.38,200.89,84.5,200.63
	z M98.81,213.01c0.13,0.1,0.32,0.3,0.37,0.27c0.36-0.23,0.06-0.38-0.1-0.54c-0.28-0.91-0.94-1.42-1.83-1.67
	c-0.35-0.24-0.7-0.48-1.05-0.72c-0.47-0.95-1.11-1.69-2.37-1.91c0.18,1.44,1.14,1.84,2.09,2.26c0.36,0.23,0.71,0.47,1.07,0.7
	C97.29,212.28,97.94,212.77,98.81,213.01z M79.68,197.36c0.35,0.24,0.7,0.48,1.05,0.72c0.47,0.95,1.11,1.69,2.37,1.92
	c-0.18-1.44-1.14-1.84-2.09-2.26c-0.36-0.23-0.71-0.47-1.07-0.7c-0.31-0.88-0.96-1.37-1.83-1.62c-0.13-0.1-0.32-0.3-0.37-0.27
	c-0.36,0.23-0.06,0.38,0.1,0.54C78.14,196.6,78.79,197.11,79.68,197.36z M69.82,189.24c0.13,0.1,0.32,0.3,0.37,0.27
	c0.36-0.23,0.06-0.38-0.1-0.54c-0.28-0.91-0.94-1.42-1.83-1.67c-0.35-0.24-0.7-0.48-1.05-0.72c-0.47-0.95-1.11-1.69-2.37-1.91
	c0.18,1.44,1.14,1.84,2.09,2.26c0.36,0.23,0.71,0.47,1.07,0.7C68.3,188.51,68.95,189,69.82,189.24z M61.89,182.08
	c-0.13-0.09-0.32-0.29-0.37-0.26c-0.35,0.22-0.07,0.38,0.09,0.55c0.3,0.89,0.95,1.41,1.84,1.66c0.13,0.1,0.32,0.3,0.37,0.27
	c0.36-0.23,0.06-0.38-0.1-0.54C63.42,182.84,62.77,182.34,61.89,182.08z M105.93,218.57c-0.52-1.3-1.13-1.84-2.47-2.16
	C103.99,217.79,104.57,218.33,105.93,218.57z M102.43,215.67c-0.55-1.21-1.03-1.93-2.39-1.89
	C100.52,214.9,101.07,215.51,102.43,215.67z M89.68,205.24c-0.51-1.29-1.13-1.83-2.47-2.17C87.75,204.45,88.32,205.01,89.68,205.24z
	 M74.5,192.76c0.5,1.28,1.13,1.8,2.46,2.16C76.42,193.54,75.87,192.97,74.5,192.76z M70.93,189.98c0.65,1.05,1.07,1.85,2.68,1.76
	C72.79,190.78,72.41,189.93,70.93,189.98z M59.56,180.09c-0.34-0.01-0.6,0.14-0.43,0.48c0.16,0.31,0.45,0.59,0.75,0.78
	c0.24,0.15,0.59,0.03,0.58-0.31C60.45,180.5,60.03,180.25,59.56,180.09z"/>
<path class="st2" d="M109.42,124.86c3.17,5.49,6.33,10.98,9.66,16.76c-14.81-3.38-29.35-6.69-43.9-10.01
	c-0.01-0.17-0.05-0.32-0.12-0.47c-0.54-7.06-1.11-14.12-1.61-21.19c-0.14-2.01-0.08-4.04-0.11-6.06c2.06-6.01,2.72-12.35,4.31-18.47
	c0.4-1.55,0.02-2.16-1.37-2.81c-3.62-1.68-5.97-4.47-6.67-8.5c-0.63-3.67,1.45-7.27,4.93-8.49c3.33-1.17,6.89,0.41,8.64,3.87
	c0.17,0.34,0.27,0.72,0.45,1.06c0.76,1.47,2.35,1.94,3.63,1.9c1.33-0.05,0.73-1.73,0.82-2.63c0.4-3.93,0.33-7.92,0.95-11.8
	c0.77-4.84-0.12-8.4-5.39-9.75c-0.32-0.08-0.58-0.43-1.09-0.83c5.32-2.96,10.43-5.8,15.54-8.64c9.1,6.15,13.71,14.79,14.11,25.69
	c0.06,1.6,0.92,2.45,1.99,3.29c2.11,1.66,4.21,3.33,6.36,4.93c1.14,0.85,1.07,1.64-0.13,2.13c-3.86,1.58-4.33,4.04-3.08,7.9
	c1.51,4.71,2.06,9.72,3.24,14.55c0.46,1.88-0.08,2.32-1.81,2.61c-5.09,0.85-10.14,1.96-15.22,2.83c-1.9,0.33-2.42,1.07-1.71,2.86
	C104.39,112,106.89,118.44,109.42,124.86z"/>
<path class="st3" d="M158.02,129.89c8.93,0.95,17.87,1.87,26.8,2.88c1.47,0.17,2.23-0.21,2.32-1.69c0.07-1.15,0.14-2.31,0.15-3.46
	c0.11-12.91,0.22-25.83,0.32-38.74c6.02,0,12.05,0,18.07,0c0-0.2,0-0.4,0-0.6c-6.02,0-12.04,0-18.06,0c0-3.55,0.2-7.12-0.05-10.65
	c-0.21-2.88,0.54-4.33,3.63-3.9c5.54,0.04,11.08,0.08,16.62,0.11c1.11,6.99,1.69,14.04,2.46,21.07c0.83,7.59,1.91,15.16,2.77,22.74
	c0.88,7.7,1.43,15.43,2.49,23.1c0.62,4.5,0.88,8.76-1.93,12.63c-2.45,3.38-5.93,5.3-9.96,5.47c-5.84,0.24-11.67,0.66-17.51,0.81
	c-9.95,0.26-19.89,1.02-29.85,1.04c-1.42,0-2.71,1.23-4.17,0.35c1.85-4.3,3.64-8.62,5.57-12.88c2.83-6.25,2.87-6.22-2.82-9.65
	c-0.16-0.1-0.28-0.26-0.41-0.39C155.58,135.36,155.76,132.17,158.02,129.89z"/>
<path class="st4" d="M98.09,38.79c-5.11,2.84-10.22,5.68-15.54,8.64c0.52,0.4,0.77,0.75,1.09,0.83c5.27,1.35,6.16,4.91,5.39,9.75
	c-0.62,3.88-0.55,7.88-0.95,11.8c-0.09,0.9,0.5,2.59-0.82,2.63c-1.28,0.05-2.87-0.43-3.63-1.9c-0.18-0.34-0.27-0.72-0.45-1.06
	c-1.76-3.46-5.31-5.05-8.64-3.87c-3.48,1.22-5.56,4.82-4.93,8.49c0.7,4.03,3.05,6.82,6.67,8.5c1.39,0.65,1.77,1.26,1.37,2.81
	c-1.59,6.12-2.25,12.46-4.31,18.47c-4.61-4.19-8.36-9.17-12.53-13.77c-2.73-3.01-5.52-6-7.91-9.34c-6.81-9.54-6.92-25.93,0.93-35.3
	c2.61-3.11,5.35-5.77,8.82-7.79c1.12-0.66,1.96-1.48,2.36-3.13c1.27-5.23,3.82-9.71,9.02-12.2c7.56-3.62,17.57,0.17,20.71,7.93
	C95.89,33.12,96.98,35.96,98.09,38.79z"/>
<path class="st2" d="M158.02,129.89c-2.26,2.28-2.44,5.47-3.58,8.24c-1.5-0.59-3-1.18-4.5-1.77c0,0,0.01,0.01,0.01,0.01
	c-0.18-0.61-0.64-0.67-1.17-0.6c0,0,0.01,0.01,0.01,0.01c-1.88-1.63-4.07-2.68-6.39-3.48c0,0,0.01,0.01,0.01,0.01
	c-0.19-0.58-0.63-0.68-1.17-0.6c0,0,0.01,0.01,0.01,0.01c-0.17-0.63-0.65-0.65-1.17-0.59c0,0,0.01,0.01,0.01,0.01
	c-0.28-0.87-1.16-0.93-1.79-1.31c0.31-0.64,0.77-1.23,0.59-2.01c4.13-4.99,5.08-11.28,6.95-17.18c1.1-3.46,2.14-6.96,2.96-10.49
	c0.88-3.82,3.12-6.04,6.89-6.89c0.83-0.19,1.61-0.62,2.41-0.94c3.2-0.11,6.11-1.37,9.09-2.36c2.23-0.58,4.41-1.36,6.79-1.13
	c2.95,0.29,5.53,3.24,4.12,5.61c-2.75,4.63-0.97,8.96-0.12,13.35c1.64,8.41-0.73,13.23-8.66,16.5c-3.11,1.28-6.35,2.23-9.47,3.47
	C159,128.09,157.18,127.96,158.02,129.89z"/>
<path class="st2" d="M207.79,73.84c-5.54-0.04-11.08-0.08-16.62-0.11c0.72-7.09-2.23-13.53-3.73-20.21
	c-0.52-2.32,0.28-4.11,0.88-6.07c0.87-2.82,2.66-5.34,2.84-8.4c1.61-0.6,1.56-2.09,1.83-3.4c0.98-0.98,1.22-2.32,1.67-3.55
	c0.3-0.15,0.78-0.17,0.47-0.71l-0.04,0.05c0.53,0.12,0.87,0.04,0.63-0.62l-0.04,0.03c1.19,0.2,2.38,0.39,3.56,0.59l-0.03-0.04
	c-0.01,3.55-1.08,6.95-1.51,10.45c-0.76,2.99-1.4,5.99-0.98,9.19c0.62-2.9,1.24-5.8,1.86-8.7c2.27,1.32,4.29,0.93,6.63-0.26
	c3.92-1.98,7.76-4.19,12-5.48c0,1.87,0,3.73,0,5.6c0.25-0.01,0.5-0.02,0.75-0.03c0.48-2.01,0.23-4.07,0.15-6.11
	c3.11-0.98,3.75-3.27,3.37-6.18c-0.11-0.83,0.09-1.69,0.15-2.54c1.83,5.13,5.14,10.17,2.33,15.82c-1.53,3.06-3.86,5.73-5.89,8.52
	c-2.94,4.04-5.91,8.05-8.93,12.03c-1.55,2.04-2.28,4.12-1.45,6.71C208.03,71.45,207.78,72.69,207.79,73.84z"/>
<path class="st4" d="M138.9,7.96c9.41-3.13,12.13-1.58,18.98,6.6c1.58,1.89,2.92,4.05,4.02,6.26c6.8,13.58,10.7,27.83,9.48,43.17
	c-0.19,2.44-0.76,4.91-1.52,7.24c-1.87,5.71-5.58,8.2-11.85,8.29c0,0,0.06,0.06,0.06,0.06c2.63-2.84,4.05-6.21,4.73-10
	c1.36-7.63,0.82-15.19-0.7-22.7c-2.43-12.03-6.41-23.43-14.59-32.91c-2.29-2.66-5-4.83-8.64-5.42c0.06-0.05,0.18-0.12,0.18-0.16
	C139.02,8.24,138.95,8.1,138.9,7.96z"/>
<path class="st5" d="M202.22,10.6c4.37-2.11,8.72-4.25,13.1-6.34c3.91-1.86,3.99-1.8,4.21,2.35c-0.03,7.5-0.07,14.99-0.08,22.49
	c0,1.29,0,2.39-1.48,3.07c-5.33,2.42-10.6,4.95-15.9,7.43c-0.11-8.14,0.28-16.29-0.21-24.44C201.97,13.65,202.1,12.12,202.22,10.6z"
	/>
<path class="st6" d="M202.22,10.6c-0.12,1.52-0.24,3.05-0.36,4.57c-0.5,0.9-0.31,1.87-0.31,2.82c-0.01,7.19,0,14.38,0,21.57
	c-2.2-0.13-2.62-1.36-2.18-3.3c0.37-1.61,1.17-3.29-0.15-4.87c0,0,0.03,0.04,0.03,0.04c-0.99-1.42-2.18-1.58-3.56-0.59
	c0,0,0.04-0.03,0.04-0.03c-0.39,0.03-0.59,0.24-0.63,0.62c0,0,0.04-0.05,0.04-0.05c-0.4,0.08-0.53,0.34-0.47,0.71
	c-0.45,1.23-0.68,2.57-1.67,3.55c-2.26-1.05-4.47-2.21-6.78-3.11c-1.7-0.66-2.25-1.62-2.22-3.44c0.11-7.29,0.05-14.59,0.06-21.89
	c0.28-4.78-0.7-4.65,4.28-2.6c3.45,1.42,6.73,3.26,10.06,4.95C199.61,10.19,200.82,10.71,202.22,10.6z"/>
<path class="st5" d="M138.9,7.96c0.05,0.14,0.12,0.28,0.15,0.43c0.01,0.04-0.11,0.11-0.17,0.16c-4.37,3.54-5.36,8.59-5.72,13.71
	c-1.09,15.4,2.57,29.81,9.84,43.31c3.32,6.16,7.32,11.84,14.51,14.13l0.03,0.25c-4.92,2.01-10.24,0.01-14.13-5
	c-8.01-10.3-12.16-22.15-14.24-34.83c-1.22-7.42-1.44-14.93,0.08-22.3C130.29,12.71,132.89,8.51,138.9,7.96z"/>
<path class="st7" d="M37.71,216.7c-4.46-3.8-7.52-8.74-10.64-13.56c-8.12-12.53-13.23-26.24-15.9-40.94
	c-1.53-8.4-2.04-16.91-1.46-25.29c1.45-20.96,8.2-40.26,20.63-57.35c1.69-2.32,2.97-5.12,5.62-6.68c0.14,0.13,0.28,0.25,0.42,0.38
	c-2.46,3.42-5,6.79-7.37,10.27c-9.09,13.35-14.84,28.03-17.06,44.02c-4.55,32.73,3.8,61.77,25.11,87.07
	c0.42,0.5,0.71,1.12,1.06,1.68C37.97,216.43,37.84,216.56,37.71,216.7z"/>
<path class="st4" d="M199.22,31.39c1.31,1.58,0.51,3.26,0.15,4.87c-0.44,1.94-0.01,3.17,2.18,3.3c0,0,0.25,0.13,0.25,0.13
	s0.27-0.09,0.27-0.09c5.3-2.49,10.57-5.02,15.9-7.43c1.49-0.67,1.48-1.78,1.48-3.07c0.01-7.5,0.05-14.99,0.08-22.49
	c1.93,0.08,2.23,1.34,2.22,2.94c-0.06,5.92-0.07,11.84-0.11,17.76c-0.06,0.85-0.26,1.71-0.15,2.54c0.39,2.92-0.26,5.2-3.37,6.18
	c-0.3,0.18-0.6,0.36-0.9,0.55c-4.24,1.29-8.09,3.5-12,5.48c-2.34,1.18-4.36,1.58-6.63,0.26c-0.17-0.39-0.49-0.5-0.88-0.49
	C198.14,38.34,199.21,34.94,199.22,31.39z"/>
<path class="st4" d="M184.05,7.22c0,7.3,0.05,14.59-0.06,21.89c-0.03,1.81,0.52,2.78,2.22,3.44c2.32,0.89,4.53,2.06,6.78,3.11
	c-0.27,1.31-0.23,2.8-1.83,3.4c-0.08-0.06-0.14-0.13-0.23-0.18c-3.01-1.45-7.28-1.92-8.69-4.61c-1.4-2.67-0.42-6.6-0.43-9.98
	c-0.02-5.22,0.02-10.43-0.02-15.65C181.79,6.86,182.2,5.95,184.05,7.22z"/>
<path class="st8" d="M26.92-9.62c0.76,0.71,1.64,1.26,2.58,1.71c1.2,0.58,2.48,0.93,3.81,1.07c0.94,0.1,1.88,0.1,2.81-0.07
	c0.07,0,0.13,0,0.2,0c0,0.03,0.01,0.05,0.01,0.08c-0.97,0.18-1.97,0.21-2.94,0.11c-1.67-0.17-3.26-0.65-4.73-1.51
	c-0.62-0.36-1.19-0.78-1.76-1.21c-0.08-0.06-0.16-0.13-0.19-0.24c0.02,0,0.03-0.01,0.04-0.02C26.8-9.67,26.86-9.64,26.92-9.62z"/>
<path class="st4" d="M167.19,89.96c-2.98,0.99-5.88,2.25-9.09,2.36c-0.13-1.04-0.52-1.98-0.92-2.95c-0.98-2.37,0.36-5.32,2.61-6.07
	c2.76-0.91,5.6,0.5,6.36,3.17C166.49,87.63,166.84,88.79,167.19,89.96z"/>
<path class="st7" d="M206.47,207.94c2.55-4.18,5.23-8.29,7.62-12.56c6.6-11.79,10.42-24.52,12.36-37.84
	c0.47-3.24,0.65-6.53,1.33-9.76c0.42,4.61-0.19,9.16-0.92,13.66c-1.65,10.13-4.63,19.88-9.1,29.12
	c-3.04,6.29-6.28,12.48-10.93,17.79C206.71,208.22,206.59,208.08,206.47,207.94z"/>
<path class="st8" d="M124.89,218.03c5.89-11.18,10.42-22.99,15.84-34.39c1.63-3.42,2.38-7.32,5.17-10.16
	c-0.21,0.95-0.42,1.89-0.63,2.84c-5.24,11.57-10.43,23.15-15.74,34.69c-1.18,2.57-1.75,5.56-4.34,7.31
	C125.09,218.22,124.99,218.13,124.89,218.03z"/>
<path class="st7" d="M227.61,140.27c-1.24-14.98-4.23-29.5-10.95-43.14C221.65,99.66,229.43,131.36,227.61,140.27z"/>
<path class="st8" d="M149.93,136.36c1.5,0.59,3,1.18,4.5,1.77c0.14,0.13,0.25,0.3,0.41,0.39c5.69,3.42,5.65,3.4,2.82,9.65
	c-1.93,4.26-3.72,8.59-5.57,12.88c-0.53,0.68-1.06,1.35-1.58,2.03c-0.27-1.33,0.43-2.41,0.94-3.54c2.2-4.89,4.24-9.87,6.67-14.65
	c1.21-2.39,0.42-3.42-1.61-4.36c-1.65-0.77-3.26-1.62-4.85-2.51C150.96,137.64,149.93,137.51,149.93,136.36z"/>
<path class="st7" d="M41.44-8.99c-0.48,0.44-1.06,0.73-1.62,1.04c-0.46,0.25-0.95,0.43-1.44,0.61c0-0.03,0-0.06,0-0.09
	c0.61-0.26,1.22-0.51,1.79-0.84c0.41-0.24,0.82-0.5,1.22-0.75C41.41-9.02,41.43-9.01,41.44-8.99z"/>
<path class="st9" d="M38.38-7.44c0,0.03,0,0.06,0,0.09c-0.67,0.25-1.35,0.43-2.06,0.52c0-0.03-0.01-0.05-0.01-0.08
	C37.01-7.06,37.7-7.23,38.38-7.44z"/>
<path class="st10" d="M187.61,88.28c6.02,0,12.04,0,18.06,0c0,0.2,0,0.4,0,0.6c-6.02,0-12.05,0-18.07,0
	C187.6,88.68,187.6,88.48,187.61,88.28z"/>
<path class="st7" d="M25.94-10.51c0.23,0.23,0.46,0.46,0.69,0.68c-0.01,0.02-0.03,0.03-0.04,0.05c-0.3-0.16-0.53-0.39-0.69-0.69
	C25.9-10.48,25.92-10.49,25.94-10.51z"/>
<path class="st7" d="M42.95-10.41c0.1-0.24,0.31-0.39,0.5-0.56c0.02,0.01,0.03,0.03,0.05,0.04c-0.11,0.23-0.31,0.39-0.5,0.56
	C42.98-10.38,42.97-10.39,42.95-10.41z"/>
<path class="st7" d="M42.5-9.87C42.36-9.7,42.21-9.52,42-9.43c-0.01-0.02-0.03-0.03-0.04-0.05c0.15-0.17,0.27-0.36,0.5-0.44
	C42.47-9.9,42.49-9.88,42.5-9.87z"/>
<path class="st8" d="M148.2,168.29c-0.02-2.1,0.67-3.89,2.34-5.25C150.28,165.03,149.39,166.73,148.2,168.29z"/>
<path class="st8" d="M145.88,173.51c-0.02-2.1,0.65-3.9,2.34-5.24C147.92,170.23,147.07,171.95,145.88,173.51z"/>
<path class="st7" d="M35.95,72.89c0.67-1.12,0.85-2.79,3.03-2.52c-0.65,1.32-1.58,2.15-2.61,2.9
	C36.23,73.14,36.09,73.02,35.95,72.89z"/>
<path class="st7" d="M43.75-11.23c-0.04,0.14-0.14,0.23-0.25,0.31c-0.02-0.01-0.03-0.03-0.05-0.04c0.05-0.13,0.12-0.25,0.25-0.31
	C43.72-11.26,43.73-11.25,43.75-11.23z"/>
<path class="st7" d="M41.65-9.23c0.07-0.13,0.17-0.21,0.31-0.25c0.01,0.02,0.03,0.03,0.04,0.05c-0.08,0.11-0.17,0.21-0.31,0.25
	C41.68-9.19,41.66-9.21,41.65-9.23z"/>
<path class="st7" d="M41.69-9.18c-0.06,0.09-0.13,0.17-0.25,0.19c-0.01-0.01-0.03-0.03-0.04-0.04c0.04-0.12,0.15-0.16,0.25-0.19
	C41.66-9.21,41.68-9.19,41.69-9.18z"/>
<path class="st7" d="M43.93-11.48c-0.02,0.12-0.1,0.19-0.19,0.25c-0.02-0.01-0.03-0.03-0.05-0.04c0.04-0.1,0.07-0.21,0.19-0.25
	C43.91-11.51,43.92-11.5,43.93-11.48z"/>
<path class="st7" d="M26.71-9.67c-0.02-0.01-0.05-0.03-0.07-0.04c0.02-0.01,0.03-0.03,0.05-0.04c0.02,0.02,0.04,0.04,0.06,0.07
	C26.73-9.68,26.72-9.67,26.71-9.67z"/>
<path class="st7" d="M26.64-9.72c-0.02-0.02-0.04-0.04-0.06-0.06c0.01-0.02,0.03-0.03,0.04-0.05c0.02,0.02,0.04,0.04,0.06,0.06
	C26.67-9.74,26.65-9.73,26.64-9.72z"/>
<path class="st7" d="M42.46-9.91c0.02-0.02,0.04-0.04,0.06-0.06c0.01,0.02,0.03,0.03,0.04,0.05c-0.02,0.02-0.04,0.04-0.06,0.06
	C42.49-9.88,42.47-9.9,42.46-9.91z"/>
<path class="st7" d="M42.63-9.99c-0.02,0.02-0.04,0.04-0.06,0.06c-0.01-0.02-0.03-0.03-0.04-0.05c0.02-0.02,0.04-0.04,0.06-0.06
	C42.6-10.02,42.61-10,42.63-9.99z"/>
<path class="st7" d="M42.69-10.05c-0.02,0.02-0.04,0.04-0.06,0.06c-0.01-0.02-0.03-0.03-0.04-0.05c0.02-0.02,0.04-0.04,0.06-0.06
	C42.66-10.08,42.68-10.07,42.69-10.05z"/>
<path class="st7" d="M42.75-10.11c-0.02,0.02-0.04,0.04-0.06,0.06c-0.01-0.02-0.03-0.03-0.04-0.05c0.02-0.02,0.04-0.04,0.06-0.06
	C42.72-10.14,42.74-10.13,42.75-10.11z"/>
<path class="st7" d="M42.81-10.17c-0.02,0.02-0.04,0.04-0.06,0.06c-0.01-0.02-0.03-0.03-0.04-0.05c0.02-0.02,0.04-0.04,0.06-0.06
	C42.79-10.21,42.8-10.19,42.81-10.17z"/>
<path class="st11" d="M75.06,131.14c0.07,0.15,0.11,0.31,0.12,0.47c-0.21-0.01-0.41-0.02-0.62-0.04
	C74.73,131.43,74.9,131.28,75.06,131.14z"/>
<path class="st4" d="M157.52,79.96c0,0-0.03-0.25-0.03-0.25c0.19-0.04,0.38-0.09,0.56-0.13c0,0-0.06-0.06-0.06-0.06
	C158.17,80.02,157.81,79.95,157.52,79.96z"/>
<path class="st7" d="M42.77-10.22c0.02-0.02,0.04-0.04,0.06-0.06c0.01,0.02,0.03,0.03,0.04,0.05c-0.02,0.02-0.04,0.04-0.06,0.06
	C42.8-10.19,42.79-10.21,42.77-10.22z"/>
<path class="st7" d="M42.94-10.3c-0.02,0.02-0.04,0.04-0.06,0.06c-0.01-0.02-0.03-0.03-0.04-0.05c0.02-0.02,0.04-0.04,0.06-0.06
	C42.91-10.33,42.92-10.32,42.94-10.3z"/>
<path class="st7" d="M43-10.36c-0.02,0.02-0.04,0.04-0.06,0.06c-0.01-0.02-0.03-0.03-0.04-0.05c0.02-0.02,0.04-0.04,0.06-0.06
	C42.97-10.39,42.98-10.38,43-10.36z"/>
<path class="st7" d="M25.81-10.63c0.02,0.02,0.04,0.04,0.06,0.06c-0.01,0.02-0.03,0.03-0.04,0.05c-0.02-0.02-0.04-0.04-0.06-0.07
	C25.78-10.6,25.8-10.62,25.81-10.63z"/>
<path class="st7" d="M25.87-10.57c0.02,0.02,0.04,0.04,0.06,0.06c-0.02,0.01-0.03,0.03-0.05,0.04c-0.02-0.02-0.04-0.04-0.06-0.06
	C25.85-10.54,25.86-10.55,25.87-10.57z"/>
<path class="st4" d="M116.33,170.03c-2.78,7.8-3.02,7.9-8.46,2.21c-7.52-7.86-14.96-15.81-22.41-23.73c-0.45-0.47-0.74-1.1-1.1-1.65
	c0,0,0.2-0.17,0.2-0.17c6.9,5.17,13.74,10.43,20.72,15.49c3.62,2.63,6.81,5.89,10.96,7.78
	C116.24,169.96,116.33,170.03,116.33,170.03z"/>
<path class="st8" d="M138.3,129.83c0.64,0.38,1.51,0.44,1.79,1.31c-1.28-0.06-2.12,0.46-2.74,1.64c-1.66,3.16-3.4,6.28-5.19,9.36
	c-0.72,1.24-0.38,1.79,0.82,2.41c4.71,2.45,9.36,5,14.02,7.54c1.15,0.62,2.26,1.32,3.81,2.24c-1.62,0.55-2.35-0.22-3.1-0.62
	c-5.03-2.66-10.08-5.29-15.02-8.12c-1.64-0.94-2.19-0.58-3.01,0.93c-3.71,6.88-7.53,13.69-11.34,20.52
	c-0.37,0.66-0.87,1.25-1.31,1.88c-0.11-0.04-0.19-0.12-0.24-0.22c1.63-4.89,4.67-9.05,7.05-13.55c4.05-7.68,8.35-15.22,12.53-22.83
	C136.89,131.38,137.38,130.44,138.3,129.83z"/>
<path class="st8" d="M35.1-10.35c-0.31,0.53-1.51,0.61-1.91,0.06c0.01-0.01,0.02-0.02,0.03-0.03c0.63,0.41,1.25,0.4,1.85-0.06
	C35.08-10.37,35.09-10.36,35.1-10.35z"/>
<path class="st8" d="M142.39,132.3c2.33,0.8,4.52,1.85,6.39,3.48C146.27,135.33,143.94,134.53,142.39,132.3z"/>
<path class="st8" d="M33.1-10.39c-0.15-0.03-0.21-0.08-0.27-0.23C32.97-10.58,33.04-10.53,33.1-10.39z"/>
<path class="st8" d="M32.72-10.7c-0.15-0.02-0.21-0.08-0.26-0.2C32.61-10.91,32.66-10.83,32.72-10.7z"/>
<path class="st8" d="M31.35-11.82c-0.15-0.03-0.21-0.08-0.27-0.23C31.23-12.01,31.3-11.96,31.35-11.82z"/>
<path class="st8" d="M32.02-11.23c-0.1-0.05-0.2-0.09-0.22-0.24c0.14,0.02,0.2,0.1,0.25,0.21C32.04-11.26,32.03-11.24,32.02-11.23z"
	/>
<path class="st8" d="M30.42-12.63c0.1,0.05,0.2,0.09,0.22,0.24c-0.14-0.02-0.2-0.1-0.25-0.21C30.4-12.6,30.41-12.61,30.42-12.63z"/>
<path class="st8" d="M29.72-13.16c0.15,0.02,0.21,0.08,0.26,0.23C29.84-12.97,29.78-13.02,29.72-13.16z"/>
<path class="st8" d="M29.34-13.46c0.16,0,0.2,0.09,0.29,0.19C29.45-13.26,29.41-13.34,29.34-13.46z"/>
<path class="st8" d="M28.91-13.79c-0.1-0.05-0.2-0.09-0.22-0.24c0.14,0.02,0.2,0.1,0.25,0.21C28.93-13.81,28.92-13.8,28.91-13.79z"
	/>
<path class="st8" d="M59.56,180.09c0.47,0.16,0.89,0.41,0.9,0.95c0.01,0.34-0.33,0.46-0.58,0.31c-0.3-0.19-0.59-0.47-0.75-0.78
	C58.96,180.23,59.22,180.08,59.56,180.09z"/>
<path class="st8" d="M61.89,182.08c0.88,0.26,1.54,0.77,1.82,1.68c-0.09,0.09-0.18,0.18-0.26,0.27c-0.89-0.25-1.53-0.77-1.84-1.66
	C61.7,182.27,61.79,182.17,61.89,182.08z"/>
<path class="st8" d="M29.05-13.75c0.1,0.03,0.17,0.08,0.2,0.18c-0.01,0.01-0.02,0.02-0.03,0.03c-0.09-0.03-0.16-0.08-0.2-0.17
	C29.03-13.72,29.04-13.73,29.05-13.75z"/>
<path class="st8" d="M30.11-12.87c0.09,0.03,0.16,0.08,0.2,0.17c-0.01,0.01-0.02,0.02-0.03,0.04c-0.1-0.03-0.17-0.08-0.2-0.18
	C30.09-12.85,30.1-12.86,30.11-12.87z"/>
<path class="st8" d="M32.33-10.98c-0.09-0.03-0.16-0.08-0.2-0.17c0.01-0.01,0.02-0.02,0.03-0.04c0.1,0.03,0.17,0.08,0.2,0.18
	C32.35-11,32.34-10.99,32.33-10.98z"/>
<path class="st8" d="M30.96-12.1c-0.09-0.03-0.16-0.08-0.2-0.18c0.01-0.01,0.02-0.02,0.03-0.03c0.09,0.03,0.16,0.08,0.2,0.18
	C30.98-12.12,30.97-12.11,30.96-12.1z"/>
<path class="st8" d="M31.65-11.54c-0.1-0.03-0.16-0.08-0.2-0.18c0.01-0.01,0.02-0.02,0.03-0.03c0.09,0.03,0.16,0.08,0.19,0.18
	C31.67-11.56,31.66-11.55,31.65-11.54z"/>
<path class="st8" d="M140.08,131.13c0.52-0.06,1-0.04,1.17,0.59C140.7,131.84,140.23,131.79,140.08,131.13z"/>
<path class="st8" d="M141.24,131.71c0.53-0.08,0.97,0.02,1.17,0.6C141.85,132.44,141.39,132.37,141.24,131.71z"/>
<path class="st8" d="M30.39-12.59c-0.04-0.03-0.08-0.05-0.11-0.08c0.01-0.01,0.02-0.02,0.03-0.04c0.04,0.02,0.08,0.05,0.11,0.07
	C30.41-12.61,30.4-12.6,30.39-12.59z"/>
<path class="st8" d="M148.77,135.77c0.53-0.08,0.99-0.02,1.17,0.6C149.39,136.49,148.93,136.43,148.77,135.77z"/>
<path class="st4" d="M84.36,146.86c-0.14-0.21-0.29-0.43-0.42-0.65c-0.01-0.02,0.12-0.12,0.19-0.19c0.14,0.22,0.28,0.45,0.43,0.67
	C84.56,146.69,84.36,146.86,84.36,146.86z"/>
<path class="st8" d="M29.02-13.71c-0.04-0.03-0.08-0.05-0.11-0.08c0.01-0.01,0.02-0.02,0.03-0.04c0.04,0.03,0.08,0.05,0.11,0.08
	C29.04-13.73,29.03-13.72,29.02-13.71z"/>
<path class="st4" d="M117.04,168.92c-0.24,0.37-0.48,0.74-0.71,1.11c0,0-0.09-0.08-0.09-0.08c-0.02-0.51,0.14-0.94,0.56-1.26
	C116.85,168.8,116.93,168.88,117.04,168.92z"/>
<path class="st8" d="M32.14-11.16c-0.04-0.03-0.08-0.05-0.11-0.08c0.01-0.01,0.02-0.02,0.03-0.04c0.04,0.03,0.08,0.05,0.11,0.08
	C32.15-11.18,32.14-11.17,32.14-11.16z"/>
<path class="st8" d="M31.68-11.57c0.02,0.02,0.05,0.03,0.01,0.06c0,0-0.03-0.02-0.04-0.03C31.66-11.55,31.67-11.56,31.68-11.57z"/>
<path class="st8" d="M31.45-11.72c-0.02-0.02-0.05-0.04-0.01-0.06c0.01,0,0.03,0.02,0.04,0.03C31.47-11.74,31.46-11.73,31.45-11.72z
	"/>
<path class="st8" d="M30.99-12.14c0.02,0.02,0.05,0.04,0.01,0.06c-0.01,0-0.03-0.02-0.04-0.03C30.97-12.11,30.98-12.12,30.99-12.14z
	"/>
<path class="st8" d="M30.77-12.28c-0.02-0.02-0.05-0.03-0.01-0.06c0.01,0,0.03,0.02,0.04,0.03C30.79-12.3,30.78-12.29,30.77-12.28z"
	/>
<path class="st8" d="M30.08-12.84c-0.02-0.02-0.05-0.03-0.01-0.06c0,0,0.03,0.02,0.04,0.03C30.1-12.86,30.09-12.85,30.08-12.84z"/>
<path class="st8" d="M29.25-13.57c0.02,0.02,0.05,0.03,0.01,0.06c0,0-0.03-0.02-0.04-0.03C29.23-13.55,29.24-13.56,29.25-13.57z"/>
<path class="st8" d="M28.56-14.13c0.02,0.02,0.05,0.03,0.01,0.06c0,0-0.03-0.02-0.04-0.03C28.54-14.11,28.55-14.12,28.56-14.13z"/>
<path class="st8" d="M61.6,182.36c-0.16-0.16-0.44-0.32-0.09-0.55c0.05-0.03,0.24,0.17,0.37,0.26
	C61.79,182.17,61.7,182.27,61.6,182.36z"/>
<path class="st8" d="M33.19-10.29c-0.02-0.02-0.05-0.03-0.01-0.06c0,0,0.03,0.02,0.04,0.03C33.21-10.31,33.2-10.3,33.19-10.29z"/>
<path class="st8" d="M35.16-10.41c-0.02,0.02-0.04,0.04-0.06,0.06c-0.01-0.01-0.02-0.02-0.03-0.03c0.02-0.02,0.04-0.04,0.06-0.06
	C35.14-10.43,35.15-10.42,35.16-10.41z"/>
<path class="st8" d="M32.36-11.01c0.02,0.02,0.05,0.03,0.01,0.06c0,0-0.03-0.02-0.04-0.03C32.34-10.99,32.35-11,32.36-11.01z"/>
<path class="st7" d="M197.71,41.83c0.39-0.02,0.71,0.1,0.88,0.49c-0.62,2.9-1.24,5.8-1.86,8.7
	C196.31,47.83,196.94,44.82,197.71,41.83z"/>
<path class="st7" d="M217.22,36.58c0.3-0.18,0.6-0.36,0.9-0.55c0.08,2.04,0.32,4.1-0.15,6.11c-0.25,0.01-0.5,0.02-0.75,0.03
	C217.22,40.31,217.22,38.45,217.22,36.58z"/>
<path class="st4" d="M195.69,30.84c1.38-0.99,2.58-0.83,3.56,0.59C198.07,31.23,196.88,31.04,195.69,30.84z"/>
<path class="st4" d="M194.67,32.1c-0.05-0.38,0.07-0.64,0.47-0.71C195.44,31.93,194.97,31.96,194.67,32.1z"/>
<path class="st4" d="M195.11,31.43c0.03-0.39,0.24-0.59,0.63-0.62C195.97,31.47,195.64,31.55,195.11,31.43z"/>
<path class="st6" d="M158.06,79.58c-0.19,0.04-0.38,0.08-0.56,0.13c-7.19-2.3-11.18-7.97-14.51-14.13
	c-7.28-13.5-10.93-27.91-9.84-43.31c0.36-5.12,1.35-10.17,5.72-13.71c3.64,0.59,6.34,2.76,8.64,5.42
	c8.18,9.48,12.16,20.88,14.59,32.91c1.52,7.51,2.05,15.07,0.7,22.7C162.11,73.37,160.69,76.74,158.06,79.58z"/>
<path class="st11" d="M202.06,39.61l-0.27,0.09c0,0-0.25-0.13-0.25-0.13c0-7.19-0.01-14.38,0-21.57c0-0.95-0.19-1.92,0.31-2.82
	C202.34,23.31,201.95,31.46,202.06,39.61z"/>
</svg>
