<svg xmlns="http://www.w3.org/2000/svg" width="262" height="229.25" viewBox="0 0 262 229.25">
  <path id="quote-left" d="M237.438,114.625H196.5V81.875a32.78,32.78,0,0,1,32.75-32.75h4.094a12.252,12.252,0,0,0,12.281-12.281V12.281A12.252,12.252,0,0,0,233.344,0H229.25a81.852,81.852,0,0,0-81.875,81.875V204.688a24.569,24.569,0,0,0,24.563,24.563h65.5A24.569,24.569,0,0,0,262,204.688v-65.5A24.569,24.569,0,0,0,237.438,114.625Zm-147.375,0H49.125V81.875a32.78,32.78,0,0,1,32.75-32.75h4.094A12.252,12.252,0,0,0,98.25,36.844V12.281A12.252,12.252,0,0,0,85.969,0H81.875A81.852,81.852,0,0,0,0,81.875V204.688A24.569,24.569,0,0,0,24.563,229.25h65.5a24.569,24.569,0,0,0,24.563-24.562v-65.5A24.569,24.569,0,0,0,90.063,114.625Z" fill="#00838f"/>
</svg>
