<svg xmlns="http://www.w3.org/2000/svg" width="17.25" height="13.8" viewBox="0 0 17.25 13.8"><defs><style>.a{fill:#384047;}</style></defs><g transform="translate(8.625 6.9)"><path class="a" d="M6.874,7.052a.431.431,0,0,0,.61,0l.3-.3a.431.431,0,0,0,0-.61l-.963-.962.962-.963a.431.431,0,0,0,0-.61l-.3-.3a.431.431,0,0,0-.61,0L5.3,4.87a.431.431,0,0,0,0,.61Zm2.588-.3.3.3a.431.431,0,0,0,.61,0L11.949,5.48a.431.431,0,0,0,0-.61L10.376,3.3a.431.431,0,0,0-.61,0l-.3.3a.431.431,0,0,0,0,.61l.962.962-.962.963a.431.431,0,0,0,0,.61Zm7.357,4.465H10.284a.85.85,0,0,1-.882.863H7.762a.915.915,0,0,1-.883-.863H.431A.433.433,0,0,0,0,11.644v.431A1.73,1.73,0,0,0,1.725,13.8h13.8a1.73,1.73,0,0,0,1.725-1.725v-.431A.433.433,0,0,0,16.819,11.212ZM15.525,1.294A1.3,1.3,0,0,0,14.231,0H3.019A1.3,1.3,0,0,0,1.725,1.294V10.35h13.8ZM13.8,8.625H3.45v-6.9H13.8Z" transform="translate(-8.625 -6.9)"/></g></svg>