<svg xmlns="http://www.w3.org/2000/svg" width="87" height="87" viewBox="0 0 87 87"><defs><style>.a{fill:none;}.b{fill:#b9c5cc;}</style></defs><path class="a" d="M0,0H87V87H0Z"/><path class="b" d="M72.361,36.728,39.736,4.1A7.2,7.2,0,0,0,34.625,2H9.25A7.271,7.271,0,0,0,2,9.25V34.625a7.234,7.234,0,0,0,2.139,5.147L36.764,72.4a7.2,7.2,0,0,0,5.111,2.1,7.088,7.088,0,0,0,5.111-2.139L72.361,46.986A7.088,7.088,0,0,0,74.5,41.875,7.322,7.322,0,0,0,72.361,36.728ZM41.875,67.286,9.25,34.625V9.25H34.625V9.214L67.25,41.839Z" transform="translate(5.25 5.25)"/><circle class="b" cx="5.5" cy="5.5" r="5.5" transform="translate(18 18)"/></svg>